<svg xmlns="http://www.w3.org/2000/svg" viewBox="0 0 48 48">
  <!-- QR Code Emboss icon for TrailCurrent workbench -->

  <!-- Background -->
  <rect x="2" y="2" width="44" height="44" rx="3" fill="#ffffff" stroke="#52a441" stroke-width="1.5"/>

  <!-- Top-left finder pattern -->
  <rect x="5" y="5" width="13" height="13" fill="#52a441"/>
  <rect x="7" y="7" width="9" height="9" fill="#ffffff"/>
  <rect x="9" y="9" width="5" height="5" fill="#52a441"/>

  <!-- Top-right finder pattern -->
  <rect x="30" y="5" width="13" height="13" fill="#52a441"/>
  <rect x="32" y="7" width="9" height="9" fill="#ffffff"/>
  <rect x="34" y="9" width="5" height="5" fill="#52a441"/>

  <!-- Bottom-left finder pattern -->
  <rect x="5" y="30" width="13" height="13" fill="#52a441"/>
  <rect x="7" y="32" width="9" height="9" fill="#ffffff"/>
  <rect x="9" y="34" width="5" height="5" fill="#52a441"/>

  <!-- Timing patterns -->
  <rect x="20" y="9" width="3" height="3" fill="#52a441"/>
  <rect x="9" y="20" width="3" height="3" fill="#52a441"/>
  <rect x="24" y="9" width="3" height="3" fill="#52a441"/>
  <rect x="9" y="24" width="3" height="3" fill="#52a441"/>

  <!-- Data modules -->
  <rect x="20" y="5" width="3" height="3" fill="#52a441"/>
  <rect x="20" y="14" width="3" height="3" fill="#52a441"/>
  <rect x="24" y="14" width="3" height="3" fill="#52a441"/>
  <rect x="20" y="20" width="3" height="3" fill="#52a441"/>
  <rect x="24" y="20" width="3" height="3" fill="#52a441"/>
  <rect x="30" y="20" width="3" height="3" fill="#52a441"/>
  <rect x="36" y="20" width="3" height="3" fill="#52a441"/>
  <rect x="20" y="24" width="3" height="3" fill="#52a441"/>
  <rect x="30" y="24" width="3" height="3" fill="#52a441"/>
  <rect x="36" y="24" width="3" height="3" fill="#52a441"/>
  <rect x="20" y="30" width="3" height="3" fill="#52a441"/>
  <rect x="24" y="30" width="3" height="3" fill="#52a441"/>
  <rect x="30" y="30" width="3" height="3" fill="#52a441"/>
  <rect x="20" y="36" width="3" height="3" fill="#52a441"/>
  <rect x="24" y="36" width="3" height="3" fill="#52a441"/>
  <rect x="30" y="36" width="3" height="3" fill="#52a441"/>
  <rect x="36" y="36" width="3" height="3" fill="#52a441"/>
  <rect x="36" y="30" width="3" height="3" fill="#52a441"/>
  <rect x="40" y="30" width="3" height="3" fill="#52a441"/>
  <rect x="40" y="40" width="3" height="3" fill="#52a441"/>
</svg>
