<svg xmlns="http://www.w3.org/2000/svg" viewBox="0 0 48 48" width="48" height="48">
  <!-- 3D box representing the CAD model -->
  <path d="M6 18 L18 11 L30 18 L30 34 L18 41 L6 34 Z"
        fill="#52a441" opacity="0.3" stroke="#52a441" stroke-width="1.5"
        stroke-linejoin="round"/>
  <path d="M18 11 L18 27 L6 34 L6 18 Z"
        fill="#52a441" opacity="0.5"/>
  <path d="M18 11 L30 18 L30 34 L18 27 Z"
        fill="#52a441" opacity="0.7"/>
  <path d="M6 18 L18 27 L30 18"
        fill="none" stroke="#52a441" stroke-width="1" opacity="0.8"/>
  <line x1="18" y1="27" x2="18" y2="41"
        stroke="#52a441" stroke-width="1" opacity="0.8"/>

  <!-- Export arrow -->
  <path d="M28 24 L38 24 L38 20 L46 26 L38 32 L38 28 L28 28 Z"
        fill="#74fe00"/>

  <!-- Camera/lens icon (render destination) -->
  <rect x="34" y="4" width="12" height="9" rx="1.5"
        fill="#3d7d31" stroke="#52a441" stroke-width="0.5"/>
  <circle cx="40" cy="8.5" r="2.8"
          fill="none" stroke="#74fe00" stroke-width="1.2"/>
  <circle cx="40" cy="8.5" r="1"
          fill="#74fe00"/>
</svg>
