DBRep_DrawableShape

CASCADE Topology V1, (c) Matra-Datavision
Locations 63
1
              1               0               0               0 
              0               1               0               0 
              0               0               1               0 
1
              1               0               0              -0 
              0               1               0         -19.459 
              0               0               1           11.81 
2  1 1 2 1 0
1
              1               0               0               0 
              0               1               0               0 
              0               0               1               0 
1
              1               0               0               0 
              0               1               0           -12.6 
              0               0               1           3e-15 
2  4 -1 5 1 0
1
              1               0               0               0 
              0               1               0               0 
              0               0               1               0 
1
              1               0               0               0 
              0               0              -1          11.259 
              0               1               0          -3e-15 
2  7 1 8 1 0
2  8 -1 7 -1 0
2  5 -1 4 1 8 -1 7 -1 0
2  1 -1 5 -1 4 1 8 -1 7 -1 0
2  1 -1 0
2  7 1 8 1 4 -1 0
2  4 1 8 -1 7 -1 0
1
              1               0               0               0 
              0               1               0               0 
              0               0               1               0 
1
              1               0               0               0 
              0               1               0            -7.7 
              0               0               1           2e-15 
1
              1               0               0               0 
              0               1               0               0 
              0               0               1               0 
2  16 -1 17 1 18 1 8 -1 7 -1 0
2  1 -1 4 1 8 -1 7 -1 0
2  7 1 8 1 4 -1 5 1 0
2  16 -1 17 1 18 1 4 -1 0
1
              1               0               0               0 
              0               1               0               0 
              0               0               1               0 
1
              1               0               0               0 
              0               0              -1          18.959 
              0               1               0               0 
2  23 1 24 1 16 -1 17 1 18 1 4 -1 0
2  24 -1 23 -1 0
2  4 1 18 -1 17 -1 16 1 24 -1 23 -1 0
2  1 -1 4 1 18 -1 17 -1 16 1 24 -1 23 -1 0
2  17 -1 16 1 24 -1 23 -1 0
1
              1               0               0               0 
              0               1               0               0 
              0               0               1               0 
1
              1               0               0               0 
              0               1               0               0 
              0               0               1               0 
2  30 -1 31 1 16 -1 18 1 4 -1 0
1
              1               0               0               0 
              0               1               0               0 
              0               0               1               0 
1
             -1               0               0               0 
              0               0               1          40.259 
              0               1              -0               0 
2  33 1 34 1 0
2  34 -1 33 -1 0
2  4 1 18 -1 16 1 31 -1 30 1 34 -1 33 -1 0
2  1 -1 4 1 18 -1 16 1 31 -1 30 1 34 -1 33 -1 0
2  30 1 34 -1 33 -1 0
2  31 1 16 -1 18 1 4 -1 0
2  1 -1 4 1 18 -1 16 1 31 -1 0
2  33 1 34 1 30 -1 0
1
              1               0               0              -0 
              0               1               0           -21.3 
              0               0               1           5e-15 
2  33 1 34 1 30 -1 43 1 0
2  43 -1 30 1 34 -1 33 -1 0
2  1 -1 4 1 18 -1 16 1 31 -1 43 -1 30 1 34 -1 33 -1 0
2  18 1 4 -1 0
2  31 1 16 -1 0
2  33 1 34 1 30 -1 31 1 16 -1 0
2  33 1 34 1 30 -1 43 1 31 1 16 -1 0
2  31 -1 43 -1 30 1 34 -1 33 -1 0
2  30 -1 43 1 31 1 16 -1 0
2  23 1 24 1 16 -1 0
2  30 -1 43 1 31 1 24 -1 23 -1 0
2  4 1 18 -1 16 1 24 -1 23 -1 0
2  1 -1 4 1 18 -1 16 1 24 -1 23 -1 0
2  16 1 24 -1 23 -1 0
2  16 -1 0
2  4 1 18 -1 0
2  1 -1 4 1 18 -1 0
2  23 1 24 1 16 -1 17 1 0
2  33 1 34 1 30 -1 31 1 16 -1 18 1 4 -1 0
2  23 1 24 1 16 -1 18 1 4 -1 0
Curve2ds 248
1 11.809595406011608 -22.525338668439716 0 1 
1 -20.800000000000004 22.425000000000001 0 -1 
1 11.809595406011608 22.324661331560286 -1 0 
1 11.810000000000008 20.800000000000004 -1 0 
1 -11.810404593988396 22.324661331560286 0 -1 
1 20.800000000000004 -22.425000000000001 0 1 
1 -11.810404593988396 -22.525338668439716 1 0 
1 11.809999999999997 20.800000000000004 -1 0 
2 3.5545954060117579 10.85966133155689 0 1 1 -0 6.75
1 0 -20.300000000000008 1 3.81e-15 
1 10.304595406011757 10.85966133155689 0 -1 
1 10.150000000000004 -10.960000000000001 0 1 
2 3.5545954060117588 -11.060338668443112 0 1 1 -0 6.75
1 -2.2e-16 -20.299999999999997 1 -3.1999999999999999e-15 
1 6.5595954060117609 -17.104548707811364 0 -1 
1 0 -12.600000000000001 1 0 
2 5.2795954060117598 -19.124548707811368 0 1 1 -0 1.2800000000000011
1 0 -12.6 1 0 
1 5.2795954060117598 -20.404548707811369 -1 0 
1 -7.8071367880050046e-16 -12.600000000000001 1 2.2e-16 
2 -5.2804045939882407 -19.124548707811368 0 1 1 -0 1.2800000000000011
1 0 -12.6 1 0 
1 -6.5604045939882409 -19.124548707811368 0 1 
1 0 -12.599999999999998 1 0 
2 -3.5554045939882419 -11.060338668443114 0 1 1 -0 6.75
1 -4.4e-16 -20.300000000000004 1 0 
1 -10.305404593988555 -11.060338668443116 0 1 
1 -10.149999999999999 10.960000000000001 0 -1 
2 -3.5554045939882486 10.85966133155689 0 1 1 -0 6.7499999999999929
1 0 -20.300000000000004 1 0 
1 -7.558634315597283 16.294424601104698 0 1 
1 0 -12.599999999999998 1 0 
2 -6.3986343155972829 19.044424601104698 0 1 1 -0 1.1600000000000001
1 0 -12.6 1 0 
1 6.4113656844027176 20.204424601104698 -1 0 
1 -7.8071367880050046e-16 -12.600000000000001 1 2.2e-16 
2 6.4113656844027176 19.044424601104698 0 1 1 -0 1.1600000000000001
1 0 -12.6 1 0 
1 7.5713656844027177 16.2844246011047 0 1 
1 0 -12.600000000000001 1 0 
1 0 0 0 -1 
1 2.6802115938937816 -7.7000000000000028 0 -1 
1 2.0200000000000031 0 0 -1 
1 1.5707963267948974 0 0 -1 
1 0 -1.7763568394002505e-15 1 0 
1 6.5600000000001204 -17.004210039370214 0 -1 
1 3.1415926535897931 0 0 -1 
1 0 0 0 -1 
1 0 0 1 0 
2 5.2800000000001193 -19.024210039370217 0 1 1 -0 1.2800000000000011
1 10.56 -1.229513678800501e-15 0 -1 
1 3.1415926535897936 0 0 -1 
1 -8.8817841970012484e-16 -1.7763568394002505e-15 1 2.2e-16 
1 5.2800000000001193 -20.304210039370219 -1 0 
1 4.7123889803846888 0 0 -1 
1 0 0 0 -1 
1 0 0 1 0 
2 -5.2799999999998812 -19.024210039370217 0 1 1 -0 1.2800000000000011
1 2.0199999999999996 0 0 -1 
1 3.6029737132858037 -7.7000000000000028 0 -1 
1 0 1.7763568394002505e-15 1 0 
1 -6.5599999999998815 -19.024210039370217 0 1 
1 0 0 0 -1 
1 5.6483175181420249 -7.7000000000000028 0 -1 
1 2.75 0 0 -1 
1 4.7123889803846897 0 0 -1 
1 0 1.7763568394002505e-15 1 0 
1 -7.5582297216089236 16.394763269545848 0 1 
1 6.2831853071795862 0 0 -1 
1 12.81 -7.3451367880050101e-16 0 -1 
1 0 0 1 0 
2 -6.3982297216089234 19.144763269545848 0 1 1 -0 1.1600000000000001
1 0 0 0 -1 
1 2e-16 0 0 -1 
1 -8.8817841970012484e-16 -1.7763568394002505e-15 1 2.2e-16 
1 6.411770278391077 20.304763269545848 -1 0 
1 1.5707963267948952 0 0 -1 
1 2.759999999999998 0 0 -1 
1 0 0 1 0 
2 6.411770278391077 19.144763269545848 0 1 1 -0 1.1600000000000001
1 0 0 0 -1 
1 0.63736155333123135 -7.7000000000000028 0 -1 
1 0 -1.7763568394002505e-15 1 0 
1 7.5717702783910772 16.38476326954585 0 1 
2 3.5550000000001174 10.959999999998038 0 1 1 -0 6.75
1 0 -7.6999999999999993 1 0 
1 -3.5549999999998843 17.70999999999804 1 0 
1 5.2644604925031316e-16 -7.6999999999999993 1 -2.2e-16 
2 -3.5549999999998825 10.959999999998038 0 1 1 -0 6.75
1 0 -7.6999999999999993 1 0 
1 12.298745192118032 22.425000000000001 -1 0 
1 11.809999999999997 -20.800000000000004 -1 0 
1 -11.321254807881973 22.425000000000001 0 -1 
1 -20.800000000000008 -22.425000000000001 0 1 
1 -11.321254807881973 -22.425000000000001 1 0 
1 11.810000000000008 -20.800000000000004 -1 0 
1 12.298745192118032 -22.425000000000001 0 1 
1 20.800000000000008 22.425000000000001 0 -1 
1 8.2987451921180302 11 0 -1 
1 0 0 1 0 
2 3.9787451921180299 -11 0 -1 1 0 4.3200000000000003
1 0 0 1 0 
1 3.9787451921180299 -15.32 -1 0 
1 0 0 1 2.2e-16 
2 -3.0112548078819703 -11 0 -1 1 0 4.3200000000000003
1 0 0 1 0 
1 -7.3312548078819706 -11 0 1 
1 0 0 1 0 
1 -7.3312548078819706 -5.1599999999999993 -1 0 
1 0 0 1 2.2e-16 
1 -7.6112548078819708 -5.1599999999999993 -0.6858262751875055 -0.72776529201551798 
1 -0 0 1 1.4999999999999997e-16 
1 -9.0012548078819723 -6.6349999999999989 -1 0 
1 0 0 1 2.2e-16 
1 -9.8212548078819708 6.6350000000000007 0 -1 
1 0 0 1 0 
1 -9.0012548078819723 6.6350000000000007 -1 0 
1 0 0 1 2.2e-16 
1 -7.6112548078819708 5.160000000000001 -0.6858262751875055 0.72776529201551798 
1 0 0 1 1.4999999999999997e-16 
1 -7.3312548078819706 5.160000000000001 -1 0 
1 0 0 1 2.2e-16 
1 -7.3312548078819706 11 0 -1 
1 0 0 1 0 
2 -3.0112548078819703 11 0 -1 1 0 4.3200000000000003
1 0 0 1 0 
1 3.9787451921180299 15.32 -1 0 
1 0 0 1 2.2e-16 
2 3.9787451921180299 11 0 -1 1 0 4.3200000000000003
1 0 0 1 0 
1 0 0 0 -1 
1 1.5707963267948968 0 0 -1 
1 22 0 0 -1 
1 1.5707963267948966 0 0 -1 
1 0 -21.300000000000001 1 0 
1 8.2987451921180302 11 0 -1 
1 0 0 0 -1 
1 0 0 0 -1 
1 0 -21.300000000000001 1 0 
2 3.9787451921180299 -11 0 -1 1 0 4.3200000000000003
1 6.9900000000000002 1.5378000000000001e-15 0 -1 
1 6.2831853071795862 0 0 -1 
1 -1.9898130835068876e-16 -21.300000000000001 1 2.2e-16 
1 3.9787451921180299 -15.32 -1 0 
1 4.7123889803846897 0 0 -1 
1 0 0 0 -1 
1 0 -21.300000000000001 1 0 
2 -3.0112548078819703 -11 0 -1 1 0 4.3200000000000003
1 5.8399999999999999 0 0 -1 
1 0 0 0 -1 
1 0 -21.300000000000001 1 0 
1 -7.3312548078819706 -11 0 1 
1 0.28000000000000025 6.1600000000000054e-17 0 -1 
1 -0 0 -8.8178054125119966e-19 -1 
1 -6.4307051820075137e-16 -21.300000000000001 1 2.2e-16 
1 -7.3312548078819706 -5.1599999999999993 -1 0 
1 2.0267523282335218 3.0401284923502823e-16 -8.8178054125119966e-19 -1 
1 0 0 0 -1 
1 -4.5981658370917139e-16 -21.300000000000001 1 1.4999999999999997e-16 
1 -7.6112548078819708 -5.1599999999999993 -0.6858262751875055 -0.72776529201551798 
1 0.81999999999999851 1.8039999999999966e-16 0 -1 
1 13.27 0 0 -1 
1 -6.4307051820075137e-16 -21.300000000000001 1 2.2e-16 
1 -9.0012548078819723 -6.6349999999999989 -1 0 
1 -6.4307051820075137e-16 -21.300000000000001 1 2.2e-16 
1 -9.4900000000000357 -6.6349999999985654 -1 0 
1 0 0 0 -1 
1 0.81999999999999851 1.8039999999999966e-16 0 -1 
1 0 -21.300000000000001 1 0 
1 -10.310000000000034 6.6350000000014342 0 -1 
1 0 0 0 -1 
1 2.0267523282335218 3.0401284923502823e-16 -8.8178054125119966e-19 -1 
1 -6.4307051820075137e-16 -21.300000000000001 1 2.2e-16 
1 -9.0012548078819723 6.6350000000000007 -1 0 
1 -6.4307051820075137e-16 -21.300000000000001 1 2.2e-16 
1 -9.4900000000000357 6.6350000000014342 -1 0 
1 0 0 -8.8178054125119966e-19 -1 
1 0.28000000000000025 6.1600000000000054e-17 0 -1 
1 -4.5981658370917139e-16 -21.300000000000001 1 1.4999999999999997e-16 
1 -7.6112548078819708 5.160000000000001 -0.6858262751875055 0.72776529201551798 
1 0 0 0 -1 
1 5.8399999999999999 0 0 -1 
1 -6.4307051820075137e-16 -21.300000000000001 1 2.2e-16 
1 -7.3312548078819706 5.160000000000001 -1 0 
1 0 0 0 -1 
1 4.7123889803846897 0 0 -1 
1 0 -21.300000000000001 1 0 
1 -7.3312548078819706 11 0 -1 
1 3.1415926535897931 0 0 -1 
1 6.9900000000000002 1.5378000000000001e-15 0 -1 
1 0 -21.300000000000001 1 0 
2 -3.0112548078819703 11 0 -1 1 0 4.3200000000000003
1 0 0 0 -1 
1 3.1415926535897931 0 0 -1 
1 -1.9898130835068876e-16 -21.300000000000001 1 2.2e-16 
1 3.9787451921180299 15.32 -1 0 
1 0 -21.300000000000001 1 0 
2 3.9787451921180299 11 0 -1 1 0 4.3200000000000003
1 -9.8162548078821317 -10.960000000003401 0 1 
1 10.150000000000004 10.960000000000001 0 -1 
2 -3.0662548078818173 10.959999999996604 0 1 1 -0 6.75
1 0 1.421e-14 1 -2.26e-15 
1 -3.066254807881819 17.709999999996604 1 0 
1 0 0 1 -2.2e-16 
2 4.0437451921181822 10.959999999996604 0 1 1 -0 6.75
1 0 0 1 -2.26e-15 
1 10.79374519211818 10.959999999996604 0 -1 
1 -10.149999999999999 -10.960000000000001 0 1 
2 4.0437451921181822 -10.960000000003399 0 1 1 -0 6.75
1 0 -7.1100000000000008e-15 1 2.26e-15 
1 4.0437451921181822 -17.710000000003397 -1 0 
1 0 0 1 2.2e-16 
2 -3.0662548078818181 -10.960000000003399 0 1 1 -0 6.75
1 0 -7.1100000000000008e-15 1 2.26e-15 
1 -9.8162548078821317 -10.960000000003401 0 1 
1 10.150000000000004 10.960000000000001 0 -1 
1 -10.305000000000195 -10.960000000001967 0 1 
1 10.150000000000004 10.960000000000001 0 -1 
1 0 0 0 -1 
1 6.2831853071795862 0 0 -1 
1 7.1100000000000012 -1.5642000000000003e-15 0 -1 
1 0 0 0 -1 
1 -4.4408920985006262e-16 -9.7699626167013776e-32 0 -1 
1 3.1415926535897931 0 0 -1 
1 7.1099999999999994 1.5641999999999999e-15 0 -1 
1 3.1415926535897931 0 0 -1 
1 -5.2644604925031316e-16 -7.6999999999999993 1 2.2e-16 
1 3.5550000000001174 -17.710000000001962 -1 0 
2 -3.5549999999998829 -10.960000000001966 0 1 1 -0 6.75
1 0 -7.7000000000000117 1 3.8499999999999998e-15 
2 3.5550000000001174 -10.960000000001966 0 1 1 -0 6.75
1 -4.4e-16 -7.7000000000000117 1 3.8499999999999998e-15 
1 11.809999999999997 -20.800000000000004 2.2e-16 1 
1 20.800000000000008 -22.425000000000001 -1 0 
1 -11.81 8.2000000000000082 2.2e-16 1 
1 8.2000000000000046 -22.425000000000001 1 0 
1 8.2000000000000046 22.425000000000001 1 0 
1 11.81 8.2000000000000082 -2.2e-16 1 
1 -11.810000000000004 8.2000000000000046 -2.2e-16 1 
1 -8.2000000000000011 22.425000000000001 -1 0 
1 10.15 10.960000000000001 -1 0 
1 4.7123889803846897 0 0 -1 
1 2.4499999999999993 -10.960000000000001 -1 0 
1 4.7123889803846888 -7.7000000000000028 0 -1 
1 -10.150000000000002 -10.960000000000001 1 0 
1 1.5707963267948966 0 0 -1 
1 -2.4499999999999975 10.960000000000001 1 0 
1 1.5707963267948963 -7.7000000000000028 0 -1 
Curves 124
1 -22.425000000000001 11.810000000000013 0 1 0 0 
1 22.425000000000001 11.810000000000013 0 0 -1 0 
1 22.425000000000001 -11.809999999999992 0 -1 0 0 
1 -22.425000000000001 -11.809999999999992 0 0 1 0 
2 10.959999999996604 3.5550000000001623 0 0 0 1 1 0 -0 -0 1 0 6.75
1 10.959999999996604 10.305000000000161 0 -1 0 0 
2 -10.960000000003397 3.5550000000001631 0 0 0 1 1 0 -0 -0 1 0 6.75
1 -17.00421003937165 6.5600000000001648 0 -1 0 0 
2 -19.024210039371653 5.2800000000001637 0 0 0 1 1 0 -0 -0 1 0 1.28
1 -20.304210039371654 5.2800000000001637 0 0 -1 0 
2 -19.024210039371653 -5.2799999999998368 0 0 0 1 1 0 -0 -0 1 0 1.28
1 -19.024210039371653 -6.5599999999998371 0 1 0 0 
2 -10.960000000003399 -3.5549999999998376 0 0 0 1 1 0 -0 -0 1 0 6.75
1 -10.960000000003401 -10.305000000000151 0 1 0 0 
2 10.959999999996604 -3.5549999999998443 0 0 0 1 1 0 -0 -0 1 0 6.7499999999999938
1 16.394763269544413 -7.5582297216088792 0 1 0 0 
2 19.144763269544413 -6.398229721608879 0 0 0 1 1 0 -0 -0 1 0 1.1599999999999999
1 20.304763269544413 6.4117702783911215 0 0 -1 0 
2 19.144763269544413 6.4117702783911215 0 0 0 1 1 0 -0 -0 1 0 1.1599999999999999
1 16.384763269544415 7.5717702783911216 0 1 0 0 
1 -17.00421003937165 11.258999999999991 6.5600000000001613 0 -1 2.2e-16 
1 -19.024210039371653 11.258999999999991 6.5600000000001604 0 -1 2.2e-16 
1 -17.00421003937165 6.5600000000001648 0 -1 0 0 
1 -20.304210039371654 11.258999999999991 5.2800000000001601 0 -1 2.2e-16 
2 -19.024210039371653 5.2800000000001637 0 0 0 1 1 0 -0 -0 1 0 1.28
1 -20.304210039371654 11.258999999999988 -5.2799999999998404 0 -1 2.2e-16 
1 -20.304210039371654 5.2800000000001637 0 0 -1 0 
1 -19.024210039371653 11.258999999999988 -6.5599999999998406 0 -1 2.2e-16 
2 -19.024210039371653 -5.2799999999998368 0 0 0 1 1 0 -0 -0 1 0 1.28
1 -17.004210039371653 11.258999999999988 -6.5599999999998406 0 -1 2.2e-16 
1 -19.024210039371653 -6.5599999999998371 0 1 0 0 
1 16.394763269544413 11.258999999999988 -7.5582297216088827 0 -1 2.2e-16 
1 19.144763269544413 11.258999999999988 -7.5582297216088827 0 -1 2.2e-16 
1 16.394763269544413 -7.5582297216088792 0 1 0 0 
1 20.304763269544413 11.258999999999988 -6.3982297216088826 0 -1 2.2e-16 
2 19.144763269544413 -6.398229721608879 0 0 0 1 1 0 -0 -0 1 0 1.1599999999999999
1 20.304763269544413 11.258999999999991 6.4117702783911179 0 -1 2.2e-16 
1 20.304763269544413 6.4117702783911215 0 0 -1 0 
1 19.144763269544413 11.258999999999991 7.571770278391118 0 -1 2.2e-16 
2 19.144763269544413 6.4117702783911215 0 0 0 1 1 0 -0 -0 1 0 1.1599999999999999
1 16.384763269544415 11.258999999999991 7.571770278391118 0 -1 2.2e-16 
1 16.384763269544415 7.5717702783911216 0 1 0 0 
2 10.959999999996604 3.5550000000001569 0 0 0 1 1 0 -0 -0 1 0 6.75
1 17.709999999996604 -3.5549999999998447 0 0 1 0 
2 10.959999999996604 -3.554999999999843 0 0 0 1 1 0 -0 -0 1 0 6.75
1 -22.425000000000001 11.810000000000002 0 0 -1 0 
1 -22.425000000000001 -11.810000000000002 0 1 0 0 
1 22.425000000000001 -11.810000000000002 0 0 1 0 
1 22.425000000000001 11.810000000000002 0 -1 0 0 
1 -11 7.8099999999999996 0 1 0 0 
2 11 3.4899999999999993 0 0 0 1 1 0 -0 -0 1 0 4.3200000000000003
1 15.32 3.4899999999999993 0 0 -1 0 
2 11 -3.5000000000000009 0 0 0 1 1 0 -0 -0 1 0 4.3200000000000003
1 11 -7.8200000000000012 0 -1 0 0 
1 5.1600000000000001 -7.8200000000000012 0 0 -1 0 
1 5.1600000000000001 -8.1000000000000014 0 0.72776529201551798 -0.6858262751875055 0 
1 6.6349999999999998 -9.490000000000002 0 0 -1 0 
1 -6.6349999999999998 -10.31 0 1 0 0 
1 -6.6349999999999998 -9.490000000000002 0 0 -1 0 
1 -5.1600000000000001 -8.1000000000000014 0 -0.72776529201551798 -0.6858262751875055 0 
1 -5.1600000000000001 -7.8200000000000012 0 0 -1 0 
1 -11 -7.8200000000000012 0 1 0 0 
2 -11 -3.5000000000000009 0 0 0 1 1 0 -0 -0 1 0 4.3200000000000003
1 -15.32 3.4899999999999993 0 0 -1 0 
2 -11 3.4899999999999993 0 0 0 1 1 0 -0 -0 1 0 4.3200000000000003
1 11 40.259 7.8099999999999996 0 -1 2.2e-16 
1 -11 40.259 7.8099999999999996 0 -1 2.2e-16 
1 -11 7.8099999999999996 0 1 0 0 
1 -15.32 40.259 3.4899999999999993 0 -1 2.2e-16 
2 11 3.4899999999999993 0 0 0 1 1 0 -0 -0 1 0 4.3200000000000003
1 -15.32 40.259 -3.5000000000000013 0 -1 2.2e-16 
1 15.32 3.4899999999999993 0 0 -1 0 
1 -11 40.259 -7.8200000000000012 0 -1 2.2e-16 
2 11 -3.5000000000000009 0 0 0 1 1 0 -0 -0 1 0 4.3200000000000003
1 -5.1600000000000001 40.259 -7.8200000000000012 0 -1 2.2e-16 
1 11 -7.8200000000000012 0 -1 0 0 
1 -5.1600000000000001 40.259 -8.1000000000000014 0 -1 2.2e-16 
1 5.1600000000000001 -7.8200000000000012 0 0 -1 0 
1 -6.6349999999999998 40.259 -9.490000000000002 0 -1 2.2e-16 
1 5.1600000000000001 -8.1000000000000014 0 0.72776529201551798 -0.6858262751875055 0 
1 -6.6349999999999998 40.259 -10.31 0 -1 2.2e-16 
1 6.6349999999999998 -9.490000000000002 0 0 -1 0 
1 6.6349999999999998 -9.490000000000002 0 0 -1 0 
1 6.6349999999999998 40.259 -10.31 0 -1 2.2e-16 
1 -6.6349999999999998 -10.31 0 1 0 0 
1 6.6349999999999998 40.259 -9.490000000000002 0 -1 2.2e-16 
1 -6.6349999999999998 -9.490000000000002 0 0 -1 0 
1 -6.6349999999999998 -9.490000000000002 0 0 -1 0 
1 5.1600000000000001 40.259 -8.1000000000000014 0 -1 2.2e-16 
1 -5.1600000000000001 -8.1000000000000014 0 -0.72776529201551798 -0.6858262751875055 0 
1 5.1600000000000001 40.259 -7.8200000000000012 0 -1 2.2e-16 
1 -5.1600000000000001 -7.8200000000000012 0 0 -1 0 
1 11 40.259 -7.8200000000000012 0 -1 2.2e-16 
1 -11 -7.8200000000000012 0 1 0 0 
1 15.32 40.259 -3.5000000000000009 0 -1 2.2e-16 
2 -11 -3.5000000000000009 0 0 0 1 1 0 -0 -0 1 0 4.3200000000000003
1 15.32 40.259 3.4899999999999993 0 -1 2.2e-16 
1 -15.32 3.4899999999999993 0 0 -1 0 
2 -11 3.4899999999999993 0 0 0 1 1 0 -0 -0 1 0 4.3200000000000003
1 -10.960000000003401 -10.305000000000156 0 1 0 0 
2 10.959999999996604 -3.554999999999843 0 0 0 1 1 0 -0 -0 1 0 6.75
1 17.709999999996604 -3.5549999999998447 0 0 1 0 
2 10.959999999996604 3.5550000000001569 0 0 0 1 1 0 -0 -0 1 0 6.75
1 10.959999999996604 10.305000000000156 0 -1 0 0 
2 -10.960000000003399 3.5550000000001569 0 0 0 1 1 0 -0 -0 1 0 6.75
1 -17.710000000003397 3.5550000000001569 0 0 -1 0 
2 -10.960000000003399 -3.5549999999998434 0 0 0 1 1 0 -0 -0 1 0 6.75
1 -10.960000000003401 -10.305000000000156 0 1 0 0 
1 -10.960000000003401 -10.305000000000156 0 1 0 0 
1 17.709999999996604 18.958999999999993 -3.5549999999998447 0 -1 2.2e-16 
1 17.709999999996604 18.958999999999993 3.5550000000001569 0 -1 2.2e-16 
1 -17.710000000003397 18.958999999999993 3.5550000000001574 0 -1 2.2e-16 
1 -17.710000000003397 18.958999999999993 -3.554999999999843 0 -1 2.2e-16 
1 -17.710000000003397 3.5550000000001569 0 0 -1 0 
2 -10.960000000003399 -3.5549999999998434 0 0 0 1 1 0 -0 -0 1 0 6.75
2 -10.960000000003399 3.5550000000001569 0 0 0 1 1 0 -0 -0 1 0 6.75
1 22.425000000000001 40.259 11.810000000000002 0 -1 2.2e-16 
1 22.425000000000001 11.258999999999988 -11.809999999999995 0 -1 2.2e-16 
1 -22.425000000000001 11.258999999999988 -11.809999999999995 0 -1 2.2e-16 
1 -22.425000000000001 11.258999999999991 11.810000000000009 0 -1 2.2e-16 
1 -10.960000000003401 18.958999999999989 -10.305 0 -1 2.2e-16 
1 10.959999999996601 11.258999999999988 -10.304999999999998 0 -1 2.2e-16 
1 10.959999999996604 18.958999999999996 10.305000000000156 0 -1 2.2e-16 
1 -10.960000000003397 11.258999999999991 10.30500000000016 0 -1 2.2e-16 
Polygon3D 0
PolygonOnTriangulations 0
Surfaces 44
1 0.10033866843971433 11.25899999999999 0.00040459398840126 0 1 0 0 -0 1 1 0 -0 
1 -6.5999999999999998e-16 19.458999999999993 11.810000000000004 0 2.5000000000000002e-16 1 0 1 -2.5000000000000002e-16 -1 0 0 
1 22.425000000000001 19.458999999999996 5.4499999999999998e-15 1 0 0 0 0 1 0 -1 0 
1 6.5999999999999998e-16 19.458999999999993 -11.809999999999995 -0 -2.5000000000000002e-16 -1 0 -1 2.5000000000000002e-16 -1 0 0 
1 -22.425000000000001 19.458999999999996 5.2300000000000002e-15 -1 -0 -0 0 0 -1 0 -1 0 
2 10.959999999996604 18.958999999999993 3.5550000000001569 0 1 -2.2e-16 1 0 0 -0 2.2e-16 1 6.75
1 -3.3968699999999998e-12 8.8089999999999939 10.30500000000016 -0 -2.8999999999999998e-16 -1 0 -1 2.8999999999999998e-16 -1 0 0 
2 -10.960000000003399 18.958999999999993 3.5550000000001569 0 1 -2.2e-16 1 0 0 -0 2.2e-16 1 6.75
1 -17.00421003937165 11.258999999999991 6.5600000000001613 -0 -2.2e-16 -1 -1 0 0 0 1 -2.2e-16 
2 -19.024210039371653 11.258999999999991 5.2800000000001601 0 1 -2.2e-16 1 0 0 -0 2.2e-16 1 1.28
1 -20.304210039371654 11.258999999999991 5.2800000000001601 1 0 0 0 -2.2e-16 -1 0 1 -2.2e-16 
2 -19.024210039371653 11.258999999999988 -5.2799999999998404 0 1 -2.2e-16 1 0 0 -0 2.2e-16 1 1.28
1 -19.024210039371653 11.258999999999988 -6.5599999999998406 0 2.2e-16 1 1 0 -0 -0 1 -2.2e-16 
2 -10.960000000003399 18.958999999999993 -3.5549999999998434 0 1 -2.2e-16 1 0 0 -0 2.2e-16 1 6.75
1 -3.3997799999999999e-12 8.8089999999999886 -10.305000000000078 0 2.5999999999999998e-16 1 0 1 -2.5999999999999998e-16 -1 0 0 
2 10.959999999996604 18.958999999999993 -3.554999999999843 0 1 -2.2e-16 1 0 0 -0 2.2e-16 1 6.75
1 16.394763269544413 11.258999999999988 -7.5582297216088827 0 2.2e-16 1 1 0 -0 -0 1 -2.2e-16 
2 19.144763269544413 11.258999999999988 -6.3982297216088826 0 1 -2.2e-16 1 0 0 -0 2.2e-16 1 1.1599999999999999
1 20.304763269544413 11.258999999999991 6.4117702783911179 1 0 0 0 -2.2e-16 -1 0 1 -2.2e-16 
2 19.144763269544413 11.258999999999991 6.4117702783911179 0 1 -2.2e-16 1 0 0 -0 2.2e-16 1 1.1599999999999999
1 16.384763269544415 11.258999999999991 7.571770278391118 0 2.2e-16 1 1 0 -0 -0 1 -2.2e-16 
1 -1.43423e-12 18.958999999999989 3.9349999999999998e-14 0 1 -2.9999999999999999e-16 0 2.9999999999999999e-16 1 1 -0 0 
1 -1.43423e-12 18.958999999999989 3.9349999999999998e-14 0 1 -2.9999999999999999e-16 0 2.9999999999999999e-16 1 1 -0 0 
1 17.709999999996604 18.958999999999993 -3.5549999999998447 -1 0 0 0 2.2e-16 1 0 1 -2.2e-16 
1 -4.8999999999999997e-16 40.258999999999993 -0.48874519211803036 0 1 0 0 -0 1 1 0 -0 
1 11 40.259 7.8099999999999996 -0 -2.2e-16 -1 -1 0 0 0 1 -2.2e-16 
2 -11 40.259 3.4899999999999993 0 1 -2.2e-16 -1 0 0 0 2.2e-16 1 4.3200000000000003
1 -15.32 40.259 3.4899999999999993 1 0 0 0 -2.2e-16 -1 0 1 -2.2e-16 
2 -11 40.259 -3.5000000000000009 0 1 -2.2e-16 -1 0 0 0 2.2e-16 1 4.3200000000000003
1 -11 40.259 -7.8200000000000012 0 2.2e-16 1 1 0 -0 -0 1 -2.2e-16 
1 -5.1600000000000001 40.259 -7.8200000000000012 1 0 0 0 -2.2e-16 -1 0 1 -2.2e-16 
1 -5.1600000000000001 40.259 -8.1000000000000014 0.6858262751875055 -1.6000000000000001e-16 -0.72776529201551798 -0.72776529201551798 -1.5e-16 -0.6858262751875055 5.6741022767319534e-19 1 -2.1931638800060866e-16 
1 -6.6349999999999998 40.259 -9.490000000000002 1 0 0 0 -2.2e-16 -1 0 1 -2.2e-16 
1 6.6349999999999998 40.259 -10.31 -0 -2.2e-16 -1 -1 0 0 0 1 -2.2e-16 
1 6.6349999999999998 40.259 -9.490000000000002 1 0 0 0 -2.2e-16 -1 0 1 -2.2e-16 
1 5.1600000000000001 40.259 -8.1000000000000014 0.6858262751875055 1.6000000000000001e-16 0.72776529201551798 0.72776529201551798 -1.5e-16 -0.6858262751875055 -5.6741022767319534e-19 1 -2.1931638800060866e-16 
1 5.1600000000000001 40.259 -7.8200000000000012 1 0 0 0 -2.2e-16 -1 0 1 -2.2e-16 
1 11 40.259 -7.8200000000000012 -0 -2.2e-16 -1 -1 0 0 0 1 -2.2e-16 
2 11 40.259 -3.5000000000000009 0 1 -2.2e-16 -1 0 0 0 2.2e-16 1 4.3200000000000003
1 15.32 40.259 3.4899999999999993 1 0 0 0 -2.2e-16 -1 0 1 -2.2e-16 
2 11 40.259 3.4899999999999993 0 1 -2.2e-16 -1 0 0 0 2.2e-16 1 4.3200000000000003
1 -4.8999999999999997e-16 40.258999999999993 -0.48874519211803036 0 1 0 0 -0 1 1 0 -0 
1 -1.43423e-12 18.958999999999989 3.9349999999999998e-14 0 1 -2.9999999999999999e-16 0 2.9999999999999999e-16 1 1 -0 0 
1 -17.710000000003397 18.958999999999993 3.5550000000001569 1 0 0 0 -2.2e-16 -1 0 1 -2.2e-16 
Triangulations 0

TShapes 299
Ve
1e-07
-22.425 -1.34100000000001 11.81
0 0

0101101
*
Ve
1e-07
22.425 -1.34100000000001 11.81
0 0

0101101
*
Ed
 1e-07 1 1 0
1  1 0 0 44.85
2  1 1 10 0 44.85
2  2 2 11 0 44.85
0

0101000
+299 12 -298 12 *
Ve
1e-07
22.425 -1.34100000000001 -11.81
0 0

0101101
*
Ed
 1e-07 1 1 0
1  2 0 0 23.62
2  3 1 10 0 23.62
2  4 3 11 0 23.62
0

0101000
+298 12 -296 12 *
Ve
1e-07
-22.425 -1.34100000000001 -11.81
0 0

0101101
*
Ed
 1e-07 1 1 0
1  3 0 0 44.85
2  5 1 10 0 44.85
2  6 4 11 0 44.85
0

0101000
+296 12 -294 12 *
Ed
 1e-07 1 1 0
1  4 0 0 23.62
2  7 1 10 0 23.62
2  8 5 11 0 23.62
0

0101000
+294 12 -299 12 *
Wi

0101100
+297 0 +295 0 +293 0 +292 0 *
Ve
1.00000002e-07
16.3847632695444 -1.34100000000001 7.57177027839112
0 0

0101101
*
Ve
1.00000004e-07
10.9599999999966 -1.34100000000001 10.3050000000002
0 0

0101101
*
Ed
 1e-07 1 1 0
1  5 0 0.637361553331232 1.5707963267949
2  9 1 10 0.637361553331232 1.5707963267949
2  10 6 11 0.637361553331232 1.5707963267949
0

0101000
+290 12 -289 12 *
Ve
1.00000004e-07
-10.9600000000034 -1.34100000000001 10.3050000000002
0 0

0101101
*
Ed
 1.00000004e-07 1 1 0
1  6 0 0 21.92
2  11 1 10 0 21.92
2  12 7 11 0 21.92
0

0101000
+289 12 -287 12 *
Ve
1e-07
-17.0042100393716 -1.34100000000001 6.56000000000016
0 0

0101101
*
Ed
 1e-07 1 1 0
1  7 0 1.5707963267949 2.68021159389378
2  13 1 10 1.5707963267949 2.68021159389378
2  14 8 11 1.5707963267949 2.68021159389378
0

0101000
+287 12 -285 12 *
Ve
1e-07
-19.0242100393717 -1.34100000000001 6.56000000000016
0 0

0101101
*
Ed
 1e-07 1 1 0
1  8 0 0 2.02
2  15 1 10 0 2.02
2  16 9 11 0 2.02
0

0101000
+285 12 -283 12 *
Ve
1e-07
-20.3042100393717 -1.34100000000001 5.28000000000016
0 0

0101101
*
Ed
 1e-07 1 1 0
1  9 0 1.5707963267949 3.14159265358979
2  17 1 10 1.5707963267949 3.14159265358979
2  18 10 11 1.5707963267949 3.14159265358979
0

0101000
+283 12 -281 12 *
Ve
1e-07
-20.3042100393717 -1.34100000000001 -5.27999999999984
0 0

0101101
*
Ed
 1e-07 1 1 0
1  10 0 0 10.56
2  19 1 10 0 10.56
2  20 11 11 0 10.56
0

0101000
+281 12 -279 12 *
Ve
1e-07
-19.0242100393717 -1.34100000000001 -6.55999999999984
0 0

0101101
*
Ed
 1e-07 1 1 0
1  11 0 3.14159265358979 4.71238898038469
2  21 1 10 3.14159265358979 4.71238898038469
2  22 12 11 3.14159265358979 4.71238898038469
0

0101000
+279 12 -277 12 *
Ve
1e-07
-17.0042100393717 -1.34100000000001 -6.55999999999984
0 0

0101101
*
Ed
 1e-07 1 1 0
1  12 0 0 2.02
2  23 1 10 0 2.02
2  24 13 11 0 2.02
0

0101000
+277 12 -275 12 *
Ve
1.00000156e-07
-10.9600000000034 -1.34100000000001 -10.305
0 0

0101101
*
Ed
 1e-07 1 1 0
1  13 0 3.6029737132858 4.71238898038469
2  25 1 10 3.6029737132858 4.71238898038469
2  26 14 11 3.6029737132858 4.71238898038469
0

0101000
+275 12 -273 12 *
Ve
1.00000156e-07
10.9599999999966 -1.34100000000001 -10.305
0 0

0101101
*
Ed
 1.00000156e-07 1 1 0
1  14 0 0 21.92
2  27 1 10 0 21.92
2  28 15 11 0 21.92
0

0101000
+273 12 -271 12 *
Ve
1e-07
16.3947632695444 -1.34100000000001 -7.55822972160888
0 0

0101101
*
Ed
 1e-07 1 1 0
1  15 0 4.71238898038469 5.64831751814203
2  29 1 10 4.71238898038469 5.64831751814203
2  30 16 11 4.71238898038469 5.64831751814203
0

0101000
+271 12 -269 12 *
Ve
1e-07
19.1447632695444 -1.34100000000001 -7.55822972160888
0 0

0101101
*
Ed
 1e-07 1 1 0
1  16 0 0 2.75
2  31 1 10 0 2.75
2  32 17 11 0 2.75
0

0101000
+269 12 -267 12 *
Ve
1e-07
20.3047632695444 -1.34100000000001 -6.39822972160888
0 0

0101101
*
Ed
 1e-07 1 1 0
1  17 0 4.71238898038469 6.28318530717959
2  33 1 10 4.71238898038469 6.28318530717959
2  34 18 11 4.71238898038469 6.28318530717959
0

0101000
+267 12 -265 12 *
Ve
1e-07
20.3047632695444 -1.34100000000001 6.41177027839112
0 0

0101101
*
Ed
 1e-07 1 1 0
1  18 0 0 12.81
2  35 1 10 0 12.81
2  36 19 11 0 12.81
0

0101000
+263 12 -265 12 *
Ve
1e-07
19.1447632695444 -1.34100000000001 7.57177027839112
0 0

0101101
*
Ed
 1e-07 1 1 0
1  19 0 0 1.5707963267949
2  37 1 10 0 1.5707963267949
2  38 20 11 0 1.5707963267949
0

0101000
+263 12 -261 12 *
Ed
 1e-07 1 1 0
1  20 0 0 2.76
2  39 1 10 0 2.76
2  40 21 11 0 2.76
0

0101000
+290 12 -261 12 *
Wi

0101100
+288 0 +286 0 +284 0 +282 0 +280 0 +278 0 +276 0 +274 0 +272 0 +270 0 
+268 0 +266 0 +264 0 -262 0 +260 0 -259 0 *
Fa
0  1e-07 1 0

0101000
+291 9 +258 9 *
Ve
1.00000005e-07
-17.0042100393716 11.259 6.56000000000016
0 0

0101101
*
Ed
 1e-07 1 1 0
1  21 0 0 12.6
2  41 9 0 0 12.6
2  42 8 0 0 12.6
0

0101000
+256 13 -285 13 *
Ve
1e-07
-19.0242100393717 11.259 6.56000000000016
0 0

0101101
*
Ed
 1e-07 1 1 0
1  22 0 0 12.6
2  43 9 0 0 12.6
2  44 10 0 0 12.6
4 G1 9 0 10 0
0

0101000
+254 13 -283 13 *
Ed
 1e-07 1 1 0
1  23 0 0 2.02
2  45 9 15 0 2.02
2  46 22 19 0 2.02
0

0101000
+256 20 -254 20 *
Wi

0101100
+255 0 -253 0 -252 14 +282 21 *
Fa
0  1e-07 9 0

0101000
+251 0 *
Ve
1.00000002e-07
-20.3042100393717 11.259 5.28000000000016
0 0

0101101
*
Ed
 1e-07 1 1 0
1  24 0 0 12.6
2  47 10 0 0 12.6
2  48 11 0 0 12.6
4 G1 10 0 11 0
0

0101000
+249 13 -281 13 *
Ed
 1e-07 1 1 0
1  25 0 1.5707963267949 3.14159265358979
2  49 10 15 1.5707963267949 3.14159265358979
2  50 22 19 1.5707963267949 3.14159265358979
0

0101000
+254 20 -249 20 *
Wi

0101100
+253 0 -248 0 -247 14 +280 21 *
Fa
0  1e-07 10 0

0101000
+246 0 *
Ve
1.00000002e-07
-20.3042100393717 11.259 -5.27999999999984
0 0

0101101
*
Ed
 1e-07 1 1 0
1  26 0 0 12.6
2  51 11 0 0 12.6
2  52 12 0 0 12.6
4 G1 11 0 12 0
0

0101000
+244 13 -279 13 *
Ed
 1.00000002e-07 1 1 0
1  27 0 0 10.56
2  53 11 15 0 10.56
2  54 22 19 0 10.56
0

0101000
+249 20 -244 20 *
Wi

0101100
+248 0 -243 0 -242 14 +278 21 *
Fa
0  1e-07 11 0

0101000
+241 0 *
Ve
1e-07
-19.0242100393717 11.259 -6.55999999999984
0 0

0101101
*
Ed
 1e-07 1 1 0
1  28 0 0 12.6
2  55 12 0 0 12.6
2  56 13 0 0 12.6
4 G1 12 0 13 0
0

0101000
+239 13 -277 13 *
Ed
 1e-07 1 1 0
1  29 0 3.14159265358979 4.71238898038469
2  57 12 15 3.14159265358979 4.71238898038469
2  58 22 19 3.14159265358979 4.71238898038469
0

0101000
+244 20 -239 20 *
Wi

0101100
+243 0 -238 0 -237 14 +276 21 *
Fa
0  1e-07 12 0

0101000
+236 0 *
Ve
1.00000007e-07
-17.0042100393717 11.259 -6.55999999999984
0 0

0101101
*
Ed
 1e-07 1 1 0
1  30 0 0 12.6
2  59 13 0 0 12.6
2  60 14 0 0 12.6
0

0101000
+234 13 -275 13 *
Ed
 1e-07 1 1 0
1  31 0 0 2.02
2  61 13 15 0 2.02
2  62 22 19 0 2.02
0

0101000
+239 20 -234 20 *
Wi

0101100
+238 0 -233 0 -232 14 +274 21 *
Fa
0  1e-07 13 0

0101000
+231 0 *
Ve
1.00000007e-07
16.3947632695444 11.259 -7.55822972160888
0 0

0101101
*
Ed
 1e-07 1 1 0
1  32 0 0 12.6
2  63 17 0 0 12.6
2  64 16 0 0 12.6
0

0101000
+229 13 -269 13 *
Ve
1e-07
19.1447632695444 11.259 -7.55822972160888
0 0

0101101
*
Ed
 1e-07 1 1 0
1  33 0 0 12.6
2  65 17 0 0 12.6
2  66 18 0 0 12.6
4 G1 17 0 18 0
0

0101000
+227 13 -267 13 *
Ed
 1e-07 1 1 0
1  34 0 0 2.75
2  67 17 15 0 2.75
2  68 23 19 0 2.75
0

0101000
+229 20 -227 20 *
Wi

0101100
+228 0 -226 0 -225 14 +266 21 *
Fa
0  1e-07 17 0

0101000
+224 0 *
Ve
1.00000002e-07
20.3047632695444 11.259 -6.39822972160888
0 0

0101101
*
Ed
 1e-07 1 1 0
1  35 0 0 12.6
2  69 18 0 0 12.6
2  70 19 0 0 12.6
4 G1 18 0 19 0
0

0101000
+222 13 -265 13 *
Ed
 1e-07 1 1 0
1  36 0 4.71238898038469 6.28318530717959
2  71 18 15 4.71238898038469 6.28318530717959
2  72 23 19 4.71238898038469 6.28318530717959
0

0101000
+227 20 -222 20 *
Wi

0101100
+226 0 -221 0 -220 14 +264 21 *
Fa
0  1e-07 18 0

0101000
+219 0 *
Ve
1.00000002e-07
20.3047632695444 11.259 6.41177027839112
0 0

0101101
*
Ed
 1e-07 1 1 0
1  37 0 0 12.6
2  73 19 0 0 12.6
2  74 20 0 0 12.6
4 G1 19 0 20 0
0

0101000
+217 13 -263 13 *
Ed
 1.00000002e-07 1 1 0
1  38 0 0 12.81
2  75 19 15 0 12.81
2  76 23 19 0 12.81
0

0101000
+217 20 -222 20 *
Wi

0101100
+216 0 -221 0 -215 14 +262 21 *
Fa
0  1e-07 19 0

0101000
+214 0 *
Ve
1e-07
19.1447632695444 11.259 7.57177027839112
0 0

0101101
*
Ed
 1e-07 1 1 0
1  39 0 0 12.6
2  77 20 0 0 12.6
2  78 21 0 0 12.6
4 G1 20 0 21 0
0

0101000
+212 13 -261 13 *
Ed
 1e-07 1 1 0
1  40 0 0 1.5707963267949
2  79 20 15 0 1.5707963267949
2  80 23 19 0 1.5707963267949
0

0101000
+217 20 -212 20 *
Wi

0101100
+216 0 -211 0 -210 14 +260 21 *
Fa
0  1e-07 20 0

0101000
+209 0 *
Ve
1.00000004e-07
16.3847632695444 11.259 7.57177027839112
0 0

0101101
*
Ed
 1.00000002e-07 1 1 0
1  41 0 0 12.6
2  81 21 0 0 12.6
2  82 6 0 0 12.6
0

0101000
+207 13 -290 13 *
Ed
 1e-07 1 1 0
1  42 0 0 2.76
2  83 21 15 0 2.76
2  84 23 19 0 2.76
0

0101000
+207 20 -212 20 *
Wi

0101100
+206 0 -211 0 -205 14 +259 21 *
Fa
0  1e-07 21 0

0101000
+204 0 *
Ve
1e-07
17.7099999999966 11.259 3.55500000000016
0 0

0101101
*
Ed
 1e-07 1 1 0
1  43 0 0 0.637361553331231
2  85 23 26 0 0.637361553331231
2  86 6 27 0 0.637361553331231
0

0101000
+202 28 -207 28 *
Ve
1e-07
17.7099999999966 11.259 -3.55499999999984
0 0

0101101
*
Ed
 1e-07 1 1 0
1  44 0 0 7.11
2  87 23 26 0 7.11
2  88 24 29 0 7.11
0

0101000
+200 28 -202 28 *
Ed
 1e-07 1 1 0
1  45 0 5.64831751814202 6.28318530717959
2  89 23 26 5.64831751814202 6.28318530717959
2  90 16 27 5.64831751814202 6.28318530717959
0

0101000
+229 28 -200 28 *
Wi

0101100
-225 14 -220 14 +215 14 -210 14 +205 14 +201 25 +199 25 +198 25 *
Fa
0  1e-07 23 22

0101000
+197 0 *
Ve
1e-07
22.425 40.259 11.81
0 0

0101101
*
Ve
1e-07
22.425 40.259 -11.81
0 0

0101101
*
Ed
 1e-07 1 1 0
1  46 0 0 23.62
2  91 25 36 0 23.62
2  92 3 37 0 23.62
0

0101000
+195 38 -194 38 *
Ve
1e-07
-22.425 40.259 -11.81
0 0

0101101
*
Ed
 1e-07 1 1 0
1  47 0 0 44.85
2  93 25 36 0 44.85
2  94 4 37 0 44.85
0

0101000
+194 38 -192 38 *
Ve
1e-07
-22.425 40.259 11.81
0 0

0101101
*
Ed
 1e-07 1 1 0
1  48 0 0 23.62
2  95 25 36 0 23.62
2  96 5 37 0 23.62
0

0101000
+192 38 -190 38 *
Ed
 1e-07 1 1 0
1  49 0 0 44.85
2  97 25 36 0 44.85
2  98 2 37 0 44.85
0

0101000
+190 38 -195 38 *
Wi

0101100
+193 0 +191 0 +189 0 +188 0 *
Ve
1e-07
11 40.259 7.81
0 0

0101101
*
Ve
1e-07
-11 40.259 7.81
0 0

0101101
*
Ed
 1e-07 1 1 0
1  50 0 0 22
2  99 25 36 0 22
2  100 26 39 0 22
0

0101000
+186 38 -185 38 *
Ve
1e-07
-15.32 40.259 3.49
0 0

0101101
*
Ed
 1e-07 1 1 0
1  51 0 0 1.5707963267949
2  101 25 36 0 1.5707963267949
2  102 27 39 0 1.5707963267949
0

0101000
+183 38 -185 38 *
Ve
1e-07
-15.32 40.259 -3.5
0 0

0101101
*
Ed
 1e-07 1 1 0
1  52 0 0 6.99
2  103 25 36 0 6.99
2  104 28 39 0 6.99
0

0101000
+183 38 -181 38 *
Ve
1e-07
-11 40.259 -7.82
0 0

0101101
*
Ed
 1e-07 1 1 0
1  53 0 4.71238898038469 6.28318530717959
2  105 25 36 4.71238898038469 6.28318530717959
2  106 29 39 4.71238898038469 6.28318530717959
0

0101000
+179 38 -181 38 *
Ve
1e-07
-5.16 40.259 -7.82
0 0

0101101
*
Ed
 1e-07 1 1 0
1  54 0 0 5.84
2  107 25 36 0 5.84
2  108 30 39 0 5.84
0

0101000
+179 38 -177 38 *
Ve
1e-07
-5.16 40.259 -8.1
0 0

0101101
*
Ed
 1e-07 1 1 0
1  55 0 0 0.28
2  109 25 36 0 0.28
2  110 31 39 0 0.28
0

0101000
+177 38 -175 38 *
Ve
1e-07
-6.635 40.259 -9.49
0 0

0101101
*
Ed
 1e-07 1 1 0
1  56 0 0 2.02675232823352
2  111 25 36 0 2.02675232823352
2  112 32 39 0 2.02675232823352
0

0101000
+175 38 -173 38 *
Ve
1e-07
-6.635 40.259 -10.31
0 0

0101101
*
Ed
 1e-07 1 1 0
1  57 0 0 0.819999999999999
2  113 25 36 0 0.819999999999999
2  114 33 39 0 0.819999999999999
0

0101000
+173 38 -171 38 *
Ve
1e-07
6.635 40.259 -10.31
0 0

0101101
*
Ed
 1e-07 1 1 0
1  58 0 0 13.27
2  115 25 36 0 13.27
2  116 34 39 0 13.27
0

0101000
+169 38 -171 38 *
Ve
1e-07
6.635 40.259 -9.49
0 0

0101101
*
Ed
 1e-07 1 1 0
1  59 0 0 0.819999999999999
2  117 25 36 0 0.819999999999999
2  118 35 39 0 0.819999999999999
0

0101000
+167 38 -169 38 *
Ve
1e-07
5.16 40.259 -8.1
0 0

0101101
*
Ed
 1e-07 1 1 0
1  60 0 0 2.02675232823352
2  119 25 36 0 2.02675232823352
2  120 36 39 0 2.02675232823352
0

0101000
+165 38 -167 38 *
Ve
1e-07
5.16 40.259 -7.82
0 0

0101101
*
Ed
 1e-07 1 1 0
1  61 0 0 0.28
2  121 25 36 0 0.28
2  122 37 39 0 0.28
0

0101000
+163 38 -165 38 *
Ve
1e-07
11 40.259 -7.82
0 0

0101101
*
Ed
 1e-07 1 1 0
1  62 0 0 5.84
2  123 25 36 0 5.84
2  124 38 39 0 5.84
0

0101000
+161 38 -163 38 *
Ve
1e-07
15.32 40.259 -3.5
0 0

0101101
*
Ed
 1e-07 1 1 0
1  63 0 3.14159265358979 4.71238898038469
2  125 25 36 3.14159265358979 4.71238898038469
2  126 39 39 3.14159265358979 4.71238898038469
0

0101000
+159 38 -161 38 *
Ve
1e-07
15.32 40.259 3.49
0 0

0101101
*
Ed
 1e-07 1 1 0
1  64 0 0 6.99
2  127 25 36 0 6.99
2  128 40 39 0 6.99
0

0101000
+157 38 -159 38 *
Ed
 1e-07 1 1 0
1  65 0 1.5707963267949 3.14159265358979
2  129 25 36 1.5707963267949 3.14159265358979
2  130 41 39 1.5707963267949 3.14159265358979
0

0101000
+186 38 -157 38 *
Wi

0101100
+184 0 -182 0 +180 0 -178 0 +176 0 +174 0 +172 0 +170 0 -168 0 -166 0 
-164 0 -162 0 -160 0 -158 0 -156 0 -155 0 *
Fa
0  1e-07 25 0

0101000
+187 35 +154 35 *
Ve
1e-07
11 18.959 7.81
0 0

0101101
*
Ed
 1e-07 1 1 0
1  66 0 0 21.3
2  131 26 0 0 21.3
2  132 41 0 0 21.3
4 G1 26 0 41 0
0

0101000
+186 41 -152 41 *
Ve
1e-07
-11 18.959 7.81
0 0

0101101
*
Ed
 1e-07 1 1 0
1  67 0 0 21.3
2  133 26 0 0 21.3
2  134 27 0 0 21.3
4 G1 26 0 27 0
0

0101000
+185 41 -150 41 *
Ed
 1e-07 1 1 0
1  68 0 0 22
2  135 26 45 0 22
2  136 42 36 0 22
0

0101000
+152 46 -150 46 *
Wi

0101100
+151 0 -149 0 -184 42 +148 44 *
Fa
0  1e-07 26 0

0101000
+147 0 *
Ve
1e-07
-15.32 18.959 3.49
0 0

0101101
*
Ed
 1e-07 1 1 0
1  69 0 0 21.3
2  137 27 0 0 21.3
2  138 28 0 0 21.3
4 G1 27 0 28 0
0

0101000
+183 41 -145 41 *
Ed
 1e-07 1 1 0
1  70 0 0 1.5707963267949
2  139 27 45 0 1.5707963267949
2  140 42 36 0 1.5707963267949
0

0101000
+145 46 -150 46 *
Wi

0101100
+144 0 -149 0 -182 42 +143 44 *
Fa
0  1e-07 27 0

0101000
+142 0 *
Ve
1e-07
-15.32 18.959 -3.5
0 0

0101101
*
Ed
 1e-07 1 1 0
1  71 0 0 21.3
2  141 28 0 0 21.3
2  142 29 0 0 21.3
4 G1 28 0 29 0
0

0101000
+181 41 -140 41 *
Ed
 1e-07 1 1 0
1  72 0 0 6.99
2  143 28 45 0 6.99
2  144 42 36 0 6.99
0

0101000
+145 46 -140 46 *
Wi

0101100
+144 0 -139 0 -180 42 +138 44 *
Fa
0  1e-07 28 0

0101000
+137 0 *
Ve
1e-07
-11 18.959 -7.82
0 0

0101101
*
Ed
 1e-07 1 1 0
1  73 0 0 21.3
2  145 29 0 0 21.3
2  146 30 0 0 21.3
4 G1 29 0 30 0
0

0101000
+179 41 -135 41 *
Ed
 1e-07 1 1 0
1  74 0 4.71238898038469 6.28318530717959
2  147 29 45 4.71238898038469 6.28318530717959
2  148 42 36 4.71238898038469 6.28318530717959
0

0101000
+135 46 -140 46 *
Wi

0101100
+134 0 -139 0 -178 42 +133 44 *
Fa
0  1e-07 29 0

0101000
+132 0 *
Ve
1e-07
-5.16 18.959 -7.82
0 0

0101101
*
Ed
 1e-07 1 1 0
1  75 0 0 21.3
2  149 30 0 0 21.3
2  150 31 0 0 21.3
0

0101000
+177 41 -130 41 *
Ed
 1e-07 1 1 0
1  76 0 0 5.84
2  151 30 45 0 5.84
2  152 42 36 0 5.84
0

0101000
+135 46 -130 46 *
Wi

0101100
+134 0 -129 0 -176 42 +128 44 *
Fa
0  1e-07 30 0

0101000
+127 0 *
Ve
1e-07
-5.16 18.959 -8.1
0 0

0101101
*
Ed
 1e-07 1 1 0
1  77 0 0 21.3
2  153 31 0 0 21.3
2  154 32 0 0 21.3
0

0101000
+175 41 -125 41 *
Ed
 1e-07 1 1 0
1  78 0 0 0.28
2  155 31 45 0 0.28
2  156 42 36 0 0.28
0

0101000
+130 46 -125 46 *
Wi

0101100
+129 0 -124 0 -174 42 +123 44 *
Fa
0  1e-07 31 0

0101000
+122 0 *
Ve
1e-07
-6.635 18.959 -9.49
0 0

0101101
*
Ed
 1e-07 1 1 0
1  79 0 0 21.3
2  157 32 0 0 21.3
2  158 33 0 0 21.3
0

0101000
+173 41 -120 41 *
Ed
 1e-07 1 1 0
1  80 0 0 2.02675232823352
2  159 32 45 0 2.02675232823352
2  160 42 36 0 2.02675232823352
0

0101000
+125 46 -120 46 *
Wi

0101100
+124 0 -119 0 -172 42 +118 44 *
Fa
0  1e-07 32 0

0101000
+117 0 *
Ve
1.00000011e-07
-6.635 18.959 -10.31
0 0

0101101
*
Ed
 1e-07 1 1 0
1  81 0 0 21.3
2  161 33 0 0 21.3
2  162 34 0 0 21.3
0

0101000
+171 41 -115 41 *
Ve
1.00000156e-07
-6.635 18.959 -10.3050000000002
0 0

0101101
*
Ed
 1e-07 1 1 0
1  82 0 0 0.815000000000159
2  163 33 45 0 0.815000000000159
2  164 42 36 0 0.815000000000159
0

0101000
+120 46 -113 46 *
Ed
 1.00000011e-07 1 1 0
1  83 0 0.815000000000159 0.819999999999999
2  165 33 45 0.815000000000159 0.819999999999999
2  166 43 51 0.815000000000159 0.819999999999999
0

0101000
+113 46 -115 46 *
Wi

0101100
+119 48 -114 48 -170 49 +112 50 +111 50 *
Fa
0  1e-07 33 48

0101000
+110 0 *
Ve
1.00000011e-07
6.635 18.959 -10.31
0 0

0101101
*
Ed
 1e-07 1 1 0
1  84 0 0 21.3
2  167 34 0 0 21.3
2  168 35 0 0 21.3
0

0101000
+169 41 -108 41 *
Ed
 1.00000011e-07 1 1 0
1  85 0 0 13.27
2  169 34 45 0 13.27
2  170 43 51 0 13.27
0

0101000
+108 46 -115 46 *
Wi

0101100
+107 48 -114 48 -168 49 +106 50 *
Fa
0  1e-07 34 48

0101000
+105 0 *
Ve
1e-07
6.635 18.959 -9.49
0 0

0101101
*
Ed
 1e-07 1 1 0
1  86 0 0 21.3
2  171 35 0 0 21.3
2  172 36 0 0 21.3
0

0101000
+167 41 -103 41 *
Ve
1.00000156e-07
6.635 18.959 -10.3050000000002
0 0

0101101
*
Ed
 1e-07 1 1 0
1  87 0 0 0.815000000000159
2  173 35 45 0 0.815000000000159
2  174 42 36 0 0.815000000000159
0

0101000
+103 46 -101 46 *
Ed
 1.00000011e-07 1 1 0
1  88 0 0.815000000000159 0.819999999999999
2  175 35 45 0.815000000000159 0.819999999999999
2  176 43 51 0.815000000000159 0.819999999999999
0

0101000
+101 46 -108 46 *
Wi

0101100
+102 48 -107 48 -166 49 +100 50 +99 50 *
Fa
0  1e-07 35 48

0101000
+98 0 *
Ve
1e-07
5.16 18.959 -8.1
0 0

0101101
*
Ed
 1e-07 1 1 0
1  89 0 0 21.3
2  177 36 0 0 21.3
2  178 37 0 0 21.3
0

0101000
+165 41 -96 41 *
Ed
 1e-07 1 1 0
1  90 0 0 2.02675232823352
2  179 36 45 0 2.02675232823352
2  180 42 36 0 2.02675232823352
0

0101000
+96 46 -103 46 *
Wi

0101100
+95 0 -102 0 -164 42 +94 44 *
Fa
0  1e-07 36 0

0101000
+93 0 *
Ve
1e-07
5.16 18.959 -7.82
0 0

0101101
*
Ed
 1e-07 1 1 0
1  91 0 0 21.3
2  181 37 0 0 21.3
2  182 38 0 0 21.3
0

0101000
+163 41 -91 41 *
Ed
 1e-07 1 1 0
1  92 0 0 0.28
2  183 37 45 0 0.28
2  184 42 36 0 0.28
0

0101000
+91 46 -96 46 *
Wi

0101100
+90 0 -95 0 -162 42 +89 44 *
Fa
0  1e-07 37 0

0101000
+88 0 *
Ve
1e-07
11 18.959 -7.82
0 0

0101101
*
Ed
 1e-07 1 1 0
1  93 0 0 21.3
2  185 38 0 0 21.3
2  186 39 0 0 21.3
4 G1 38 0 39 0
0

0101000
+161 41 -86 41 *
Ed
 1e-07 1 1 0
1  94 0 0 5.84
2  187 38 45 0 5.84
2  188 42 36 0 5.84
0

0101000
+86 46 -91 46 *
Wi

0101100
+85 0 -90 0 -160 42 +84 44 *
Fa
0  1e-07 38 0

0101000
+83 0 *
Ve
1e-07
15.32 18.959 -3.5
0 0

0101101
*
Ed
 1e-07 1 1 0
1  95 0 0 21.3
2  189 39 0 0 21.3
2  190 40 0 0 21.3
4 G1 39 0 40 0
0

0101000
+159 41 -81 41 *
Ed
 1e-07 1 1 0
1  96 0 3.14159265358979 4.71238898038469
2  191 39 45 3.14159265358979 4.71238898038469
2  192 42 36 3.14159265358979 4.71238898038469
0

0101000
+81 46 -86 46 *
Wi

0101100
+80 0 -85 0 -158 42 +79 44 *
Fa
0  1e-07 39 0

0101000
+78 0 *
Ve
1e-07
15.32 18.959 3.49
0 0

0101101
*
Ed
 1e-07 1 1 0
1  97 0 0 21.3
2  193 40 0 0 21.3
2  194 41 0 0 21.3
4 G1 40 0 41 0
0

0101000
+157 41 -76 41 *
Ed
 1e-07 1 1 0
1  98 0 0 6.99
2  195 40 45 0 6.99
2  196 42 36 0 6.99
0

0101000
+76 46 -81 46 *
Wi

0101100
+75 0 -80 0 -156 42 +74 44 *
Fa
0  1e-07 40 0

0101000
+73 0 *
Ed
 1e-07 1 1 0
1  99 0 1.5707963267949 3.14159265358979
2  197 41 45 1.5707963267949 3.14159265358979
2  198 42 36 1.5707963267949 3.14159265358979
0

0101000
+152 46 -76 46 *
Wi

0101100
+151 0 -75 0 -155 42 +71 44 *
Fa
0  1e-07 41 0

0101000
+70 0 *
Ve
1.00000156e-07
10.9599999999966 18.959 -10.305
0 0

0101101
*
Ed
 1.00000156e-07 1 1 0
1  100 0 17.5950000000034 21.92
2  199 42 54 17.5950000000034 21.92
2  200 15 55 17.5950000000034 21.92
0

0101000
+101 56 -68 56 *
Ve
1e-07
17.7099999999966 18.959 -3.55499999999985
0 0

0101101
*
Ed
 1e-07 1 1 0
1  101 0 4.71238898038469 6.28318530717959
2  201 42 54 4.71238898038469 6.28318530717959
2  202 16 55 4.71238898038469 6.28318530717959
0

0101000
+68 56 -66 56 *
Ve
1e-07
17.7099999999966 18.959 3.55500000000016
0 0

0101101
*
Ed
 1e-07 1 1 0
1  102 0 0 7.11
2  203 42 54 0 7.11
2  204 24 57 0 7.11
0

0101000
+66 56 -64 56 *
Ve
1.00000004e-07
10.9599999999966 18.959 10.3050000000002
0 0

0101101
*
Ed
 1e-07 1 1 0
1  103 0 0 1.5707963267949
2  205 42 54 0 1.5707963267949
2  206 6 55 0 1.5707963267949
0

0101000
+64 56 -62 56 *
Ve
1.00000004e-07
-10.9600000000034 18.959 10.3050000000002
0 0

0101101
*
Ed
 1.00000004e-07 1 1 0
1  104 0 0 21.92
2  207 42 54 0 21.92
2  208 7 55 0 21.92
0

0101000
+62 56 -60 56 *
Ve
1e-07
-17.7100000000034 18.959 3.55500000000016
0 0

0101101
*
Ed
 1e-07 1 1 0
1  105 0 1.5707963267949 3.14159265358979
2  209 42 54 1.5707963267949 3.14159265358979
2  210 8 55 1.5707963267949 3.14159265358979
0

0101000
+60 56 -58 56 *
Ve
1e-07
-17.7100000000034 18.959 -3.55499999999984
0 0

0101101
*
Ed
 1e-07 1 1 0
1  106 0 0 7.11
2  211 42 54 0 7.11
2  212 44 57 0 7.11
0

0101000
+58 56 -56 56 *
Ve
1.00000156e-07
-10.9600000000034 18.959 -10.305
0 0

0101101
*
Ed
 1e-07 1 1 0
1  107 0 3.14159265358979 4.71238898038469
2  213 42 54 3.14159265358979 4.71238898038469
2  214 14 55 3.14159265358979 4.71238898038469
0

0101000
+56 56 -54 56 *
Ed
 1.00000156e-07 1 1 0
1  108 0 0 4.3250000000034
2  215 42 54 0 4.3250000000034
2  216 15 55 0 4.3250000000034
0

0101000
+54 56 -113 56 *
Wi

0101100
-71 50 -74 50 -79 50 -84 50 -89 50 -94 50 -100 50 -67 53 -65 53 -63 53 
-61 53 -59 53 -57 53 -55 53 -53 53 -52 53 +112 50 +118 50 +123 50 +128 50 
-133 50 +138 50 -143 50 +148 50 *
Fa
0  1e-07 42 52

0101000
+51 0 *
Ed
 1.00000156e-07 1 1 0
1  109 0 4.3250000000034 17.5950000000034
2  217 43 26 4.3250000000034 17.5950000000034
2  218 15 55 4.3250000000034 17.5950000000034
0

0101000
+113 56 -101 56 *
Wi

0101100
-111 50 +106 50 +99 50 +49 53 *
Fa
0  1e-07 43 58

0101000
+48 0 *
Ed
 1e-07 1 1 0
1  110 0 0 7.7
2  219 24 0 0 7.7
2  220 16 59 0 7.7
0

0101000
+66 60 -200 60 *
Ed
 1e-07 1 1 0
1  111 0 0 7.7
2  221 24 0 0 7.7
2  222 6 59 0 7.7
0

0101000
+64 60 -202 60 *
Wi

0101100
+46 0 -45 0 -63 53 +199 61 *
Fa
0  1e-07 24 0

0101000
+44 0 *
Ve
1e-07
-17.7100000000034 11.259 3.55500000000016
0 0

0101101
*
Ed
 1e-07 1 1 0
1  112 0 0 7.7
2  223 44 0 0 7.7
2  224 8 59 0 7.7
0

0101000
+58 60 -42 60 *
Ve
1e-07
-17.7100000000034 11.259 -3.55499999999984
0 0

0101101
*
Ed
 1e-07 1 1 0
1  113 0 0 7.7
2  225 44 0 0 7.7
2  226 14 59 0 7.7
0

0101000
+56 60 -40 60 *
Ed
 1e-07 1 1 0
1  114 0 0 7.11
2  227 44 29 0 7.11
2  228 22 26 0 7.11
0

0101000
+42 28 -40 28 *
Wi

0101100
+41 0 -39 0 -55 53 +38 61 *
Fa
0  1e-07 44 0

0101000
+37 0 *
Ed
 1e-07 1 1 0
1  115 0 3.14159265358979 3.6029737132858
2  229 22 26 3.14159265358979 3.6029737132858
2  230 14 27 3.14159265358979 3.6029737132858
0

0101000
+40 28 -234 28 *
Ed
 1e-07 1 1 0
1  116 0 2.68021159389378 3.14159265358979
2  231 22 26 2.68021159389378 3.14159265358979
2  232 8 27 2.68021159389378 3.14159265358979
0

0101000
+256 28 -42 28 *
Wi

0101100
+35 25 +38 25 +34 25 -252 14 -247 14 -242 14 -237 14 -232 14 *
Fa
0  1e-07 22 22

0101000
+33 0 *
Ed
 1e-07 1 1 0
1  117 0 0 41.6
2  233 3 0 0 41.6
2  234 2 0 0 41.6
0

0101000
+195 13 -298 13 *
Ed
 1e-07 1 1 0
1  118 0 -29 12.6
2  235 3 0 -29 12.6
2  236 4 0 -29 12.6
0

0101000
+194 13 -296 13 *
Wi

0101000
+31 0 +295 21 -30 0 -193 62 *
Fa
0  1e-07 3 0

0101000
+29 0 *
Ed
 1e-07 1 1 0
1  119 0 -29 12.6
2  237 4 0 -29 12.6
2  238 5 0 -29 12.6
0

0101000
+192 13 -294 13 *
Wi

0101000
+30 0 +293 21 -27 0 -191 62 *
Fa
0  1e-07 4 0

0101000
+26 0 *
Ed
 1e-07 1 1 0
1  120 0 -29 12.6
2  239 5 0 -29 12.6
2  240 2 0 -29 12.6
0

0101000
+190 13 -299 13 *
Wi

0101000
+27 0 +292 21 -24 0 -189 62 *
Fa
0  1e-07 5 0

0101000
+23 0 *
Wi

0101000
+24 0 +297 21 -31 0 -188 62 *
Fa
0  1e-07 2 0

0101000
+21 0 *
Ed
 1e-07 1 1 0
1  121 0 0 20.3
2  241 15 0 0 20.3
2  242 14 0 0 20.3
0

0101000
+54 13 -273 13 *
Ed
 1e-07 1 1 0
1  122 0 -7.7 12.6
2  243 15 0 -7.7 12.6
2  244 16 0 -7.7 12.6
0

0101000
+68 13 -271 13 *
Wi

0101000
+19 0 +270 21 -18 0 -67 63 -49 63 -52 63 *
Fa
0  1.00000156e-07 15 0

0101000
+17 0 *
Ed
 1e-07 1 1 0
1  123 0 0 20.3
2  245 7 0 0 20.3
2  246 6 0 0 20.3
0

0101000
+62 13 -289 13 *
Ed
 1e-07 1 1 0
1  124 0 -7.7 12.6
2  247 7 0 -7.7 12.6
2  248 8 0 -7.7 12.6
0

0101000
+60 13 -287 13 *
Wi

0101000
+15 0 +286 21 -14 0 -59 63 *
Fa
0  1.00000004e-07 7 0

0101000
+13 0 *
Wi

0101000
+268 21 -228 0 +198 25 -46 47 -65 63 +18 0 *
Fa
0  1e-07 16 0

0101000
+11 0 *
Wi

0101000
+288 21 -15 0 -61 63 +45 47 +201 25 +206 0 *
Fa
0  1e-07 6 0

0101000
+9 0 *
Wi

0101000
+284 21 -255 0 +34 25 -41 47 -57 63 +14 0 *
Fa
0  1e-07 8 0

0101000
+7 0 *
Wi

0101000
+272 21 -19 0 -53 63 +39 47 +35 25 +233 0 *
Fa
0  1e-07 14 0

0101000
+5 0 *
Sh

0101000
-257 6 +250 0 +245 0 +240 0 +235 0 +230 0 +223 0 +218 0 -213 0 +208 0 
-203 0 -196 0 +153 32 +146 40 -141 40 +136 40 -131 40 +126 40 +121 40 +116 40 
+109 47 -104 47 -97 47 -92 40 -87 40 -82 40 -77 40 -72 40 -69 40 -50 47 
+47 47 +43 47 +36 47 -32 0 +28 0 +25 0 +22 0 +20 0 +16 0 +12 0 
+10 0 +8 0 +6 0 +4 0 *
So

0100000
+3 0 *
Co

1100000
+2 0 *

+1 3 