DBRep_DrawableShape

CASCADE Topology V1, (c) Matra-Datavision
Locations 69
1
              1               0               0               0 
              0               1               0               0 
              0               0               1               0 
1
              1               0               0               0 
              0               1               0         -20.212 
              0               0               1           8.793 
2  1 1 2 1 0
1
              1               0               0               0 
              0               1               0               0 
              0               0               1               0 
1
              1               0               0               0 
              0               1               0               0 
              0               0               1               0 
1
              1               0               0               0 
              0               1               0               0 
              0               0               1               0 
1
              1               0               0               0 
              0               1               0               0 
              0               0               1               0 
1
              1               0               0               0 
              0               1               0               0 
              0               0               1               0 
1
              1               0               0               0 
              0               1               0               0 
              0               0               1               0 
1
              1               0               0               0 
              0               1               0               0 
              0               0               1               0 
2  4 -1 5 1 6 -1 7 1 8 -1 9 1 10 -1 0
1
              1               0               0               0 
              0               1               0               0 
              0               0               1               0 
1
             -1               0               0               0 
              0               0               1          38.862 
              0               1              -0               0 
2  12 1 13 1 0
2  13 -1 12 -1 0
2  8 1 7 -1 6 1 5 -1 4 1 13 -1 12 -1 0
2  1 -1 10 1 9 -1 8 1 7 -1 6 1 5 -1 4 1 13 -1 12 -1 0
2  4 1 13 -1 12 -1 0
2  10 1 9 -1 8 1 7 -1 6 1 5 -1 4 1 13 -1 12 -1 0
2  9 1 10 -1 0
2  1 -1 10 1 9 -1 0
1
              1               0               0               0 
              0               1               0               0 
              0               0               1               0 
1
              1               0               0               0 
              0               0              -1          12.662 
              0               1               0          -4e-15 
1
              1               0               0               0 
              0               1               0           -11.1 
              0               0               1           2e-15 
2  22 1 23 1 8 -1 24 1 0
2  24 -1 8 1 23 -1 22 -1 0
2  23 -1 22 -1 0
2  1 -1 10 1 9 -1 24 -1 8 1 23 -1 22 -1 0
2  12 1 13 1 4 -1 5 1 6 -1 7 1 8 -1 0
2  5 1 6 -1 7 1 8 -1 9 1 10 -1 0
2  1 -1 10 1 9 -1 8 1 7 -1 6 1 5 -1 0
2  12 1 13 1 4 -1 0
1
              1               0               0              -0 
              0               1               0           -18.3 
              0               0               1           4e-15 
2  12 1 13 1 4 -1 33 1 0
2  33 -1 4 1 13 -1 12 -1 0
2  1 -1 10 1 9 -1 8 1 7 -1 6 1 5 -1 33 -1 4 1 13 -1 12 -1 0
2  10 1 9 -1 8 1 7 -1 6 1 5 -1 0
2  8 -1 24 1 9 1 10 -1 0
2  22 1 23 1 8 -1 24 1 9 1 10 -1 0
2  1 -1 0
2  4 -1 33 1 5 1 6 -1 7 1 8 -1 9 1 10 -1 0
2  12 1 13 1 4 -1 33 1 5 1 6 -1 7 1 8 -1 9 1 10 -1 0
2  10 1 9 -1 8 1 7 -1 6 1 5 -1 33 -1 4 1 13 -1 12 -1 0
1
              1               0               0               0 
              0               1               0               0 
              0               0               1               0 
1
              1               0               0               0 
              0               0              -1          20.562 
              0               1               0               0 
2  44 1 45 1 6 -1 7 1 8 -1 9 1 10 -1 0
2  4 -1 33 1 5 1 45 -1 44 -1 0
2  8 1 7 -1 6 1 45 -1 44 -1 0
2  1 -1 10 1 9 -1 8 1 7 -1 6 1 45 -1 44 -1 0
2  6 1 45 -1 44 -1 0
2  22 1 23 1 8 -1 0
2  8 1 23 -1 22 -1 0
1
              1               0               0               0 
              0               1               0            -7.9 
              0               0               1           2e-15 
2  6 -1 53 1 7 1 23 -1 22 -1 0
2  1 -1 10 1 9 -1 8 1 23 -1 22 -1 0
2  44 1 45 1 6 -1 53 1 7 1 8 -1 0
2  8 1 7 -1 53 -1 6 1 45 -1 44 -1 0
2  45 -1 44 -1 0
2  1 -1 10 1 9 -1 8 1 7 -1 53 -1 6 1 45 -1 44 -1 0
2  7 1 8 -1 0
2  8 1 7 -1 0
2  1 -1 10 1 9 -1 8 1 7 -1 0
2  44 1 45 1 6 -1 7 1 8 -1 0
2  7 1 8 -1 9 1 10 -1 0
2  44 1 45 1 6 -1 0
2  44 1 45 1 6 -1 53 1 0
2  53 -1 6 1 45 -1 44 -1 0
2  6 -1 53 1 7 1 8 -1 0
2  12 1 13 1 4 -1 5 1 6 -1 7 1 8 -1 9 1 10 -1 0
Curve2ds 192
1 10.982958688902857 10.000000000119892 -1 0 
1 9.9024999999999999 -18.650000000000002 -1 0 
1 -8.8220413110971503 10.000000000119892 0 -1 
1 -18.650000000000006 -10 0 1 
1 -8.8220413110971503 -9.9999999998801083 1 0 
1 9.902500000000007 -18.650000000000002 -1 0 
1 10.982958688902857 -9.9999999998801083 0 1 
1 18.650000000000006 10 0 -1 
2 2.1429586888808521 3.7465000001088913 0 -1 1 0 2.6859999999999995
1 0 0 1 0 
1 4.8289586888808511 3.7465000001088917 0 -1 
1 0 0 1 0 
2 2.1429586888808516 -3.7464999998691098 0 -1 1 0 2.6859999999999995
1 0 0 1 0 
1 2.1429586888808521 -6.4324999998691093 -1 0 
1 0 0 1 2.2e-16 
2 -0.39704131109714746 -3.7464999998691089 0 -1 1 0 2.6860000000000004
1 0 0 1 0 
1 -2.5425342614385014 -5.3624999998801099 -1 0 
1 0 0 1 2.2e-16 
1 -4.5685131573656692 -5.3624999998801099 -0.70710674837814569 -0.70710681399494801 
1 -0 0 1 1.5999999999999996e-16 
1 -5.8925130345035406 -6.6864999998801071 -1 0 
1 0.77725121592635915 -18.587512922370447 -1 0 
1 -7.3220413110971485 6.6865000001198904 -7.0000000000000003e-17 -1 
1 18.649999999999999 -6.6864999999999988 1.7500000000000002e-32 1 
1 -5.8925130345035388 6.6865000001198904 -1 0 
1 -0.77725121592635382 -18.587512922370454 1 1.8116000000000001e-30 
1 -4.5685131573656692 5.3625000001198915 -0.70710674837814458 0.7071068139949489 
1 0 0 1 1.6000000000000001e-16 
1 -2.5425342614385014 5.3625000001198915 -1 0 
1 0 0 1 2.2e-16 
2 -0.39704131109714785 3.7465000001088904 0 -1 1 0 2.6860000000000004
1 0 0 1 0 
1 2.1429586888808525 6.4325000001088908 -1 0 
1 0 0 1 2.2e-16 
1 9.9024999999999999 -18.650000000000002 2.2e-16 1 
1 18.650000000000006 -10 -1 0 
1 9.9025000000000087 18.650000000000006 -1 0 
1 9.7561835079904693 9.9998647528015638 -1 0 
1 -9.9024999999999999 7.5500000000000078 2.2e-16 1 
1 7.5500000000000043 -10 1 0 
1 18.650000000000002 10 0 -1 
1 -10.048816492009538 -10.000135247198436 0 1 
1 7.5500000000000043 10 1 0 
1 9.9024999999999999 7.5500000000000078 -2.2e-16 1 
1 9.9024999999999981 18.650000000000006 -1 0 
1 -10.048816492009538 -10.000135247198436 1 0 
1 -9.902500000000007 7.5500000000000043 -2.2e-16 1 
1 -7.5500000000000007 10 -1 0 
1 -18.650000000000002 10 0 -1 
1 9.7561835079904693 -10.000135247198436 0 1 
1 1.5707963267948968 0 0 -1 
1 0 0 0 -1 
1 3.1415926535897931 0 0 -1 
1 0 0 0 -1 
1 0 -18.300000000000001 1 0 
2 2.1429586888808521 3.7465000001088913 0 -1 1 0 2.6859999999999995
1 7.4930000637356198 0 0 -1 
1 1.5707963030578831 0 0 -1 
1 0 -18.300000000000001 1 0 
1 4.8289586888808511 3.7465000001088917 0 -1 
1 1.7e-16 0 0 -1 
1 0 0 0 -1 
1 0 -18.300000000000001 1 0 
2 2.1429586888808516 -3.7464999998691098 0 -1 1 0 2.6859999999999995
1 2.5399999999779999 5.5879999999515997e-16 0 -1 
1 6.2831853071795862 0 0 -1 
1 2.9197111349436793e-17 -18.300000000000001 1 2.2e-16 
1 2.1429586888808521 -6.4324999998691093 -1 0 
1 5.3579393198765413 0 0 -1 
1 0 0 0 -1 
1 0 -18.300000000000001 1 0 
2 -0.39704131109714746 -3.7464999998691089 0 -1 1 0 2.6860000000000004
1 2.0259788959271678 4.4571535710397696e-16 0 -1 
1 -0 0 4.436515356807941e-18 -1 
1 2.9197111349436793e-17 -18.300000000000001 1 2.2e-16 
1 -2.5425342614385014 -5.3624999998801099 -1 0 
1 1.872418669705334 2.9958698715285328e-16 4.436515356807941e-18 -1 
1 0.77725121592635915 -18.587512922370447 2.2e-16 1 
1 -2.1218477166897779e-16 -18.300000000000001 1 1.5999999999999996e-16 
1 -4.5685131573656692 -5.3624999998801099 -0.70710674837814569 -0.70710681399494801 
1 0 0 4.4365153568081875e-18 -1 
1 2.0259788959271678 4.4571535710397696e-16 0 -1 
1 1.8724186697053335 2.9958698715285343e-16 4.4365153568081875e-18 -1 
1 -0.77725121592635382 -18.587512922370454 -2.2e-16 1 
1 -2.1218477166897266e-16 -18.300000000000001 1 1.6000000000000001e-16 
1 -4.5685131573656692 5.3625000001198915 -0.70710674837814458 0.7071068139949489 
1 0 0 0 -1 
1 4.0668386408928381 0 0 -1 
1 2.9197111349436793e-17 -18.300000000000001 1 2.2e-16 
1 -2.5425342614385014 5.3625000001198915 -1 0 
1 3.1415926535897931 0 0 -1 
1 2.5399999999779999 5.5879999999515997e-16 0 -1 
1 0 -18.300000000000001 1 0 
2 -0.39704131109714785 3.7465000001088904 0 -1 1 0 2.6860000000000004
1 2.9197111349436793e-17 -18.300000000000001 1 2.2e-16 
1 2.1429586888808525 6.4325000001088908 -1 0 
1 8.6561835079904572 -5.3831711208275719 0 1 
1 0 -11.100000000000001 1 0 
2 7.2401835079904568 5.3338647528015644 0 1 1 -0 1.416381580040702
1 0 -11.1 1 0 
1 4.8247396280650872 6.7362527199714268 1 0 
1 -6.6564316059974977e-16 -11.100000000000001 1 -2.2e-16 
2 0.91618350799045523 3.7463647528015644 0 1 1 -0 4.9209999999999994
1 -9.9999999999999998e-17 -19 1 0 
1 0.91618350799045567 8.6673647528015643 -1 0 
1 -2.1720000000000019 9.4999999999999982 1 0 
2 -3.4278164920095451 3.7463647528015636 0 1 1 -0 4.9210000000000012
1 0 -19 1 0 
8 3.6870175308645607 4.8617989611449639
1 -3.6870175308645718 6.6863647528015635 -1 0 
1 -4.2095219004777169 18.712487077629554 1 1.8116000000000001e-30 
8 -3.3431823764007813 10.029817623599216
1 -8.5488164920095358 3.3431823764007822 -7.0000000000000003e-17 -1 
1 -18.650000000000009 -3.3433176235992175 1.7500000000000002e-32 1 
8 3.6870175308645714 4.8617989611449541
1 -3.6870175308645825 -6.6866352471984341 -1 0 
1 4.2095219004777134 18.712487077629561 -1 0 
2 -3.4278164920095442 -3.7466352471984368 0 1 1 -0 4.9210000000000003
1 0 -19 1 0 
1 0.91618350799045656 -8.6676352471984348 -1 0 
1 2.1719999176805422 9.4999999999999964 -1 0 
2 0.91618350799045611 -3.7466352471984359 0 1 1 -0 4.9209999999999985
1 0 -19 1 0 
1 7.2892193820483708 -6.7501352471835867 -1 0 
1 6.6564316059974977e-16 -11.100000000000001 1 2.2e-16 
2 7.2401835079904568 -5.3341352471984349 0 1 1 -0 1.416848798179458
1 0 -11.1 1 0 
1 -5.8925130345035388 6.6865000001198904 -1 0 
1 -0.77725121592635826 -0.28751292237045334 1 1.8116000000000001e-30 
2 -2.2010413110971565 3.7465000001198905 0 1 1 -0 4.9210000000000012
1 0 0 1 0 
1 2.1429586889028442 8.6675000001198921 -1 0 
1 -2.1719999999999988 -9.5000000000000018 1 0 
2 2.1429586889028438 3.7465000001198914 0 1 1 -0 4.9209999999999994
1 -9.9999999999999998e-17 0 1 0 
1 7.0639586889028436 -3.7464999998801085 0 1 
1 0 0 1 0 
2 2.1429586889028447 -3.746499999880109 0 1 1 -0 4.9209999999999994
1 0 0 1 0 
1 2.1429586889028451 -8.667499999880107 -1 0 
1 2.1719999176805391 -9.5000000000000036 -1 0 
2 -2.2010413110971556 -3.7464999998801098 0 1 1 -0 4.9210000000000003
1 0 0 1 0 
1 -5.8925130345035406 -6.6864999998801071 -1 0 
1 0.77725121592636359 -0.28751292237044623 -1 0 
1 0 0 0 -1 
1 1.6054123479882838 0 0 -1 
1 10.684160650761491 0 0 -1 
1 1.5940091219181112 0 0 -1 
1 0 -1.7763568394002505e-15 1 0 
1 9.2521099373580107 -5.3830358742531876 0 1 
1 0.14068506734300959 0 0 -1 
1 2.6140509538572259 -5.7509120984858971e-16 0 -1 
1 0 0 1 0 
2 7.8361099373580103 5.3339999993759486 0 1 1 -0 1.416381580040702
1 0 0 0 -1 
1 0.91778954717488193 -7.9000000000000004 0 -1 
1 -8.8817841970012563e-16 -1.7763568394002503e-15 1 -2.2e-16 
1 5.4206660574326406 6.7363879665458111 1 0 
1 0 -7.9000000000000048 1 2.72e-15 
2 1.5121099373580085 3.7464999993759487 0 1 1 -0 4.9209999999999994
1 1.5707963267948968 0 0 -1 
1 7.4929999999999986 0 0 -1 
1 0 -7.9000000000000004 0 -1 
1 -2.1720000000000006 -1.6000000000000014 -2.2e-16 1 
1 2.1720000000000033 -9.5000000000000018 -2.2e-16 1 
1 6.2831853071795862 0 0 -1 
1 5.3526933469253928 4.4299999999999998e-15 0 -1 
1 -0.52250436961314506 -0.28751292237044979 -2.8999999999999998e-16 1 
1 3.1415926201333986 -7.9000000000000004 0 -1 
1 -2.1719999176805418 -1.6000000000000032 2.2e-16 1 
1 4.0720846138439919 4.4299999999999998e-15 0 -1 
1 0.52250436961313085 -0.28751292237044268 2.8999999999999998e-16 1 
1 2.1719999176805391 -9.5000000000000036 2.2e-16 1 
1 3.1415926535897931 0 0 -1 
1 1.5707963267948966 0 0 -1 
1 0 0 0 -1 
1 0 -7.8999999999999959 1 -2.7099999999999999e-15 
2 1.5121099373580094 -3.7465000006240516 0 1 1 -0 4.9209999999999994
1 2.2272903892478189 -7.9000000000000004 0 -1 
1 2.4749300840619615 5.4448461849363153e-16 0 -1 
1 0 0 0 -1 
1 3.1069766320935974 0 0 -1 
1 3.907985046680551e-31 -1.7763568394002505e-15 1 2.2e-16 
1 7.8851458114159243 -6.7500000006092025 -1 0 
1 0 0 1 0 
2 7.8361099373580103 -5.3340000006240507 0 1 1 -0 1.416848798179458
1 0 -7.9000000000000004 1 0 
1 6.433109937358009 -3.7465000006240512 0 1 
1 -0.65227706066724522 -0.28751292237044623 2.8999999999999998e-16 1 
1 0.34999999999999787 6.6864999999999988 -1 0 
1 0.34999999999999787 -6.6864999999999988 -1 0 
1 0.65227706066725144 -0.28751292237045334 -2.8999999999999998e-16 1 
Curves 96
1 -10 11.012000000000004 0 0 -1 0 
1 -10 -8.7930000000000028 0 1 0 0 
1 10 -8.7930000000000028 0 0 1 0 
1 10 11.012000000000004 0 -1 0 0 
2 -3.7464999999890005 2.1719999999779995 0 0 0 1 1 0 -0 -0 1 0 2.6859999999999995
1 -3.746499999989001 4.8579999999779986 0 1 0 0 
2 3.7464999999890005 2.1719999999779991 0 0 0 1 1 0 -0 -0 1 0 2.6859999999999995
1 6.432499999989 2.1719999999779995 0 0 -1 0 
2 3.7464999999889996 -0.36799999999999994 0 0 0 1 1 0 -0 -0 1 0 2.6860000000000004
1 5.3625000000000007 -2.5134929503413539 0 0 -1 0 
1 5.3625000000000007 -4.5394718462685217 0 0.70710681399494801 -0.70710674837814569 0 
1 6.6864999999999979 -5.8634717234063931 0 0 -1 0 
1 -6.6864999999999997 -7.293000000000001 0 1 -7.0000000000000003e-17 0 
1 -6.6864999999999997 -5.8634717234063913 0 0 -1 0 
1 -5.3625000000000007 -4.5394718462685217 0 -0.7071068139949489 -0.70710674837814458 0 
1 -5.3625000000000007 -2.5134929503413539 0 0 -1 0 
2 -3.7464999999889996 -0.36800000000000033 0 0 0 1 1 0 -0 -0 1 0 2.6860000000000004
1 -6.432499999989 2.171999999978 0 0 -1 0 
1 10 38.862000000000002 11.012000000000004 0 -1 2.2e-16 
1 10 11.012000000000015 0 0 -1 0 
1 10 12.661999999999992 -8.7929999999999957 0 -1 2.2e-16 
1 -10 -8.7929999999999922 0 1 0 0 
1 -10 12.661999999999992 -8.7929999999999957 0 -1 2.2e-16 
1 -10 -8.7929999999999922 0 0 1 0 
1 -10 12.661999999999995 11.012000000000011 0 -1 2.2e-16 
1 -10 11.012000000000015 0 1 0 0 
1 3.746499999989001 38.862000000000002 4.8579999999779986 -0 -1 2.2e-16 
1 6.432499999989 38.862000000000002 2.171999999978 -0 -1 2.2e-16 
2 -3.7464999999890005 2.1719999999779995 0 0 0 1 1 0 -0 -0 1 0 2.6859999999999995
1 -3.7465000637466188 38.862000000000002 4.8579999999779986 -0 -1 2.2e-16 
1 -3.746499999989001 4.8579999999779986 0 1 0 0 
1 -6.432499999989 38.862000000000002 2.1719999999779995 -0 -1 2.2e-16 
2 3.7464999999890005 2.1719999999779991 0 0 0 1 1 0 -0 -0 1 0 2.6859999999999995
1 -6.432499999989 38.862000000000002 -0.36800000000000044 -0 -1 2.2e-16 
1 6.432499999989 2.1719999999779995 0 0 -1 0 
1 -5.3625000000000007 38.862000000000002 -2.5134929503413539 -0 -1 2.2e-16 
2 3.7464999999889996 -0.36799999999999994 0 0 0 1 1 0 -0 -0 1 0 2.6860000000000004
1 -5.3625000000000007 38.862000000000002 -4.5394718462685217 -0 -1 2.2e-16 
1 5.3625000000000007 -2.5134929503413539 0 0 -1 0 
1 -6.6864999999999979 38.862000000000002 -5.8634717234063931 -0 -1 2.2e-16 
1 5.3625000000000007 -4.5394718462685217 0 0.70710681399494801 -0.70710674837814569 0 
1 5.3625000000000007 38.862000000000002 -4.5394718462685217 -0 -1 2.2e-16 
1 6.6864999999999997 38.862000000000002 -5.8634717234063913 -0 -1 2.2e-16 
1 -5.3625000000000007 -4.5394718462685217 0 -0.7071068139949489 -0.70710674837814458 0 
1 5.3625000000000007 38.862000000000002 -2.5134929503413539 -0 -1 2.2e-16 
1 -5.3625000000000007 -2.5134929503413539 0 0 -1 0 
1 6.432499999989 38.862000000000002 -0.36799999999999994 -0 -1 2.2e-16 
2 -3.7464999999889996 -0.36800000000000033 0 0 0 1 1 0 -0 -0 1 0 2.6860000000000004
1 -6.432499999989 2.171999999978 0 0 -1 0 
1 -5.3830358736291357 9.9120000000000026 0 1 0 0 
2 5.3340000000000005 8.4960000000000022 0 0 0 1 1 0 -0 -0 1 0 1.416381580040702
1 6.736387967169863 6.0805561200746334 0 0 1 0 
2 3.7465000000000006 2.1720000000000006 0 0 0 1 1 0 -0 -0 1 0 4.9210000000000003
1 8.6675000000000004 2.172000000000001 0 0 -1 0 
2 3.7464999999999997 -2.1719999999999997 0 0 0 1 1 0 -0 -0 1 0 4.9210000000000003
1 6.6864999999999997 1.5619999999999932 -2.4312010388550283 0 0 -1 
1 3.3433176235992184 1.5619999999999932 -7.2929999999999922 -1 0 -7.0000000000000003e-17 
1 -6.6864999999999979 1.5619999999999932 -2.4312010388550389 0 0 -1 
2 -3.7465000000000006 -2.1719999999999988 0 0 0 1 1 0 -0 -0 1 0 4.9210000000000003
1 -8.6674999999999986 2.1720000000000019 0 0 -1 0 
2 -3.7464999999999997 2.1720000000000015 0 0 0 1 1 0 -0 -0 1 0 4.9209999999999985
1 -6.7499999999851505 8.5450358740579162 0 0 -1 0 
2 -5.3339999999999987 8.4960000000000022 0 0 0 1 1 0 -0 -0 1 0 1.416848798179458
1 -6.6864999999999997 -5.8634717234063913 0 0 -1 0 
2 3.7464999999999997 -2.172000000000005 0 0 0 1 1 0 -0 -0 1 0 4.9210000000000003
1 8.6675000000000004 2.1719999999999957 0 0 -1 0 
2 3.7465000000000006 2.1719999999999953 0 0 0 1 1 0 -0 -0 1 0 4.9210000000000003
1 -3.7464999999999993 7.0929999999999955 0 1 0 0 
2 -3.7464999999999997 2.1719999999999962 0 0 0 1 1 0 -0 -0 1 0 4.9209999999999994
1 -8.6674999999999986 2.1719999999999966 0 0 -1 0 
2 -3.7465000000000006 -2.1720000000000041 0 0 0 1 1 0 -0 -0 1 0 4.9210000000000003
1 6.6864999999999979 -5.8634717234063931 0 0 -1 0 
1 -5.3830358736291357 12.661999999999995 9.911999999999999 0 -1 2.2e-16 
1 5.3011247771323546 12.661999999999995 9.911999999999999 0 -1 2.2e-16 
1 -5.3830358736291357 9.9120000000000026 0 1 0 0 
1 6.736387967169863 12.661999999999995 8.6946070739318557 0 -1 2.2e-16 
2 5.3340000000000005 8.4960000000000022 0 0 0 1 1 0 -0 -0 1 0 1.416381580040702
1 6.736387967169863 12.661999999999995 6.0805561200746299 0 -1 2.2e-16 
1 6.736387967169863 6.0805561200746334 0 0 1 0 
2 3.7465000000000006 2.1719999999999953 0 0 0 1 1 0 -0 -0 1 0 4.9210000000000003
1 3.7464999999999993 20.561999999999994 7.0929999999999955 0 -1 2.2e-16 
1 8.6675000000000004 12.661999999999994 2.1719999999999975 0 -1 2.2e-16 
1 8.6675000000000004 20.561999999999994 -2.1720000000000064 0 -1 2.2e-16 
1 6.6865000000000201 20.561999999999998 -6.1182185697196001 0 -1 2.8999999999999998e-16 
1 -8.6674999999999986 12.661999999999994 -2.1719998353610843 0 -1 2.2e-16 
1 -6.6865000000000041 20.561999999999998 -6.1182185697196214 0 -1 2.8999999999999998e-16 
1 -8.6674999999999986 20.561999999999994 2.1719999999999966 0 -1 2.2e-16 
1 -3.7464999999999993 20.561999999999994 7.0929999999999955 0 -1 2.2e-16 
2 -3.7464999999999997 2.1719999999999962 0 0 0 1 1 0 -0 -0 1 0 4.9209999999999994
1 -6.7499999999925766 12.661999999999995 6.0701057899959512 0 -1 2.2e-16 
1 -6.7499999999851505 12.661999999999995 8.5450358740579127 0 -1 2.2e-16 
1 -6.7499999999851505 8.5450358740579162 0 0 -1 0 
2 -5.3339999999999987 8.4960000000000022 0 0 0 1 1 0 -0 -0 1 0 1.416848798179458
1 -3.7464999999999993 7.0929999999999955 0 1 0 0 
1 -6.6864999999999979 20.562000000000001 -7.2929999999999975 0 -1 2.8999999999999998e-16 
1 6.6864999999999997 20.562000000000001 -7.2929999999999966 0 -1 2.8999999999999998e-16 
Polygon3D 0
PolygonOnTriangulations 0
Surfaces 34
1 -1.1989078999999999e-10 38.861999999999995 0.029041311097147509 0 1 0 0 -0 1 1 0 -0 
1 10 20.212 1.1095000000000044 1 0 0 -0 0 1 0 -1 0 
1 0 20.211999999999996 -8.7929999999999993 -0 -2.2999999999999999e-16 -1 0 -1 2.2999999999999999e-16 -1 0 0 
1 -10 20.212 1.1095000000000048 -1 -0 -0 0 0 -1 0 -1 0 
1 0 20.211999999999996 11.012000000000009 0 2.2999999999999999e-16 1 0 1 -2.2999999999999999e-16 -1 0 0 
2 3.7464999999890005 38.862000000000002 2.1719999999779995 0 1 -2.2e-16 -1 0 0 0 2.2e-16 1 2.6859999999999995
1 3.746499999989001 38.862000000000002 4.8579999999779986 -0 -2.2e-16 -1 -1 0 0 0 1 -2.2e-16 
2 -3.7464999999890005 38.862000000000002 2.1719999999779991 0 1 -2.2e-16 -1 0 0 0 2.2e-16 1 2.6859999999999995
1 -6.432499999989 38.862000000000002 2.1719999999779995 1 0 0 0 -2.2e-16 -1 0 1 -2.2e-16 
2 -3.7464999999889996 38.862000000000002 -0.36799999999999994 0 1 -2.2e-16 -1 0 0 0 2.2e-16 1 2.6860000000000004
1 -5.3625000000000007 38.862000000000002 -2.5134929503413539 1 0 0 0 -2.2e-16 -1 0 1 -2.2e-16 
1 -5.3625000000000007 38.862000000000002 -4.5394718462685217 0.70710674837814569 -1.6000000000000001e-16 -0.70710681399494801 -0.70710681399494801 -1.5999999999999999e-16 -0.70710674837814569 -1.0498688354152072e-23 1 -2.2627416997969493e-16 
1 -6.6864999999999997 20.274487077629555 -6.6407229393327523 1 0 1.9700000000000001e-15 -1.9700000000000001e-15 0 1 0 -1 0 
1 7.0000000000000003e-16 20.212000000000003 -7.2929999999999984 0 2.5000000000000002e-16 1 0 1 -2.5000000000000002e-16 -1 0 0 
1 6.6865000000000059 20.274487077629548 -6.6407229393327452 -1 -2.8000000000000001e-16 6.4699999999999998e-15 -6.4699999999999998e-15 0 -1 2.8000000000000001e-16 -1 -1.8116000000000001e-30 
1 5.3625000000000007 38.862000000000002 -4.5394718462685217 0.70710674837814458 1.6000000000000001e-16 0.7071068139949489 0.7071068139949489 -1.6000000000000001e-16 -0.70710674837814458 1.0498688699278721e-23 1 -2.2627416997969498e-16 
1 5.3625000000000007 38.862000000000002 -2.5134929503413539 1 0 0 0 -2.2e-16 -1 0 1 -2.2e-16 
2 3.7464999999889996 38.862000000000002 -0.36800000000000033 0 1 -2.2e-16 -1 0 0 0 2.2e-16 1 2.6860000000000004
1 6.432499999989 38.862000000000002 2.171999999978 1 0 0 0 -2.2e-16 -1 0 1 -2.2e-16 
1 0.00013524719843618999 12.661999999999992 1.2558164920095414 0 1 0 0 -0 1 1 0 -0 
1 -1.1989078999999999e-10 38.861999999999995 0.029041311097147509 0 1 0 0 -0 1 1 0 -0 
1 -5.3830358736291357 12.661999999999995 9.911999999999999 -0 2.2e-16 1 1 0 0 0 1 -2.2e-16 
2 5.3340000000000005 12.661999999999995 8.4959999999999987 -0 1 -2.2e-16 1 0 0 -0 2.2e-16 1 1.416381580040702
1 6.736387967169863 12.661999999999995 6.0805561200746299 -1 0 0 0 2.2e-16 1 0 1 -2.2e-16 
2 3.7465000000000006 20.561999999999994 2.1719999999999953 0 1 -2.2e-16 1 0 0 -0 2.2e-16 1 4.9210000000000003
1 8.6675000000000004 11.061999999999992 -3.1999999999999999e-15 -1 -0 -0 0 0 -1 0 -1 0 
2 3.7464999999999997 20.561999999999994 -2.172000000000005 0 1 -2.2e-16 1 0 0 -0 2.2e-16 1 4.9210000000000003
2 -3.7465000000000006 20.561999999999994 -2.1720000000000041 0 1 -2.2e-16 1 0 0 -0 2.2e-16 1 4.9210000000000003
1 -8.6674999999999969 11.061999999999991 8.2319457560000005e-08 1 0 0 -0 0 1 0 -1 0 
2 -3.7464999999999997 20.561999999999994 2.1719999999999962 0 1 -2.2e-16 1 0 0 -0 2.2e-16 1 4.9209999999999994
1 -6.7499999999851505 12.661999999999995 8.5450358740579127 1 0 0 0 -2.2e-16 -1 0 1 -2.2e-16 
2 -5.3339999999999987 12.661999999999995 8.4959999999999987 -0 1 -2.2e-16 1 0 0 -0 2.2e-16 1 1.416848798179458
1 -3.7464999999999993 20.561999999999994 7.0929999999999955 -0 2.2e-16 1 1 0 0 0 1 -2.2e-16 
1 6.2405169999999995e-10 20.561999999999994 0.6598900626419868 0 1 -2.8999999999999998e-16 0 2.8999999999999998e-16 1 1 -0 0 
Triangulations 0

TShapes 233
Ve
1e-07
10 38.862 11.012
0 0

0101101
*
Ve
1e-07
10 38.862 -8.793
0 0

0101101
*
Ed
 1e-07 1 1 0
1  1 0 0 19.805
2  1 1 15 0 19.805
2  2 2 16 0 19.805
0

0101000
+233 17 -232 17 *
Ve
1e-07
-10 38.862 -8.793
0 0

0101101
*
Ed
 1e-07 1 1 0
1  2 0 0 20
2  3 1 15 0 20
2  4 3 16 0 20
0

0101000
+232 17 -230 17 *
Ve
1e-07
-10 38.862 11.012
0 0

0101101
*
Ed
 1e-07 1 1 0
1  3 0 0 19.805
2  5 1 15 0 19.805
2  6 4 16 0 19.805
0

0101000
+230 17 -228 17 *
Ed
 1e-07 1 1 0
1  4 0 0 20
2  7 1 15 0 20
2  8 5 16 0 20
0

0101000
+228 17 -233 17 *
Wi

0101100
+231 0 +229 0 +227 0 +226 0 *
Ve
1e-07
3.746499999989 38.862 4.857999999978
0 0

0101101
*
Ve
1e-07
6.432499999989 38.862 2.171999999978
0 0

0101101
*
Ed
 1e-07 1 1 0
1  5 0 1.5707963267949 3.14159265358979
2  9 1 15 1.5707963267949 3.14159265358979
2  10 6 18 1.5707963267949 3.14159265358979
0

0101000
+224 17 -223 17 *
Ve
1e-07
-3.74650006374662 38.862 4.857999999978
0 0

0101101
*
Ed
 1e-07 1 1 0
1  6 0 0 7.49300006373562
2  11 1 15 0 7.49300006373562
2  12 7 18 0 7.49300006373562
0

0101000
+224 17 -221 17 *
Ve
1e-07
-6.432499999989 38.862 2.171999999978
0 0

0101101
*
Ed
 1e-07 1 1 0
1  7 0 0 1.57079630305788
2  13 1 15 0 1.57079630305788
2  14 8 18 0 1.57079630305788
0

0101000
+219 17 -221 17 *
Ve
1e-07
-6.432499999989 38.862 -0.368
0 0

0101101
*
Ed
 1e-07 1 1 0
1  8 0 0 2.539999999978
2  15 1 15 0 2.539999999978
2  16 9 18 0 2.539999999978
0

0101000
+219 17 -217 17 *
Ve
1e-07
-5.3625 38.862 -2.51349295034135
0 0

0101101
*
Ed
 1e-07 1 1 0
1  9 0 5.35793931987654 6.28318530717959
2  17 1 15 5.35793931987654 6.28318530717959
2  18 10 18 5.35793931987654 6.28318530717959
0

0101000
+215 17 -217 17 *
Ve
1e-07
-5.3625 38.862 -4.53947184626852
0 0

0101101
*
Ed
 1e-07 1 1 0
1  10 0 0 2.02597889592717
2  19 1 15 0 2.02597889592717
2  20 11 18 0 2.02597889592717
0

0101000
+215 17 -213 17 *
Ve
5.8224743616e-05
-6.6865 38.862 -5.86347172340639
0 0

0101101
*
Ed
 1e-07 1 1 0
1  11 0 0 1.87241866970533
2  21 1 15 0 1.87241866970533
2  22 12 18 0 1.87241866970533
0

0101000
+213 17 -211 17 *
Ve
5.8224743626e-05
-6.6865 38.862 -7.293
0 0

0101101
*
Ed
 5.8224743616e-05 1 1 0
1  12 0 0 1.42952827659361
2  23 1 15 0 1.42952827659361
2  24 13 19 0 1.42952827659361
0

0101000
+211 17 -209 17 *
Ve
5.8224743626e-05
6.6865 38.862 -7.293
0 0

0101101
*
Ed
 5.8224743626e-05 1 1 0
1  13 0 0 13.373
2  25 1 15 0 13.373
2  26 14 19 0 13.373
0

0101000
+207 17 -209 17 *
Ve
5.8224743626e-05
6.6865 38.862 -5.86347172340639
0 0

0101101
*
Ed
 5.8224743626e-05 1 1 0
1  14 0 0 1.42952827659361
2  27 1 15 0 1.42952827659361
2  28 15 19 0 1.42952827659361
0

0101000
+205 17 -207 17 *
Ve
1e-07
5.3625 38.862 -4.53947184626852
0 0

0101101
*
Ed
 1e-07 1 1 0
1  15 0 0 1.87241866970533
2  29 1 15 0 1.87241866970533
2  30 16 18 0 1.87241866970533
0

0101000
+203 17 -205 17 *
Ve
1e-07
5.3625 38.862 -2.51349295034135
0 0

0101101
*
Ed
 1e-07 1 1 0
1  16 0 0 2.02597889592717
2  31 1 15 0 2.02597889592717
2  32 17 18 0 2.02597889592717
0

0101000
+201 17 -203 17 *
Ve
1e-07
6.432499999989 38.862 -0.368
0 0

0101101
*
Ed
 1e-07 1 1 0
1  17 0 3.14159265358979 4.06683864089284
2  33 1 15 3.14159265358979 4.06683864089284
2  34 18 18 3.14159265358979 4.06683864089284
0

0101000
+199 17 -201 17 *
Ed
 1e-07 1 1 0
1  18 0 0 2.539999999978
2  35 1 15 0 2.539999999978
2  36 19 18 0 2.539999999978
0

0101000
+223 17 -199 17 *
Wi

0101100
-222 0 +220 0 -218 0 +216 0 -214 0 +212 0 +210 0 +208 0 -206 0 -204 0 
-202 0 -200 0 -198 0 -197 0 *
Fa
0  1e-07 1 0

0101000
+225 14 +196 14 *
Ve
1e-07
10 1.56199999999999 11.012
0 0

0101101
*
Ed
 1e-07 1 1 0
1  19 0 0 37.3
2  37 2 0 0 37.3
2  38 5 0 0 37.3
0

0101000
+233 21 -194 21 *
Ve
1e-07
10 1.56199999999999 -8.79299999999999
0 0

0101101
*
Ed
 1e-07 1 1 0
1  20 0 0 19.805
2  39 2 26 0 19.805
2  40 20 27 0 19.805
0

0101000
+194 28 -192 28 *
Ed
 1e-07 1 1 0
1  21 0 -26.2 11.1
2  41 2 0 -26.2 11.1
2  42 3 0 -26.2 11.1
0

0101000
+232 21 -192 21 *
Wi

0101000
+193 0 +191 25 -190 0 -231 29 *
Fa
0  1e-07 2 0

0101000
+189 0 *
Ve
1e-07
-10 1.56199999999999 -8.79299999999999
0 0

0101101
*
Ed
 1e-07 1 1 0
1  22 0 0 20
2  43 3 26 0 20
2  44 20 27 0 20
0

0101000
+187 28 -192 28 *
Ed
 1e-07 1 1 0
1  23 0 -26.2 11.1
2  45 3 0 -26.2 11.1
2  46 4 0 -26.2 11.1
0

0101000
+230 21 -187 21 *
Wi

0101000
+190 0 -186 25 -185 0 -229 29 *
Fa
0  1e-07 3 0

0101000
+184 0 *
Ve
1e-07
-10 1.56199999999999 11.012
0 0

0101101
*
Ed
 1e-07 1 1 0
1  24 0 0 19.805
2  47 4 26 0 19.805
2  48 20 27 0 19.805
0

0101000
+187 28 -182 28 *
Ed
 1e-07 1 1 0
1  25 0 -26.2 11.1
2  49 4 0 -26.2 11.1
2  50 5 0 -26.2 11.1
0

0101000
+228 21 -182 21 *
Wi

0101000
+185 0 +181 25 -180 0 -227 29 *
Fa
0  1e-07 4 0

0101000
+179 0 *
Ed
 1e-07 1 1 0
1  26 0 0 20
2  51 5 26 0 20
2  52 20 27 0 20
0

0101000
+182 28 -194 28 *
Wi

0101000
+180 0 +177 25 -193 0 -226 29 *
Fa
0  1e-07 5 0

0101000
+176 0 *
Ve
1e-07
3.746499999989 20.562 4.857999999978
0 0

0101101
*
Ed
 1e-07 1 1 0
1  27 0 0 18.3
2  53 6 0 0 18.3
2  54 7 0 0 18.3
4 G1 6 0 7 0
0

0101000
+224 31 -174 31 *
Ve
1e-07
6.432499999989 20.562 2.171999999978
0 0

0101101
*
Ed
 1e-07 1 1 0
1  28 0 0 18.3
2  55 6 0 0 18.3
2  56 19 0 0 18.3
4 G1 6 0 19 0
0

0101000
+223 31 -172 31 *
Ed
 1e-07 1 1 0
1  29 0 1.5707963267949 3.14159265358979
2  57 6 35 1.5707963267949 3.14159265358979
2  58 21 15 1.5707963267949 3.14159265358979
0

0101000
+174 36 -172 36 *
Wi

0101100
+173 0 -171 0 -222 32 +170 34 *
Fa
0  1e-07 6 0

0101000
+169 0 *
Ve
1e-07
-3.74650006374662 20.562 4.857999999978
0 0

0101101
*
Ed
 1e-07 1 1 0
1  30 0 0 18.3
2  59 7 0 0 18.3
2  60 8 0 0 18.3
4 G1 7 0 8 0
0

0101000
+221 31 -167 31 *
Ed
 1e-07 1 1 0
1  31 0 0 7.49300006373562
2  61 7 35 0 7.49300006373562
2  62 21 15 0 7.49300006373562
0

0101000
+174 36 -167 36 *
Wi

0101100
+173 0 -166 0 -220 32 +165 34 *
Fa
0  1e-07 7 0

0101000
+164 0 *
Ve
1e-07
-6.432499999989 20.562 2.171999999978
0 0

0101101
*
Ed
 1e-07 1 1 0
1  32 0 0 18.3
2  63 8 0 0 18.3
2  64 9 0 0 18.3
4 G1 8 0 9 0
0

0101000
+219 31 -162 31 *
Ed
 1e-07 1 1 0
1  33 0 0 1.57079630305788
2  65 8 35 0 1.57079630305788
2  66 21 15 0 1.57079630305788
0

0101000
+162 36 -167 36 *
Wi

0101100
+161 0 -166 0 -218 32 +160 34 *
Fa
0  1e-07 8 0

0101000
+159 0 *
Ve
1e-07
-6.432499999989 20.562 -0.367999999999996
0 0

0101101
*
Ed
 1e-07 1 1 0
1  34 0 0 18.3
2  67 9 0 0 18.3
2  68 10 0 0 18.3
4 G1 9 0 10 0
0

0101000
+217 31 -157 31 *
Ed
 1e-07 1 1 0
1  35 0 0 2.539999999978
2  69 9 35 0 2.539999999978
2  70 21 15 0 2.539999999978
0

0101000
+162 36 -157 36 *
Wi

0101100
+161 0 -156 0 -216 32 +155 34 *
Fa
0  1e-07 9 0

0101000
+154 0 *
Ve
1e-07
-5.3625 20.562 -2.51349295034135
0 0

0101101
*
Ed
 1e-07 1 1 0
1  36 0 0 18.3
2  71 10 0 0 18.3
2  72 11 0 0 18.3
0

0101000
+215 31 -152 31 *
Ed
 1e-07 1 1 0
1  37 0 5.35793931987654 6.28318530717959
2  73 10 35 5.35793931987654 6.28318530717959
2  74 21 15 5.35793931987654 6.28318530717959
0

0101000
+152 36 -157 36 *
Wi

0101100
+151 0 -156 0 -214 32 +150 34 *
Fa
0  1e-07 10 0

0101000
+149 0 *
Ve
1e-07
-5.3625 20.562 -4.53947184626852
0 0

0101101
*
Ed
 1e-07 1 1 0
1  38 0 0 18.3
2  75 11 0 0 18.3
2  76 12 0 0 18.3
0

0101000
+213 31 -147 31 *
Ed
 1e-07 1 1 0
1  39 0 0 2.02597889592717
2  77 11 35 0 2.02597889592717
2  78 21 15 0 2.02597889592717
0

0101000
+152 36 -147 36 *
Wi

0101100
+151 0 -146 0 -212 32 +145 34 *
Fa
0  1e-07 11 0

0101000
+144 0 *
Ve
5.8224743616e-05
-6.6865 20.562 -5.86347172340639
0 0

0101101
*
Ed
 5.8224743616e-05 1 1 0
1  40 0 0 18.3
2  79 12 0 0 18.3
2  80 13 37 0 18.3
0

0101000
+211 31 -142 31 *
Ed
 1e-07 1 1 0
1  41 0 0 1.87241866970533
2  81 12 35 0 1.87241866970533
2  82 21 15 0 1.87241866970533
0

0101000
+147 36 -142 36 *
Wi

0101100
+146 0 -141 0 -210 32 +140 34 *
Fa
0  1e-07 12 0

0101000
+139 0 *
Ve
1e-07
5.3625 20.562 -4.53947184626852
0 0

0101101
*
Ed
 1e-07 1 1 0
1  42 0 0 18.3
2  83 16 0 0 18.3
2  84 17 0 0 18.3
0

0101000
+203 31 -137 31 *
Ve
5.8224743626e-05
6.6865 20.562 -5.86347172340639
0 0

0101101
*
Ed
 5.8224743626e-05 1 1 0
1  43 0 0 18.3
2  85 16 0 0 18.3
2  86 15 37 0 18.3
0

0101000
+205 31 -135 31 *
Ed
 1e-07 1 1 0
1  44 0 0 1.87241866970533
2  87 16 35 0 1.87241866970533
2  88 21 15 0 1.87241866970533
0

0101000
+137 36 -135 36 *
Wi

0101100
+136 0 -134 0 -202 32 +133 34 *
Fa
0  1e-07 16 0

0101000
+132 0 *
Ve
1e-07
5.3625 20.562 -2.51349295034135
0 0

0101101
*
Ed
 1e-07 1 1 0
1  45 0 0 18.3
2  89 17 0 0 18.3
2  90 18 0 0 18.3
0

0101000
+201 31 -130 31 *
Ed
 1e-07 1 1 0
1  46 0 0 2.02597889592717
2  91 17 35 0 2.02597889592717
2  92 21 15 0 2.02597889592717
0

0101000
+130 36 -137 36 *
Wi

0101100
+129 0 -136 0 -200 32 +128 34 *
Fa
0  1e-07 17 0

0101000
+127 0 *
Ve
1e-07
6.432499999989 20.562 -0.367999999999996
0 0

0101101
*
Ed
 1e-07 1 1 0
1  47 0 0 18.3
2  93 18 0 0 18.3
2  94 19 0 0 18.3
4 G1 18 0 19 0
0

0101000
+199 31 -125 31 *
Ed
 1e-07 1 1 0
1  48 0 3.14159265358979 4.06683864089284
2  95 18 35 3.14159265358979 4.06683864089284
2  96 21 15 3.14159265358979 4.06683864089284
0

0101000
+125 36 -130 36 *
Wi

0101100
+124 0 -129 0 -198 32 +123 34 *
Fa
0  1e-07 18 0

0101000
+122 0 *
Ed
 1e-07 1 1 0
1  49 0 0 2.539999999978
2  97 19 35 0 2.539999999978
2  98 21 15 0 2.539999999978
0

0101000
+172 36 -125 36 *
Wi

0101100
+171 0 -124 0 -197 32 +120 34 *
Fa
0  1e-07 19 0

0101000
+119 0 *
Wi

0101100
+177 39 +181 39 +191 39 -186 39 *
Ve
1e-07
-5.38303587362914 1.56199999999999 9.912
0 0

0101101
*
Ve
1e-07
5.30112477713235 1.56199999999999 9.912
0 0

0101101
*
Ed
 1e-07 1 1 0
1  50 0 0 10.6841606507615
2  99 20 27 0 10.6841606507615
2  100 22 26 0 10.6841606507615
0

0101000
+116 28 -115 28 *
Ve
1e-07
6.73638796716986 1.56199999999999 8.69460707393186
0 0

0101101
*
Ed
 1e-07 1 1 0
1  51 0 0.14068506734301 1.59400912191811
2  101 20 27 0.14068506734301 1.59400912191811
2  102 23 26 0.14068506734301 1.59400912191811
0

0101000
+113 28 -115 28 *
Ve
1e-07
6.73638796716986 1.56199999999999 6.08055612007463
0 0

0101101
*
Ed
 1e-07 1 1 0
1  52 0 0 2.61405095385723
2  103 20 27 0 2.61405095385723
2  104 24 26 0 2.61405095385723
0

0101000
+111 28 -113 28 *
Ve
1e-07
8.6675 1.56199999999999 2.172
0 0

0101101
*
Ed
 1e-07 1 1 0
1  53 0 0 0.917789547174882
2  105 20 27 0 0.917789547174882
2  106 25 26 0 0.917789547174882
0

0101000
+109 28 -111 28 *
Ve
1e-07
8.6675 1.56199999999999 -2.172
0 0

0101101
*
Ed
 1e-07 1 1 0
1  54 0 0 4.344
2  107 20 27 0 4.344
2  108 26 26 0 4.344
0

0101000
+109 28 -107 28 *
Ve
5.8224743696e-05
6.68649999999995 1.56199999999999 -6.11821856971965
0 0

0101101
*
Ed
 1e-07 1 1 0
1  55 0 5.35269334692538 6.28318530717959
2  109 20 27 5.35269334692538 6.28318530717959
2  110 27 26 5.35269334692538 6.28318530717959
0

0101000
+105 28 -107 28 *
Ve
5.8224743627e-05
6.6865 1.56199999999999 -7.29299999999999
0 0

0101101
*
Ed
 5.8224743626e-05 1 1 0
1  56 0 3.68701753086456 4.86179896114496
2  111 20 38 3.68701753086456 4.86179896114496
2  112 15 0 3.68701753086456 4.86179896114496
0

0101000
+105 40 -103 40 *
Ve
5.8224743627e-05
-6.6865 1.56199999999999 -7.29299999999999
0 0

0101101
*
Ed
 5.8224743626e-05 1 1 0
1  57 0 -3.34318237640078 10.0298176235992
2  113 20 38 -3.34318237640078 10.0298176235992
2  114 14 0 -3.34318237640078 10.0298176235992
0

0101000
+103 40 -101 40 *
Ve
5.8224743744e-05
-6.6864999999999 1.56199999999999 -6.1182185697197
0 0

0101101
*
Ed
 5.8224743616e-05 1 1 0
1  58 0 3.68701753086457 4.86179896114495
2  115 20 38 3.68701753086457 4.86179896114495
2  116 13 0 3.68701753086457 4.86179896114495
0

0101000
+99 40 -101 40 *
Ve
1e-07
-8.6675 1.56199999999999 -2.17199983536108
0 0

0101101
*
Ed
 1e-07 1 1 0
1  59 0 3.1415926201334 4.07208461384402
2  117 20 27 3.1415926201334 4.07208461384402
2  118 28 26 3.1415926201334 4.07208461384402
0

0101000
+97 28 -99 28 *
Ve
1e-07
-8.6675 1.56199999999999 2.172
0 0

0101101
*
Ed
 1e-07 1 1 0
1  60 0 0 4.34399983536108
2  119 20 27 0 4.34399983536108
2  120 29 26 0 4.34399983536108
0

0101000
+95 28 -97 28 *
Ve
1.00007426e-07
-6.74999999999258 1.56199999999999 6.07010578999595
0 0

0101101
*
Ed
 1e-07 1 1 0
1  61 0 2.22729038924901 3.14159265358979
2  121 20 27 2.22729038924901 3.14159265358979
2  122 30 26 2.22729038924901 3.14159265358979
0

0101000
+93 28 -95 28 *
Ve
1e-07
-6.74999999998515 1.56199999999999 8.54503587405791
0 0

0101101
*
Ed
 1e-07 1 1 0
1  62 0 0 2.47493008406196
2  123 20 27 0 2.47493008406196
2  124 31 26 0 2.47493008406196
0

0101000
+91 28 -93 28 *
Ed
 1e-07 1 1 0
1  63 0 1.60541234798828 3.1069766320936
2  125 20 27 1.60541234798828 3.1069766320936
2  126 32 26 1.60541234798828 3.1069766320936
0

0101000
+116 28 -91 28 *
Wi

0101100
-114 39 +112 39 +110 39 +108 39 -106 39 +104 39 -102 0 -100 0 +98 0 +96 39 
+94 39 +92 39 +90 39 +89 39 *
Fa
0  1e-07 20 38

0101000
+117 0 +88 0 *
Ve
5.8224743626e-05
6.68650000000002 20.562 -6.1182185697196
0 0

0101101
*
Ed
 5.8224743626e-05 1 1 0
1  64 0 0 0.254746846313213
2  127 21 15 0 0.254746846313213
2  128 15 43 0 0.254746846313213
0

0101000
+135 36 -86 36 *
Ve
1e-07
8.6675 20.562 -2.17200000000001
0 0

0101101
*
Ed
 1e-07 1 1 0
1  65 0 5.35269334692539 6.28318530717959
2  129 21 47 5.35269334692539 6.28318530717959
2  130 27 48 5.35269334692539 6.28318530717959
0

0101000
+86 49 -84 49 *
Ve
1e-07
8.6675 20.562 2.172
0 0

0101101
*
Ed
 1e-07 1 1 0
1  66 0 0 4.344
2  131 21 47 0 4.344
2  132 26 48 0 4.344
0

0101000
+82 49 -84 49 *
Ve
1e-07
3.7465 20.562 7.093
0 0

0101101
*
Ed
 1e-07 1 1 0
1  67 0 0 1.5707963267949
2  133 21 47 0 1.5707963267949
2  134 25 48 0 1.5707963267949
0

0101000
+82 49 -80 49 *
Ve
1e-07
-3.7465 20.562 7.093
0 0

0101101
*
Ed
 1e-07 1 1 0
1  68 0 0 7.493
2  135 21 47 0 7.493
2  136 33 50 0 7.493
0

0101000
+78 49 -80 49 *
Ve
1e-07
-8.6675 20.562 2.172
0 0

0101101
*
Ed
 1e-07 1 1 0
1  69 0 1.5707963267949 3.14159265358979
2  137 21 47 1.5707963267949 3.14159265358979
2  138 30 48 1.5707963267949 3.14159265358979
0

0101000
+78 49 -76 49 *
Ve
1e-07
-8.6675 20.562 -2.17199983536109
0 0

0101101
*
Ed
 1e-07 1 1 0
1  70 0 0 4.34399983536108
2  139 21 47 0 4.34399983536108
2  140 29 48 0 4.34399983536108
0

0101000
+76 49 -74 49 *
Ve
5.8224743616e-05
-6.6865 20.562 -6.11821856971962
0 0

0101101
*
Ed
 1e-07 1 1 0
1  71 0 3.1415926201334 4.07208461384399
2  141 21 47 3.1415926201334 4.07208461384399
2  142 28 48 3.1415926201334 4.07208461384399
0

0101000
+74 49 -72 49 *
Ed
 5.8224743616e-05 1 1 0
1  72 0 0 0.254746846313233
2  143 21 15 0 0.254746846313233
2  144 13 43 0 0.254746846313233
0

0101000
+142 36 -72 36 *
Wi

0101100
-170 42 -120 42 -123 42 -128 42 -133 42 -85 42 -83 46 +81 46 -79 46 +77 46 
-75 46 -73 46 -71 46 +70 42 +140 42 +145 42 -150 42 +155 42 -160 42 +165 42 
*
Fa
0  1e-07 21 41

0101000
+69 0 *
Ve
1.00000002e-07
-5.38303587362914 12.662 9.912
0 0

0101101
*
Ed
 1e-07 1 1 0
1  73 0 0 11.1
2  145 22 0 0 11.1
2  146 32 0 0 11.1
0

0101000
+67 21 -116 21 *
Ve
1.00000002e-07
5.30112477713235 12.662 9.912
0 0

0101101
*
Ed
 1e-07 1 1 0
1  74 0 0 11.1
2  147 22 0 0 11.1
2  148 23 0 0 11.1
0

0101000
+65 21 -115 21 *
Ed
 1.00000002e-07 1 1 0
1  75 0 0 10.6841606507615
2  149 22 52 0 10.6841606507615
2  150 34 54 0 10.6841606507615
0

0101000
+67 55 -65 55 *
Wi

0101100
+66 0 -64 0 -63 51 +114 25 *
Fa
0  1e-07 22 0

0101000
+62 0 *
Ve
1.00000002e-07
6.73638796716986 12.662 8.69460707393186
0 0

0101101
*
Ed
 1e-07 1 1 0
1  76 0 0 11.1
2  151 23 0 0 11.1
2  152 24 0 0 11.1
0

0101000
+60 21 -113 21 *
Ed
 1.00000002e-07 1 1 0
1  77 0 0.14068506734301 1.59400912191811
2  153 23 52 0.14068506734301 1.59400912191811
2  154 34 54 0.14068506734301 1.59400912191811
0

0101000
+60 55 -65 55 *
Wi

0101100
+59 0 -64 0 -58 51 +112 25 *
Fa
0  1e-07 23 0

0101000
+57 0 *
Ve
1.00000002e-07
6.73638796716986 12.662 6.08055612007463
0 0

0101101
*
Ed
 1e-07 1 1 0
1  78 0 0 11.1
2  155 24 0 0 11.1
2  156 25 0 0 11.1
0

0101000
+55 21 -111 21 *
Ed
 1e-07 1 1 0
1  79 0 0 2.61405095385723
2  157 24 52 0 2.61405095385723
2  158 34 54 0 2.61405095385723
0

0101000
+55 55 -60 55 *
Wi

0101100
+54 0 -59 0 -53 51 +110 25 *
Fa
0  1e-07 24 0

0101000
+52 0 *
Ve
1e-07
3.7465 12.662 7.093
0 0

0101101
*
Ed
 1e-07 1 1 0
1  80 0 0.917789547174882 1.5707963267949
2  159 25 57 0.917789547174882 1.5707963267949
2  160 34 58 0.917789547174882 1.5707963267949
0

0101000
+55 59 -50 59 *
Ed
 1e-07 1 1 0
1  81 0 0 7.9
2  161 25 61 0 7.9
2  162 33 0 0 7.9
0

0101000
+80 62 -50 62 *
Ed
 1e-07 1 1 0
1  82 0 -7.9 11.1
2  163 25 0 -7.9 11.1
2  164 26 0 -7.9 11.1
0

0101000
+82 21 -109 21 *
Wi

0101000
+108 25 -54 0 +49 56 -48 60 -79 63 +47 0 *
Fa
0  1e-07 25 0

0101000
+46 0 *
Ed
 1e-07 1 1 0
1  83 0 0 19
2  165 26 0 0 19
2  166 27 0 0 19
0

0101000
+84 21 -107 21 *
Wi

0101000
+81 63 +44 0 -106 25 -47 0 *
Fa
0  1e-07 26 0

0101000
+43 0 *
Ed
 5.8224743626e-05 1 1 0
1  84 0 0 19
2  167 27 20 0 19
2  168 15 0 0 19
0

0101000
+86 40 -105 40 *
Wi

0101100
+41 0 -83 46 -44 20 +104 39 *
Fa
0  1e-07 27 20

0101000
+40 0 *
Ed
 1e-07 1 1 0
1  85 0 -7.9 11.1
2  169 28 0 -7.9 11.1
2  170 29 0 -7.9 11.1
0

0101000
+74 21 -97 21 *
Ed
 5.8224743616e-05 1 1 0
1  86 0 0 19
2  171 28 20 0 19
2  172 13 0 0 19
0

0101000
+72 40 -99 40 *
Wi

0101100
+38 20 -71 46 -37 0 +96 39 *
Fa
0  1e-07 28 20

0101000
+36 0 *
Ed
 1e-07 1 1 0
1  87 0 0 19
2  173 29 0 0 19
2  174 30 0 0 19
0

0101000
+76 21 -95 21 *
Wi

0101000
+34 0 +94 25 -38 0 -73 63 *
Fa
0  1e-07 29 0

0101000
+33 0 *
Ve
1e-07
-3.7465 12.662 7.093
0 0

0101101
*
Ed
 1e-07 1 1 0
1  88 0 0 7.9
2  175 30 61 0 7.9
2  176 33 0 0 7.9
0

0101000
+78 62 -31 62 *
Ve
1.00007426e-07
-6.74999999999258 12.662 6.07010578999595
0 0

0101101
*
Ed
 1e-07 1 1 0
1  89 0 1.5707963267949 2.22729038924782
2  177 30 57 1.5707963267949 2.22729038924782
2  178 34 58 1.5707963267949 2.22729038924782
0

0101000
+31 59 -29 59 *
Ed
 1.00007426e-07 1 1 0
1  90 0 0 11.1
2  179 30 0 0 11.1
2  180 31 0 0 11.1
0

0101000
+29 21 -93 21 *
Wi

0101000
+92 25 -34 0 -75 63 +30 60 +28 56 +27 0 *
Fa
0  1e-07 30 0

0101000
+26 0 *
Ve
1.00000002e-07
-6.74999999998515 12.662 8.54503587405791
0 0

0101101
*
Ed
 1e-07 1 1 0
1  91 0 0 11.1
2  181 31 0 0 11.1
2  182 32 0 0 11.1
0

0101000
+24 21 -91 21 *
Ed
 1e-07 1 1 0
1  92 0 0 2.47493008406196
2  183 31 52 0 2.47493008406196
2  184 34 54 0 2.47493008406196
0

0101000
+24 55 -29 55 *
Wi

0101100
+23 0 -27 0 -22 51 +90 25 *
Fa
0  1e-07 31 0

0101000
+21 0 *
Ed
 1.00000002e-07 1 1 0
1  93 0 1.60541234798828 3.1069766320936
2  185 32 52 1.60541234798828 3.1069766320936
2  186 34 54 1.60541234798828 3.1069766320936
0

0101000
+67 55 -24 55 *
Wi

0101100
+66 0 -23 0 -19 51 +89 25 *
Fa
0  1e-07 32 0

0101000
+18 0 *
Ed
 1e-07 1 1 0
1  94 0 0 7.493
2  187 33 67 0 7.493
2  188 34 58 0 7.493
0

0101000
+31 59 -50 59 *
Wi

0101100
+30 0 -48 0 -77 65 +16 66 *
Fa
0  1e-07 33 0

0101000
+15 0 *
Wi

0101100
-16 56 +49 56 -53 51 -58 51 +63 51 -19 51 -22 51 +28 56 *
Fa
0  1e-07 34 68

0101000
+13 0 *
Ed
 1e-07 1 1 0
1  95 0 -18.3 19
2  189 13 0 -18.3 19
2  190 14 0 -18.3 19
0

0101000
+209 40 -101 40 *
Wi

0101000
+141 30 +70 42 +37 0 +98 0 -11 0 -208 69 *
Fa
0  5.8224743616e-05 13 0

0101000
+10 0 *
Ed
 1e-07 1 1 0
1  96 0 -18.3 19
2  191 14 0 -18.3 19
2  192 15 0 -18.3 19
0

0101000
+207 40 -103 40 *
Wi

0101000
+206 69 +11 0 -100 0 -8 0 *
Fa
0  5.8224743626e-05 14 0

0101000
+7 0 *
Wi

0101000
-134 30 +204 69 +8 0 -102 0 -41 0 -85 42 *
Fa
0  5.8224743626e-05 15 0

0101000
+5 0 *
Sh

0101000
+195 11 +188 20 +183 20 +178 20 +175 20 -168 30 +163 30 -158 30 +153 30 -148 30 
+143 30 +138 30 -131 30 -126 30 -121 30 -118 30 -87 0 -68 0 -61 20 +56 20 
+51 20 +45 20 +42 20 +39 0 +35 0 +32 20 +25 20 +20 20 +17 20 -14 64 
-12 20 +9 0 +6 0 +4 0 *
So

0100000
+3 0 *
Co

1100000
+2 0 *

+1 3 