DBRep_DrawableShape

CASCADE Topology V1, (c) Matra-Datavision
Locations 71
1
              1               0               0               0 
              0               1               0               0 
              0               0               1               0 
1
              1               0               0              -0 
              0               0               1 -1.25000000000002 
              0              -1               0              40 
2  1 1 2 1 0
1
              1               0               0               0 
              0               0              -1              40 
              0               1               0          -9e-15 
1
              1               0               0               0 
              0               0              -1              40 
              0               1               0          -9e-15 
1
              1               0               0               0 
              0               0              -1              40 
              0               1               0          -9e-15 
1
              1               0               0               0 
              0               0              -1              40 
              0               1               0          -9e-15 
1
              1               0               0               0 
              0               0              -1              40 
              0               1               0          -9e-15 
1
              1               0               0               0 
              0               0              -1              40 
              0               1               0          -9e-15 
1
              1               0               0               0 
              0               0              -1              40 
              0               1               0          -9e-15 
2  4 -1 5 1 6 -1 7 1 8 -1 9 1 10 -1 0
1
              1               0               0               0 
              0               1               0               0 
              0               0               1               0 
1
              1               0               0               0 
              0               0              -1              40 
              0               1               0          -9e-15 
2  12 1 13 1 0
2  13 -1 12 -1 0
2  8 1 7 -1 6 1 5 -1 4 1 13 -1 12 -1 0
2  1 -1 10 1 9 -1 8 1 7 -1 6 1 5 -1 4 1 13 -1 12 -1 0
2  6 1 5 -1 4 1 13 -1 12 -1 0
2  4 1 13 -1 12 -1 0
2  10 1 9 -1 8 1 7 -1 6 1 5 -1 4 1 13 -1 12 -1 0
2  9 1 10 -1 0
2  12 1 13 1 4 -1 5 1 6 -1 7 1 8 -1 0
2  1 -1 10 1 9 -1 0
1
              1               0               0               0 
              0               1               0               0 
              0               0               1               0 
1
              1               0               0               0 
              0               0              -1            11.1 
              0               1               0           3e-15 
1
              1               0               0               0 
              0               1               0           1e-15 
              0               0               1              12 
2  24 1 25 1 8 -1 26 1 0
2  26 -1 8 1 25 -1 24 -1 0
2  25 -1 24 -1 0
2  1 -1 10 1 9 -1 26 -1 8 1 25 -1 24 -1 0
2  7 1 8 -1 0
2  8 1 7 -1 0
2  1 -1 10 1 9 -1 8 1 7 -1 0
2  24 1 25 1 8 -1 0
2  8 1 25 -1 24 -1 0
2  1 -1 10 1 9 -1 8 1 25 -1 24 -1 0
1
              1               0               0               0 
              0               1               0               0 
              0               0               1               0 
1
              1               0               0               0 
              0               0              -1              19 
              0               1               0          -7e-15 
1
              1               0               0               0 
              0               1               0           1e-15 
              0               0               1             7.9 
2  37 1 38 1 6 -1 39 1 7 1 8 -1 0
2  39 -1 6 1 38 -1 37 -1 0
2  7 -1 39 -1 6 1 38 -1 37 -1 0
2  1 -1 10 1 9 -1 8 1 7 -1 39 -1 6 1 38 -1 37 -1 0
2  5 1 6 -1 7 1 8 -1 9 1 10 -1 0
2  1 -1 10 1 9 -1 8 1 7 -1 6 1 5 -1 0
2  12 1 13 1 4 -1 0
1
              1               0               0               0 
              0               1               0           2e-15 
              0               0               1              21 
2  12 1 13 1 4 -1 47 1 0
2  47 -1 4 1 13 -1 12 -1 0
2  1 -1 10 1 9 -1 8 1 7 -1 6 1 5 -1 47 -1 4 1 13 -1 12 -1 0
2  10 1 9 -1 8 1 7 -1 6 1 5 -1 0
2  8 -1 26 1 9 1 10 -1 0
2  24 1 25 1 8 -1 26 1 9 1 10 -1 0
2  1 -1 0
2  8 -1 0
2  4 -1 47 1 5 1 6 -1 7 1 8 -1 9 1 10 -1 0
2  12 1 13 1 4 -1 47 1 5 1 6 -1 7 1 8 -1 9 1 10 -1 0
2  10 1 9 -1 8 1 7 -1 6 1 5 -1 47 -1 4 1 13 -1 12 -1 0
2  37 1 38 1 6 -1 7 1 8 -1 9 1 10 -1 0
2  4 -1 47 1 5 1 38 -1 37 -1 0
2  6 1 38 -1 37 -1 0
2  1 -1 10 1 9 -1 8 1 7 -1 6 1 38 -1 37 -1 0
2  6 -1 39 1 7 1 25 -1 24 -1 0
2  24 1 25 1 8 -1 9 1 10 -1 0
2  7 1 8 -1 9 1 10 -1 0
2  37 1 38 1 6 -1 39 1 7 1 8 -1 9 1 10 -1 0
2  38 -1 37 -1 0
2  37 1 38 1 6 -1 0
2  37 1 38 1 6 -1 39 1 0
2  6 -1 39 1 7 1 8 -1 9 1 10 -1 0
2  12 1 13 1 4 -1 5 1 6 -1 7 1 8 -1 9 1 10 -1 0
Curve2ds 300
1 11.871626718220824 11.5 0 -1 
1 -20.449999999999989 11.5 0 -1 
1 11.871626718220824 -11.5 -1 0 
1 20.457005008012814 -10.742994991987185 0 1 
1 -9.5981232817791735 -11.5 0 1 
1 14.449999999999996 -11.5 0 1 
1 -9.5981232817791735 11.5 1 0 
1 -20.457005008012814 10.726755008012811 0 -1 
1 6.5913857388175998 3.5550000000000024 0 -1 
1 0 0 1 0 
2 2.3263857388175992 -3.5549999999999962 0 1 1 -0 4.2650000000000006
1 0 0 1 0 
1 2.3263857388175992 -7.8200000000000003 -1 0 
1 -4.4408920985006262e-15 -1.4654943925052066e-30 1 1.0999999999999999e-16 
2 -2.6236142611824036 -3.5550000000000006 0 1 1 -0 4.2649999999999997
1 0 0 1 0 
1 -6.3581323023759424 -5.6149999999999984 0 1 
1 0 0 1 0 
1 -6.3581323023759424 -4.9649999999999999 -1 0 
1 -4.4408920985006262e-15 -1.4654943925052066e-30 1 1.0999999999999999e-16 
1 -6.6581323023759396 -4.9649999999999999 -0.70942135101766457 -0.70478461016133964 
1 1.3477359179370603 -14.180607719314079 -1 -6.7946808437981681e-31 
1 -8.1881323023759407 -6.4850000000000003 -1 0 
1 -20.422019574454598 -0.35798042554541093 0 1 
1 -8.8481323023759444 6.4850000000000003 0 -1 
1 -21.967292721521574 6.4849983720921305 0 -1 
1 -8.1881323023759407 6.4850000000000003 -1 0 
1 20.422019574454591 -0.35798042554540915 0 1 
1 -6.6581323023759396 4.9649999999999999 -0.70942135101766457 0.70478461016133964 
1 -1.3477378000340035 -14.18060583721714 1 1.4791141972893971e-31 
1 -6.3581323023759424 4.9649999999999999 -1 0 
1 -4.4408920985006262e-15 -1.4654943925052066e-30 1 1.0999999999999999e-16 
1 -6.3581323023759424 5.615000000000002 0 -1 
1 0 0 1 0 
2 -2.6236142611824036 3.5550000000000024 0 1 1 -0 4.2649999999999997
1 0 0 1 0 
1 2.3263857388175992 7.8200000000000021 -1 0 
1 -4.4408920985006262e-15 -1.4654943925052066e-30 1 1.0999999999999999e-16 
2 2.3263857388175992 3.5550000000000024 0 1 1 -0 4.2649999999999997
1 0 0 1 0 
1 -20.449999999999996 -11.5 1 0 
1 20.457005008012821 -10.742994991987173 -1 -3.4e-16 
1 20.449999999999985 11.5 0 -1 
1 10.751032513256881 11.5 0 -1 
1 8.4499999999999922 11.5 1 0 
1 8.4429949919871721 -10.742994991987185 1 -1.0999999999999999e-16 
1 20.457005008012814 10.726755008012821 -1 -2.2e-16 
1 14.449999999999989 -11.5 -1 0 
1 -8.4429949919871579 -10.742994991987183 0 1 
1 10.751032513256888 -11.5 -1 0 
1 -8.4429949919871685 10.757005008012817 -1 -1.0999999999999999e-16 
1 0 0 0 -1 
1 -20.44299499198716 -10.74299499198718 0 1 
1 10.751032513256881 -11.5 -1 0 
1 -6.5499999999999936 11.5 -1 0 
1 0.54299499198717649 10.726755008012816 1 -1.0999999999999999e-16 
1 -14.449999999999985 -11.5 0 1 
1 -10.71871748674311 -11.5 0 1 
1 20.442994991987167 10.757005008012818 0 -1 
1 -10.748967486743119 11.5 1 0 
1 8.4429949919871756 10.757005008012815 1 -1.0999999999999999e-16 
1 23 0 0 -1 
1 8.4429949919871667 10.757005008012815 0 -1 
1 -10.748967486743112 11.5 1 0 
1 0 0 0 -1 
1 1.5707963267948966 0 0 -1 
1 7.1099999999999977 0 0 -1 
1 1.5707963267948966 0 0 -1 
1 0 -20.999999999999996 1 0 
1 6.5913857388175856 3.5550000000000024 0 -1 
1 3.1415926535897931 0 0 -1 
1 0 0 0 -1 
1 0 -21 1 0 
2 2.326385738817585 -3.5549999999999962 0 1 1 -0 4.2650000000000006
1 4.9500000000000037 1.6335000000000012e-15 0 -1 
1 3.1415926535897931 0 0 -1 
1 -2.8399626167013789e-15 -20.999999999999996 1 1.0999999999999999e-16 
1 2.326385738817585 -7.8200000000000003 -1 0 
1 4.2083100114728262 0 0 -1 
1 0 0 0 -1 
1 0 -21 1 0 
2 -2.6236142611824178 -3.5550000000000006 0 1 1 -0 4.2649999999999997
1 0.64999999999999858 0 0 -1 
1 0 0 0 -1 
1 0 -20.999999999999996 1 0 
1 -6.3581323023759566 -5.6149999999999984 0 1 
1 0.29999999999999982 9.8999999999999932e-17 0 -1 
1 1.3477359179370572 -14.180607719314079 7.4109045835830309e-17 1 
1 -3.7281410364015042e-15 -20.999999999999996 1 1.0999999999999999e-16 
1 -6.3581323023759566 -4.9649999999999999 -1 0 
1 0 0 0 -1 
1 0.65000000000000213 0 0 -1 
1 0.29999999999999982 9.8999999999999932e-17 0 -1 
1 -1.3477378000340003 -14.18060583721714 -7.4109045835829446e-17 1 
1 -3.7281410364015042e-15 -20.999999999999996 1 1.0999999999999999e-16 
1 -6.3581323023759566 4.9649999999999999 -1 0 
1 0 0 0 -1 
1 5.216467949296554 0 0 -1 
1 0 -20.999999999999996 1 0 
1 -6.3581323023759566 5.615000000000002 0 -1 
1 6.2831853071795862 0 0 -1 
1 4.9500000000000055 1.6335000000000018e-15 0 -1 
1 0 -21 1 0 
2 -2.6236142611824178 3.5550000000000024 0 1 1 -0 4.2649999999999997
1 0 0 0 -1 
1 0 0 0 -1 
1 -2.8399626167013789e-15 -20.999999999999996 1 1.0999999999999999e-16 
1 2.326385738817585 7.8200000000000021 -1 0 
1 0 -21 1 0 
2 2.326385738817585 3.5550000000000024 0 1 1 -0 4.2649999999999997
1 -10.748967486743119 -11.5 0 1 
1 0 -11.999999999999991 1 0 
1 7.1010325132568823 -6.4999999999999991 1 0 
1 -3.9599999999999981e-15 -11.999999999999995 1 -1.0999999999999999e-16 
2 9.1010325132568823 -5.3499999999999996 0 1 1 -0 1.1499999999999995
1 0 -12 1 0 
1 10.251032513256881 -5.3499999999999996 0 1 
1 0 -11.999999999999993 1 0 
2 9.1010325132568823 5.3499999999999996 0 1 1 -0 1.1500000000000004
1 0 -12 1 0 
1 7.1010325132568823 6.5 1 0 
1 -3.9599999999999981e-15 -11.999999999999995 1 -1.0999999999999999e-16 
2 1.3031832995946147 3.4478492136622623 0 1 1 -0 6.5521507863377373
1 0 -12 1 0 
1 1.3031832995946147 10 -1 0 
1 3.5159107901499347e-15 -11.999999999999993 1 1.0999999999999999e-16 
2 -3.6968167004053925 3.4478492136622636 0 1 1 -0 6.5521507863377364
1 0 -12 1 0 
1 -4.654363253669942 6.4850000000000003 -1 0 
1 -20.4779804255454 -5.0123436792153493 -2.2999999999999999e-16 1 
1 -9.9687265073398876 3.2425000000000002 0 -1 
1 18.932707278478418 3.2424983720921303 0 -1 
2 -3.6968167004053925 3.4478492136622636 0 1 1 -0 6.5521507863377364
1 0 -12 1 0 
1 -10.248967486743126 -3.4478492136622636 0 1 
1 0 -11.999999999999991 1 0 
2 -3.6968167004053925 -3.4478492136622623 0 1 1 -0 6.5521507863377364
1 0 -12 1 0 
1 -9.9687265073398876 -2.0820338157860871 0 -1 
1 18.932707278478418 -2.082035443693957 0 -1 
1 -4.654363253669942 -6.4850000000000003 -1 0 
1 20.477980425545393 -5.0123436792153511 2.2999999999999999e-16 1 
2 -3.6968167004053925 -3.4478492136622623 0 1 1 -0 6.5521507863377364
1 0 -12 1 0 
1 1.3031832995946218 -9.9999999999999982 -1 0 
1 -2.7013381477509419e-15 -11.999999999999993 1 1.0999999999999999e-16 
2 1.3031832995946147 -3.4478492136622623 0 1 1 -0 6.5521507863377364
1 0 -12 1 0 
1 -10.748967486743112 -11.5 0 1 
1 0 8.8817841970012523e-15 1 0 
1 -6.6581323023759538 4.9649999999999999 -0.70942135101766457 0.70478461016133964 
1 -1.3477378000340041 6.8193941627828565 1 1.4791141972893971e-31 
2 -2.6283732817791972 3.5500152013624784 0 1 1 -0 6.2499999999999982
1 0 0 1 0 
1 2.3716267182208099 9.8000152013624771 -1 0 
1 -8.881784197001276e-16 7.1054273576010019e-15 1 1.0999999999999999e-16 
2 2.3716267182208099 3.5500152013624784 0 1 1 -0 6.25
1 0 0 1 0 
1 8.6216267182208099 -3.5499847986375239 0 1 
1 0 7.1054273576010019e-15 1 0 
2 2.3716267182208099 -3.5499847986375239 0 1 1 -0 6.2499999999999991
1 0 0 1 0 
1 2.3716267182208099 -9.7999847986375244 -1 -2.4899999999999998e-15 
1 -8.881784197001276e-16 7.1054273576010019e-15 1 1.0999999999999999e-16 
2 -2.6283732817791829 -3.5499847986375395 0 1 1 -0 6.2499999999999991
1 0 0 1 0 
1 -6.6581323023759538 -4.9649999999999999 -0.70942135101766457 -0.70478461016133964 
1 1.3477359179370607 6.8193922806859177 -1 -6.7946808437981681e-31 
1 0 0 0 -1 
1 2.0553622054140752 0 0 -1 
1 2 -6.5999999999999998e-16 0 -1 
1 3.141592653589794 0 0 -1 
1 1.7585932710062478e-30 5.3290705182007514e-15 1 -1.0999999999999999e-16 
1 7.6095560811167005 -6.5000062262721316 1 0 
1 1.5707963267948966 0 0 -1 
1 0 0 0 -1 
1 0 0 1 0 
2 9.6095560811167005 -5.3500062262721322 0 1 1 -0 1.1499999999999995
1 10.699999999999999 0 0 -1 
1 1.5707963267948972 0 0 -1 
1 0 5.3290705182007514e-15 1 0 
1 10.759556081116699 -5.3500062262721322 0 1 
1 4.1000000000000001e-16 0 0 -1 
1 2 -6.5999999999999998e-16 0 -1 
1 0 0 1 0 
2 9.6095560811167005 5.3499937737278671 0 1 1 -0 1.1500000000000004
1 0 0 0 -1 
1 1.0862304481757179 0 0 -1 
1 1.7585932710062478e-30 5.3290705182007514e-15 1 -1.0999999999999999e-16 
1 7.6095560811167005 6.4999937737278675 1 0 
1 0 0 0 -1 
1 0 0 0 -1 
1 0 0 1 0 
2 1.8117068674544328 3.4478429873901293 0 1 1 -0 6.5521507863377373
1 5.0000000000000124 1.6500000000000041e-15 0 -1 
1 6.2831853071795862 0 0 -1 
1 -4.4408920985006498e-16 7.1054273576010019e-15 1 1.0999999999999999e-16 
1 1.8117068674544328 9.9999937737278675 -1 0 
1 0 0 1 0 
2 -3.1882931325455743 3.4478429873901306 0 1 1 -0 6.5521507863377364
1 5.1943694492526786 1.2900000000000001e-15 0 1 
1 -8.4779804255453968 -0.16416934460091773 1 2.2e-16 
1 0 0 1 0 
2 -3.1882931325455743 3.4478429873901306 0 1 1 -0 6.5521507863377364
1 5.0059166781996165 -2.16e-15 0 1 
1 6.9327072784784178 5.3435868348562154 -1 0 
1 4.7123889803846897 0 0 -1 
1 6.8956984273245254 0 0 -1 
1 0 0 0 -1 
1 4.7123889803846897 0 0 -1 
1 0 8.8817841970012523e-15 1 0 
1 -9.7404439188833152 -3.4478554399343966 0 1 
1 0 0 1 0 
2 -3.1882931325455743 -3.4478554399343952 0 1 1 -0 6.5521507863377364
1 4.4188612825697628 -2.16e-15 0 1 
1 6.9327072784784178 -5.3435900906719542 -1 0 
1 0 0 1 0 
2 -3.1882931325455743 -3.4478554399343952 0 1 1 -0 6.5521507863377364
1 4.2304085115166998 1.2900000000000001e-15 0 1 
1 8.4779804255453897 -0.16416934460092128 -1 2.2e-16 
1 3.1415926535897931 0 0 -1 
1 5.0000000000000124 1.6500000000000041e-15 0 -1 
1 0 0 0 -1 
1 3.1415926535897931 0 0 -1 
1 4.4408920985006025e-16 7.1054273576010019e-15 1 1.0999999999999999e-16 
1 1.8117068674544328 -10.000006226272131 -1 0 
1 0 0 1 0 
2 1.8117068674544328 -3.4478554399343952 0 1 1 -0 6.5521507863377364
1 6.2831853071795862 0 0 -1 
1 5.0000000000000107 1.6500000000000035e-15 0 -1 
1 0 -7.9000000000000004 1 0 
2 -3.2404439188833152 3.5500089750903454 0 1 1 -0 6.2499999999999982
1 5.1963016136487852 -8.8200000000000005e-15 0 -1 
1 0.77036100176946221 6.81939416278286 -2.9402966465130556e-16 1 
1 0 0 0 -1 
1 1.0000000000000001e-17 0 0 -1 
1 1.7188215802998724e-15 -7.8999999999999932 1 1.0999999999999999e-16 
1 1.7595560811166919 9.8000089750903445 -1 0 
1 1.5707963267948966 0 0 -1 
1 7.1000000000000032 0 0 -1 
1 0 -7.9000000000000004 1 0 
2 1.7595560811166919 3.5500089750903454 0 1 1 -0 6.25
1 4.4408920985006262e-16 0 0 -1 
1 1.5707963267948966 0 0 -1 
1 0 -7.899999999999995 1 0 
1 8.0095560811166919 -3.5499910249096569 0 1 
1 3.1415926535897931 0 0 -1 
1 -4.4408920985006262e-16 -1.4654943925052066e-31 0 -1 
1 0 -7.9000000000000004 1 0 
2 1.7595560811166919 -3.5499910249096569 0 1 1 -0 6.2499999999999991
1 4.9999999999999947 1.6499999999999982e-15 0 -1 
1 3.1415926535897931 0 0 -1 
1 1.7188215802998724e-15 -7.8999999999999932 1 1.0999999999999999e-16 
1 1.7595560811166919 -9.7999910249096569 -1 -2.4899999999999998e-15 
1 4.228472736847892 -8.8200000000000005e-15 0 -1 
1 -0.77034808596864468 6.8193922806859213 2.9402966465130739e-16 1 
1 0 -7.9000000000000004 1 0 
2 -3.240443918883301 -3.5499910249096724 0 1 1 -0 6.2499999999999991
1 -4.4001014697400365 -6.4850062262721329 -1 0 
1 8.4779804255453879 -4.7580818952854429 4.2000000000000002e-16 1 
1 -4.9508161046171821 -2.6607787824867772 -0.70942135101766457 -0.70478461016133964 
1 4.6171425005493951 14.719392280685906 -1 2.8999999999999929e-16 
1 -4.9508244666586307 2.6607746373300922 -0.70942135101766457 0.70478461016133964 
1 -4.6171325955166811 14.719394162782846 1 2.9000000000000023e-16 
1 -4.4001014697400365 6.4849937737278678 -1 0 
1 -8.477980425545395 -4.7580818952854411 -4.2000000000000002e-16 1 
1 -9.4602029394800766 3.2424968868639334 0 -1 
1 6.9327072784784178 3.2425014852281966 0 -1 
2 -3.2404439188833152 3.5500089750903454 0 1 1 -0 6.2499999999999982
1 0 -7.9000000000000004 1 0 
1 -9.4904439188833081 -3.5499910249096613 1.0414e-11 1 
1 1.8498980125514208e-26 -7.8999999999999915 1 0 
2 -3.240443918883301 -3.5499910249096724 0 1 1 -0 6.2499999999999991
1 0 -7.9000000000000004 1 0 
1 -9.4602029394800766 -2.0820369289221539 0 -1 
1 6.9327072784784178 -2.0820323305578907 0 -1 
1 -8.8481323023759515 6.4850000000000003 0 -1 
1 -0.96729272152157364 6.4849983720921305 0 -1 
2 -2.6283732817791829 -3.5499847986375395 0 1 1 -0 6.2499999999999991
1 0 0 1 0 
1 -8.8783732817791972 -3.5499847986375284 1.0414e-11 1 
1 0 7.1054273576010019e-15 1 0 
2 -2.6283732817791972 3.5500152013624784 0 1 1 -0 6.2499999999999982
1 0 0 1 0 
1 4.8108010089732405 -8.5899999999999996e-15 0 -1 
1 -0.96729272152157364 4.164096406389258 1 0 
1 4.7123841159486979 0 0 -1 
1 7.0999695972750576 2.0799327191566767e-33 3.4366199999999997e-27 -1 
1 4.7123889803846897 0 0 -1 
1 -6.2172489379008766e-15 -2.1366322044968908e-41 3.4366199999999997e-27 -1 
1 4.6139769517961415 -8.5899999999999996e-15 0 -1 
1 -0.96729272152157364 -4.1640692594800441 1 0 
1 -0.80895135656520878 6.819392280685932 2.9402966465130739e-16 1 
1 0.57798042554541251 -0.35798042554540455 1 -4.2000000000000002e-16 
1 0.57798042554541229 0.3020195744545956 1 -4.2000000000000002e-16 
1 -0.96729272152156298 -6.4850016279078702 1 0 
1 -0.96729272152156298 6.4849983720921305 1 0 
1 -0.5779804255454194 0.30201957445459737 -1 -4.2000000000000002e-16 
1 -0.57798042554541962 -0.35798042554540277 -1 -4.2000000000000002e-16 
1 0.80894947446826471 6.8193941627828707 -2.9402966465130556e-16 1 
Curves 150
1 11.5 40 12.000000000000009 -1 0 0 
1 -11.5 40 12.000000000000009 0 -2.2e-16 -1 
1 -11.5 40 -9.4697499999999888 1 0 0 
1 11.5 40 -9.4697499999999888 0 2.2e-16 1 
1 3.5550000000000024 40 6.7197590205967801 -1 0 0 
2 -3.5549999999999962 40 2.4547590205967804 0 -1 2.2e-16 1 0 0 -0 2.2e-16 1 4.2650000000000006
1 -7.8200000000000003 40 2.4547590205967804 0 -2.2e-16 -1 
2 -3.5550000000000006 40 -2.4952409794032242 0 -1 2.2e-16 1 0 0 -0 2.2e-16 1 4.2649999999999997
1 -5.6149999999999984 40 -6.2297590205967586 1 0 0 
1 -4.9649999999999999 40 -6.2297590205967586 0 -2.2e-16 -1 
1 -4.9649999999999999 40 -6.5297590205967584 -0.70478461016133964 -1.6000000000000001e-16 -0.70942135101766457 
1 -6.4850000000000003 40 -8.0597590205967595 0 -2.2e-16 -1 
1 6.4850000000000003 40 -8.7197590205967597 -1 0 0 
1 6.4850000000000003 40 -8.0597590205967595 0 -2.2e-16 -1 
1 4.9649999999999999 40 -6.5297590205967584 0.70478461016133964 -1.6000000000000001e-16 -0.70942135101766457 
1 4.9649999999999999 40 -6.2297590205967586 0 -2.2e-16 -1 
1 5.615000000000002 40 -6.2297590205967586 -1 0 0 
2 3.5550000000000024 40 -2.4952409794032242 0 -1 2.2e-16 1 0 0 -0 2.2e-16 1 4.2649999999999997
1 7.8200000000000021 40 2.4547590205967804 0 -2.2e-16 -1 
2 3.5550000000000024 40 2.4547590205967804 0 -1 2.2e-16 1 0 0 -0 2.2e-16 1 4.2649999999999997
1 -11.5 40.000000000000007 11.999999999999996 0 -1 5.6000000000000003e-16 
1 11.5 -0.89999999999998737 -28.89999999999997 -1 0 0 
1 11.5 11.100000000000019 12.000000000000014 0 -1 3.2999999999999999e-16 
1 -11.5 39.999999999999993 -9.4697499999999977 0 -1 4.4e-16 
1 -11.5 11.100000000000014 -16.89999999999997 0 -2.2e-16 -1 
1 -11.5 11.100000000000012 -9.4999999999999858 0 -1 3.2999999999999999e-16 
1 -11.5 -0.89999999999998737 -28.89999999999997 0 -2.2e-16 -1 
1 11.5 19.000000000000011 -9.4697499999999888 0 -1 3.2999999999999999e-16 
1 -11.5 11.100000000000016 -38.369749999999968 1 0 0 
1 11.5 -0.89999999999999214 -50.39999999999997 0 2.2e-16 1 
1 11.5 11.100000000000012 -9.4999999999999858 0 -1 3.2999999999999999e-16 
1 11.5 11.100000000000009 -38.39999999999997 0 2.2e-16 1 
1 3.5550000000000024 40 6.7197590205967757 0 -1 3.2999999999999999e-16 
1 -3.5549999999999957 40 6.7197590205967757 0 -1 3.2999999999999999e-16 
1 3.5550000000000024 19 -14.280240979403214 -1 0 0 
1 -7.8199999999999985 40 2.454759020596776 0 -1 3.2999999999999999e-16 
2 -3.5549999999999962 19 -18.545240979403214 0 -1 2.2e-16 1 0 0 -0 2.2e-16 1 4.2650000000000006
1 -7.8200000000000003 40 -2.4952409794032278 0 -1 3.2999999999999999e-16 
1 -7.8200000000000003 19 -18.545240979403214 0 -2.2e-16 -1 
1 -5.6149999999999984 40 -6.2297590205967639 0 -1 3.2999999999999999e-16 
2 -3.5550000000000006 19 -23.495240979403221 0 -1 2.2e-16 1 0 0 -0 2.2e-16 1 4.2649999999999997
1 -4.9649999999999999 40 -6.229759020596763 0 -1 3.2999999999999999e-16 
1 -5.6149999999999984 19 -27.229759020596752 1 0 0 
1 -4.9649999999999999 40 -6.5297590205967628 0 -1 3.2999999999999999e-16 
1 -4.9649999999999999 19 -27.229759020596752 0 -2.2e-16 -1 
1 4.9649999999999999 40 -6.229759020596763 0 -1 3.2999999999999999e-16 
1 4.9649999999999999 40 -6.5297590205967628 0 -1 3.2999999999999999e-16 
1 4.9649999999999999 19 -27.229759020596752 0 -2.2e-16 -1 
1 5.615000000000002 40 -6.2297590205967639 0 -1 3.2999999999999999e-16 
1 5.615000000000002 19 -27.229759020596752 -1 0 0 
1 7.8200000000000021 40 -2.4952409794032295 0 -1 3.2999999999999999e-16 
2 3.5550000000000024 19 -23.495240979403221 0 -1 2.2e-16 1 0 0 -0 2.2e-16 1 4.2649999999999997
1 7.8200000000000021 40 2.454759020596776 0 -1 3.2999999999999999e-16 
1 7.8200000000000021 19 -18.545240979403214 0 -2.2e-16 -1 
2 3.5550000000000024 19 -18.545240979403214 0 -1 2.2e-16 1 0 0 -0 2.2e-16 1 4.2649999999999997
1 -11.5 -0.89999999999999214 -50.39999999999997 1 0 0 
1 -6.4999999999999991 -0.89999999999998814 -32.549999999999969 0 2.2e-16 1 
2 -5.3499999999999996 -0.8999999999999877 -30.549999999999969 0 -1 2.2e-16 1 0 0 -0 2.2e-16 1 1.1499999999999997
1 -5.3499999999999996 -0.89999999999998748 -29.399999999999967 1 0 0 
2 5.3499999999999996 -0.8999999999999877 -30.549999999999969 0 -1 2.2e-16 1 0 0 -0 2.2e-16 1 1.1499999999999999
1 6.5 -0.89999999999998814 -32.549999999999969 0 2.2e-16 1 
2 3.4478492136622623 -0.89999999999998948 -38.347849213662236 0 -1 2.2e-16 1 0 0 -0 2.2e-16 1 6.5521507863377373
1 10 -0.89999999999998948 -38.347849213662236 0 -2.2e-16 -1 
2 3.4478492136622636 -0.89999999999999059 -43.347849213662244 0 -1 2.2e-16 1 0 0 -0 2.2e-16 1 6.5521507863377364
1 6.4850000000000003 -0.89999999999999147 -3.4053957669268105 0 -4.5000000000000002e-16 -1 
1 3.2425000000000002 -0.89999999999999147 -8.7197590205967508 -1 -0 0 
2 3.4478492136622636 -0.89999999999999059 -43.347849213662244 0 -1 2.2e-16 1 0 0 -0 2.2e-16 1 6.5521507863377364
1 -3.4478492136622636 -0.89999999999999203 -49.899999999999977 1 0 0 
2 -3.4478492136622623 -0.89999999999999059 -43.347849213662244 0 -1 2.2e-16 1 0 0 -0 2.2e-16 1 6.5521507863377364
1 -2.0820338157860871 -0.89999999999999147 -8.7197590205967508 -1 -0 0 
1 -6.4850000000000003 -0.89999999999999147 -3.4053957669268105 0 -4.5000000000000002e-16 -1 
2 -3.4478492136622623 -0.89999999999999059 -43.347849213662244 0 -1 2.2e-16 1 0 0 -0 2.2e-16 1 6.5521507863377364
1 -9.9999999999999982 -0.89999999999998948 -38.347849213662229 0 -2.2e-16 -1 
2 -3.4478492136622623 -0.89999999999998948 -38.347849213662236 0 -1 2.2e-16 1 0 0 -0 2.2e-16 1 6.5521507863377364
1 -11.5 11.100000000000009 -38.39999999999997 1 0 0 
1 4.9649999999999999 19 -27.529759020596753 0.70478461016133964 -1.6000000000000001e-16 -0.70942135101766457 
2 3.5500152013624784 19.000000000000018 -23.499999999999986 0 -1 2.2e-16 1 0 0 -0 2.2e-16 1 6.2499999999999991
1 9.8000152013624771 19.000000000000018 -18.499999999999979 0 -2.2e-16 -1 
2 3.5500152013624784 19.000000000000018 -18.499999999999979 0 -1 2.2e-16 1 0 0 -0 2.2e-16 1 6.25
1 -3.5499847986375239 19.000000000000021 -12.249999999999979 1 0 0 
2 -3.5499847986375239 19.000000000000018 -18.499999999999979 0 -1 2.2e-16 1 0 0 -0 2.2e-16 1 6.2499999999999991
1 -9.7999847986375244 19.000000000000018 -18.499999999999979 -2.4899999999999998e-15 -2.2e-16 -1 
2 -3.5499847986375395 19.000000000000018 -23.499999999999972 0 -1 2.2e-16 1 0 0 -0 2.2e-16 1 6.2499999999999991
1 -4.9649999999999999 19 -27.529759020596753 -0.70478461016133964 -1.6000000000000001e-16 -0.70942135101766457 
1 -6.4999999999999982 11.100000000000019 8.3500000000000156 0 -1 3.2999999999999999e-16 
1 -6.4999999999999991 11.100000000000019 10.350000000000016 0 -1 3.2999999999999999e-16 
1 -6.4999999999999991 11.100000000000012 -20.549999999999969 0 2.2e-16 1 
1 -5.3499999999999996 11.100000000000019 11.500000000000014 0 -1 3.2999999999999999e-16 
2 -5.3499999999999996 11.100000000000012 -18.549999999999969 0 -1 2.2e-16 1 0 0 -0 2.2e-16 1 1.1499999999999997
1 5.3499999999999996 11.100000000000019 11.500000000000014 0 -1 3.2999999999999999e-16 
1 -5.3499999999999996 11.100000000000012 -17.39999999999997 1 0 0 
1 6.5 11.100000000000019 10.350000000000016 0 -1 3.2999999999999999e-16 
2 5.3499999999999996 11.100000000000012 -18.549999999999969 0 -1 2.2e-16 1 0 0 -0 2.2e-16 1 1.1499999999999999
1 6.5 11.100000000000019 8.3500000000000156 0 -1 3.2999999999999999e-16 
1 6.5 11.100000000000012 -20.549999999999969 0 2.2e-16 1 
1 10 11.100000000000016 2.5521507863377475 0 -1 3.2999999999999999e-16 
2 3.4478492136622623 11.10000000000001 -26.347849213662236 0 -1 2.2e-16 1 0 0 -0 2.2e-16 1 6.5521507863377373
1 10 11.100000000000016 -2.4478492136622649 0 -1 3.2999999999999999e-16 
1 10 11.10000000000001 -26.347849213662236 0 -2.2e-16 -1 
2 3.4478492136622636 11.10000000000001 -31.347849213662247 0 -1 2.2e-16 1 0 0 -0 2.2e-16 1 6.5521507863377364
1 6.4850000000000003 11.100000000000012 -8.2535701015412446 0 1 -4.4e-16 
2 3.4478492136622636 11.10000000000001 -31.347849213662247 0 -1 2.2e-16 1 0 0 -0 2.2e-16 1 6.5521507863377364
1 5.3435884627640853 11.100000000000009 -8.7197590205967579 0 1 -4.4e-16 
1 3.4478492136622618 11.100000000000012 -9 0 -1 3.2999999999999999e-16 
1 -3.4478492136622636 11.100000000000012 -9 0 -1 3.2999999999999999e-16 
1 -3.4478492136622636 11.100000000000009 -37.899999999999984 1 0 0 
2 -3.4478492136622623 11.10000000000001 -31.347849213662247 0 -1 2.2e-16 1 0 0 -0 2.2e-16 1 6.5521507863377364
1 -5.3435884627640844 11.100000000000009 -8.7197590205967579 0 1 -4.4e-16 
2 -3.4478492136622623 11.10000000000001 -31.347849213662247 0 -1 2.2e-16 1 0 0 -0 2.2e-16 1 6.5521507863377364
1 -6.4850000000000003 11.100000000000012 -8.2535701015412428 0 1 -4.4e-16 
1 -9.9999999999999982 11.100000000000016 -2.4478492136622636 0 -1 3.2999999999999999e-16 
1 -9.9999999999999982 11.100000000000016 2.5521507863377484 0 -1 3.2999999999999999e-16 
1 -9.9999999999999982 11.10000000000001 -26.347849213662236 0 -2.2e-16 -1 
2 -3.4478492136622623 11.10000000000001 -26.347849213662236 0 -1 2.2e-16 1 0 0 -0 2.2e-16 1 6.5521507863377364
1 9.8000152013624771 19.000000000000014 -2.5000000000000044 0 -1 3.2999999999999999e-16 
2 3.5500152013624784 11.100000000000017 -31.399999999999984 0 -1 2.2e-16 1 0 0 -0 2.2e-16 1 6.2499999999999991
1 6.4578034383122471 19 -8.0323835341610739 0 -1 6.4000000000000005e-16 
1 9.8000152013624771 19.000000000000014 2.5000000000000062 0 -1 3.2999999999999999e-16 
1 9.8000152013624771 11.100000000000017 -26.399999999999977 0 -2.2e-16 -1 
1 3.5500152013624788 19.000000000000018 8.7500000000000053 0 -1 3.2999999999999999e-16 
2 3.5500152013624784 11.100000000000017 -26.399999999999977 0 -1 2.2e-16 1 0 0 -0 2.2e-16 1 6.25
1 -3.5499847986375235 19.000000000000018 8.7500000000000053 0 -1 3.2999999999999999e-16 
1 -3.5499847986375239 11.100000000000019 -20.149999999999977 1 0 0 
1 -9.7999847986375244 19.000000000000014 2.5000000000000067 0 -1 3.2999999999999999e-16 
2 -3.5499847986375239 11.100000000000017 -26.399999999999977 0 -1 2.2e-16 1 0 0 -0 2.2e-16 1 6.2499999999999991
1 -9.7999847986375386 19.000000000000014 -2.499999999999988 0 -1 3.2999999999999999e-16 
1 -9.7999847986375244 11.100000000000017 -26.399999999999977 -2.4899999999999998e-15 -2.2e-16 -1 
1 -6.4577930089816 19 -8.0323730362164945 0 -1 6.4000000000000005e-16 
2 -3.5499847986375395 11.100000000000017 -31.39999999999997 0 -1 2.2e-16 1 0 0 -0 2.2e-16 1 6.2499999999999991
1 -6.4850000000000003 11.100000000000016 -3.6596575508567213 0 -6.4000000000000005e-16 -1 
1 -2.6607725562146443 11.100000000000016 -4.2103721857338661 -0.70478461016133964 -4.5000000000000002e-16 -0.70942135101766457 
1 2.6607808636022252 11.100000000000016 -4.2103805477753129 0.70478461016133964 -4.5000000000000002e-16 -0.70942135101766457 
1 6.4850000000000003 11.100000000000016 -3.6596575508567213 0 -6.4000000000000005e-16 -1 
1 3.2425031131360664 11.100000000000009 -8.7197590205967579 -1 -0 0 
2 3.5500152013624784 11.100000000000017 -31.399999999999984 0 -1 2.2e-16 1 0 0 -0 2.2e-16 1 6.2499999999999991
1 -3.5499847986375284 11.100000000000016 -37.649999999999977 1 0 1.0414e-11 
2 -3.5499847986375395 11.100000000000017 -31.39999999999997 0 -1 2.2e-16 1 0 0 -0 2.2e-16 1 6.2499999999999991
1 -2.0820307026500209 11.100000000000009 -8.7197590205967579 -1 -0 0 
1 6.4850000000000003 18.999999999999996 -29.719759020596754 -1 0 0 
2 -3.5499847986375395 19.000000000000018 -23.499999999999972 0 -1 2.2e-16 1 0 0 -0 2.2e-16 1 6.2499999999999991
1 -3.5499847986375284 19.000000000000014 -29.749999999999979 1 0 1.0414e-11 
2 3.5500152013624784 19.000000000000018 -23.499999999999986 0 -1 2.2e-16 1 0 0 -0 2.2e-16 1 6.2499999999999991
1 4.1640980342971279 19 -8.7197590205967703 0 -1 6.4000000000000005e-16 
1 3.5499847986375288 19.000000000000011 -8.7499999999260556 0 -1 3.2999999999999999e-16 
1 -3.5499847986375346 19.000000000000011 -8.7499999999999911 0 -1 3.2999999999999999e-16 
1 -4.1640676315721743 19 -8.7197590205967632 0 -1 6.4000000000000005e-16 
1 -6.4850000000000003 18.999999999999989 -8.0597590205967613 0 -1 6.4000000000000005e-16 
1 -6.4850000000000003 18.999999999999989 -8.7197590205967614 0 -1 6.4000000000000005e-16 
1 6.4850000000000003 18.999999999999989 -8.7197590205967614 0 -1 6.4000000000000005e-16 
1 6.4850000000000003 18.999999999999989 -8.0597590205967613 0 -1 6.4000000000000005e-16 
Polygon3D 0
PolygonOnTriangulations 0
Surfaces 52
1 1.9000000000000001e-16 39.871626718220817 40.000000000000007 0 2.2e-16 1 0 -1 2.2e-16 1 0 -0 
1 0 19.550000000000011 12.000000000000007 0 5.1999999999999997e-16 1 0 -1 5.1999999999999997e-16 1 0 -0 
1 -11.500000000000002 19.542994991987182 1.2570050080128288 -1 0 -0 0 1 -2.2e-16 0 -2.2e-16 -1 
1 -2.7e-16 25.550000000000004 -9.4697499999999906 -0 -2.2e-16 -1 0 1 -2.2e-16 1 -0 0 
1 11.500000000000004 19.542994991987189 1.2570050080128277 1 0 0 0 -1 2.2e-16 0 -2.2e-16 -1 
1 3.5550000000000024 40 6.7197590205967757 0 -3.2999999999999999e-16 -1 -1 -0 0 -0 1 -3.2999999999999999e-16 
2 -3.5549999999999962 40 2.454759020596776 0 1 -3.2999999999999999e-16 1 0 0 -0 3.2999999999999999e-16 1 4.2650000000000006
1 -7.8200000000000003 40 2.454759020596776 1 0 0 0 -3.2999999999999999e-16 -1 0 1 -3.2999999999999999e-16 
2 -3.5550000000000006 40 -2.4952409794032286 0 1 -3.2999999999999999e-16 1 0 0 -0 3.2999999999999999e-16 1 4.2649999999999997
1 -5.6149999999999984 40 -6.229759020596763 0 3.2999999999999999e-16 1 1 0 -0 -0 1 -3.2999999999999999e-16 
1 -4.9649999999999999 40 -6.229759020596763 1 0 0 0 -3.2999999999999999e-16 -1 0 1 -3.2999999999999999e-16 
1 -5.9148635335236941 25.819392280685921 -7.4858716563147087 0.70942135101766779 1.5e-16 -0.70478461016133653 0.70478461016133653 1.6000000000000004e-16 0.70942135101766779 2.1917874027846403e-16 -1 7.7897246386263934e-18 
1 -6.4849999999999994 19.577980425545402 -8.417739446142166 1 0 0 0 -1 2.2e-16 0 -2.2e-16 -1 
1 1.6279078698599999e-06 18.032707278478426 -8.7197590205967614 0 6.4000000000000005e-16 1 0 -1 6.4000000000000005e-16 1 0 -0 
1 6.4850000000000012 19.577980425545409 -8.4177394461421642 -1 0 -0 0 1 -2.2e-16 0 -2.2e-16 -1 
1 5.9148648599966602 25.81939416278286 -7.4858729915144595 -0.7094213510176649 -4.1000000000000001e-16 -0.70478461016133942 0.70478461016133942 -1.6000000000000004e-16 -0.7094213510176649 1.7809721629142827e-16 -1 4.0246910632897555e-16 
1 4.9649999999999999 40 -6.229759020596763 1 0 0 0 -3.2999999999999999e-16 -1 0 1 -3.2999999999999999e-16 
1 5.615000000000002 40 -6.229759020596763 0 -3.2999999999999999e-16 -1 -1 -0 0 -0 1 -3.2999999999999999e-16 
2 3.5550000000000024 40 -2.4952409794032286 0 1 -3.2999999999999999e-16 1 0 0 -0 3.2999999999999999e-16 1 4.2649999999999997
1 7.8200000000000021 40 2.454759020596776 1 0 0 0 -3.2999999999999999e-16 -1 0 1 -3.2999999999999999e-16 
2 3.5550000000000024 40 2.454759020596776 0 1 -3.2999999999999999e-16 1 0 0 -0 3.2999999999999999e-16 1 4.2649999999999997
1 0 50.751032513256867 -0.89999999999999325 0 4.5000000000000002e-16 1 0 -1 4.5000000000000002e-16 1 0 -0 
1 0 38.751032513256874 11.100000000000009 0 4.5000000000000002e-16 1 0 -1 4.5000000000000002e-16 1 0 -0 
1 -11.5 11.100000000000012 -9.4999999999999858 0 3.2999999999999999e-16 1 1 0 -0 -0 1 -3.2999999999999999e-16 
1 1.9000000000000001e-16 60.871626718220803 19 0 2.2e-16 1 0 -1 2.2e-16 1 0 -0 
1 -6.4999999999999991 11.100000000000019 8.3500000000000156 -1 0 0 0 3.2999999999999999e-16 1 0 1 -3.2999999999999999e-16 
2 -5.3499999999999996 11.100000000000019 10.350000000000016 0 1 -3.2999999999999999e-16 1 0 0 -0 3.2999999999999999e-16 1 1.1499999999999997
1 -5.3499999999999996 11.100000000000019 11.500000000000014 0 3.2999999999999999e-16 1 1 0 -0 -0 1 -3.2999999999999999e-16 
2 5.3499999999999996 11.100000000000019 10.350000000000016 0 1 -3.2999999999999999e-16 1 0 0 -0 3.2999999999999999e-16 1 1.1499999999999999
1 6.5 11.100000000000019 8.3500000000000156 -1 0 0 0 3.2999999999999999e-16 1 0 1 -3.2999999999999999e-16 
2 3.4478492136622623 11.100000000000016 2.5521507863377475 0 1 -3.2999999999999999e-16 1 0 0 -0 3.2999999999999999e-16 1 6.5521507863377373
1 10 11.100000000000016 2.5521507863377475 1 0 0 0 -3.2999999999999999e-16 -1 0 1 -3.2999999999999999e-16 
2 3.4478492136622636 11.100000000000016 -2.447849213662264 0 1 -3.2999999999999999e-16 1 0 0 -0 3.2999999999999999e-16 1 6.5521507863377364
2 3.4478492136622636 11.100000000000016 -2.447849213662264 0 1 -3.2999999999999999e-16 1 0 0 -0 3.2999999999999999e-16 1 6.5521507863377364
1 -3.4478492136622636 11.100000000000012 -9 0 3.2999999999999999e-16 1 1 0 -0 -0 1 -3.2999999999999999e-16 
2 -3.4478492136622623 11.100000000000016 -2.447849213662264 0 1 -3.2999999999999999e-16 1 0 0 -0 3.2999999999999999e-16 1 6.5521507863377364
2 -3.4478492136622623 11.100000000000016 -2.447849213662264 0 1 -3.2999999999999999e-16 1 0 0 -0 3.2999999999999999e-16 1 6.5521507863377364
1 -9.9999999999999982 11.100000000000016 2.5521507863377484 1 0 0 0 -3.2999999999999999e-16 -1 0 1 -3.2999999999999999e-16 
2 -3.4478492136622623 11.100000000000016 2.5521507863377475 0 1 -3.2999999999999999e-16 1 0 0 -0 3.2999999999999999e-16 1 6.5521507863377364
2 3.5500152013624784 19.000000000000014 -2.5000000000000036 0 1 -3.2999999999999999e-16 1 0 0 -0 3.2999999999999999e-16 1 6.2499999999999991
1 9.8000152013624771 19.000000000000014 2.5000000000000062 1 0 0 0 -3.2999999999999999e-16 -1 0 1 -3.2999999999999999e-16 
2 3.5500152013624784 19.000000000000014 2.5000000000000062 0 1 -3.2999999999999999e-16 1 0 0 -0 3.2999999999999999e-16 1 6.25
1 -3.5499847986375239 19.000000000000018 8.7500000000000053 0 3.2999999999999999e-16 1 1 0 -0 -0 1 -3.2999999999999999e-16 
2 -3.5499847986375239 19.000000000000014 2.5000000000000062 0 1 -3.2999999999999999e-16 1 0 0 -0 3.2999999999999999e-16 1 6.2499999999999991
1 -9.7999847986375244 19.000000000000014 2.5000000000000062 1 -0 -2.4899999999999998e-15 -2.4899999999999998e-15 -3.2999999999999999e-16 -1 -8.2169999999999984e-31 1 -3.2999999999999999e-16 
2 -3.5499847986375395 19.000000000000014 -2.4999999999999885 0 1 -3.2999999999999999e-16 1 0 0 -0 3.2999999999999999e-16 1 6.2499999999999991
1 6.2262721328799996e-06 47.159556081116683 11.100000000000005 0 5.3000000000000003e-16 1 0 -1 5.3000000000000003e-16 1 0 -0 
1 6.2262721328799996e-06 47.159556081116683 11.100000000000005 0 5.3000000000000003e-16 1 0 -1 5.3000000000000003e-16 1 0 -0 
2 3.5500152013624784 19.000000000000014 -2.5000000000000036 0 1 -3.2999999999999999e-16 1 0 0 -0 3.2999999999999999e-16 1 6.2499999999999991
1 -3.5499847986375284 19.000000000000011 -8.7499999999999929 -1.0414e-11 3.2999999999999999e-16 1 1 0 1.0414e-11 3.4366199999999997e-27 1 -3.2999999999999999e-16 
2 -3.5499847986375395 19.000000000000014 -2.4999999999999885 0 1 -3.2999999999999999e-16 1 0 0 -0 3.2999999999999999e-16 1 6.2499999999999991
1 1.9000000000000001e-16 60.871626718220803 19 0 2.2e-16 1 0 -1 2.2e-16 1 0 -0 
Triangulations 0

TShapes 359
Ve
1e-07
11.5 40 12
0 0

0101101
*
Ve
1e-07
-11.5 40 12
0 0

0101101
*
Ed
 1e-07 1 1 0
1  1 0 0 23
2  1 1 15 0 23
2  2 2 16 0 23
0

0101000
+359 17 -358 17 *
Ve
1e-07
-11.5 40 -9.46975000000002
0 0

0101101
*
Ed
 1e-07 1 1 0
1  2 0 0 21.46975
2  3 1 15 0 21.46975
2  4 3 16 0 21.46975
0

0101000
+358 17 -356 17 *
Ve
1e-07
11.5 40 -9.46975000000002
0 0

0101101
*
Ed
 1e-07 1 1 0
1  3 0 0 23
2  5 1 15 0 23
2  6 4 18 0 23
0

0101000
+356 17 -354 17 *
Ed
 1e-07 1 1 0
1  4 0 0 21.46975
2  7 1 15 0 21.46975
2  8 5 16 0 21.46975
0

0101000
+354 17 -359 17 *
Wi

0101100
+357 0 +355 0 +353 0 +352 0 *
Ve
1e-07
3.555 40 6.71975902059675
0 0

0101101
*
Ve
1e-07
-3.555 40 6.71975902059675
0 0

0101101
*
Ed
 1e-07 1 1 0
1  5 0 0 7.11
2  9 1 15 0 7.11
2  10 6 19 0 7.11
0

0101000
+350 17 -349 17 *
Ve
1.00000002e-07
-7.82 40 2.45475902059675
0 0

0101101
*
Ed
 1e-07 1 1 0
1  6 0 1.5707963267949 3.14159265358979
2  11 1 15 1.5707963267949 3.14159265358979
2  12 7 19 1.5707963267949 3.14159265358979
0

0101000
+349 17 -347 17 *
Ve
1e-07
-7.82 40 -2.49524097940325
0 0

0101101
*
Ed
 1e-07 1 1 0
1  7 0 0 4.95
2  13 1 15 0 4.95
2  14 8 19 0 4.95
0

0101000
+347 17 -345 17 *
Ve
1.00000001e-07
-5.615 40 -6.22975902059679
0 0

0101101
*
Ed
 1e-07 1 1 0
1  8 0 3.14159265358979 4.20831001147283
2  15 1 15 3.14159265358979 4.20831001147283
2  16 9 19 3.14159265358979 4.20831001147283
0

0101000
+345 17 -343 17 *
Ve
1e-07
-4.965 40 -6.22975902059679
0 0

0101101
*
Ed
 1e-07 1 1 0
1  9 0 0 0.649999999999999
2  17 1 15 0 0.649999999999999
2  18 10 19 0 0.649999999999999
0

0101000
+343 17 -341 17 *
Ve
0.000129344414566
-4.965 40 -6.52975902059679
0 0

0101101
*
Ed
 1e-07 1 1 0
1  10 0 0 0.3
2  19 1 15 0 0.3
2  20 11 19 0 0.3
0

0101000
+341 17 -339 17 *
Ve
0.000129344414579
-6.485 40 -8.05975902059679
0 0

0101101
*
Ed
 0.000129344414566 1 1 0
1  11 0 0 2.15668727450226
2  21 1 15 0 2.15668727450226
2  22 12 20 0 2.15668727450226
0

0101000
+339 17 -337 17 *
Ve
0.000129344414579
-6.485 40 -8.71975902059678
0 0

0101101
*
Ed
 0.000129344414579 1 1 0
1  12 0 0 0.66
2  23 1 15 0 0.66
2  24 13 20 0 0.66
0

0101000
+337 17 -335 17 *
Ve
0.000129344414606
6.485 40 -8.71975902059678
0 0

0101101
*
Ed
 0.000129344414579 1 1 0
1  13 0 0 12.97
2  25 1 15 0 12.97
2  26 14 20 0 12.97
0

0101000
+333 17 -335 17 *
Ve
0.000129344414606
6.485 40 -8.05975902059679
0 0

0101101
*
Ed
 0.000129344414606 1 1 0
1  14 0 0 0.66
2  27 1 15 0 0.66
2  28 15 20 0 0.66
0

0101000
+331 17 -333 17 *
Ve
0.000129344414606
4.965 40 -6.52975902059679
0 0

0101101
*
Ed
 0.000129344414606 1 1 0
1  15 0 0 2.15668727450226
2  29 1 15 0 2.15668727450226
2  30 16 20 0 2.15668727450226
0

0101000
+329 17 -331 17 *
Ve
1e-07
4.965 40 -6.22975902059679
0 0

0101101
*
Ed
 1e-07 1 1 0
1  16 0 0 0.3
2  31 1 15 0 0.3
2  32 17 19 0 0.3
0

0101000
+327 17 -329 17 *
Ve
1e-07
5.615 40 -6.22975902059679
0 0

0101101
*
Ed
 1e-07 1 1 0
1  17 0 0 0.650000000000002
2  33 1 15 0 0.650000000000002
2  34 18 19 0 0.650000000000002
0

0101000
+325 17 -327 17 *
Ve
1e-07
7.82 40 -2.49524097940325
0 0

0101101
*
Ed
 1e-07 1 1 0
1  18 0 5.21646794929655 6.28318530717959
2  35 1 15 5.21646794929655 6.28318530717959
2  36 19 19 5.21646794929655 6.28318530717959
0

0101000
+325 17 -323 17 *
Ve
1e-07
7.82 40 2.45475902059675
0 0

0101101
*
Ed
 1e-07 1 1 0
1  19 0 0 4.95000000000001
2  37 1 15 0 4.95000000000001
2  38 20 19 0 4.95000000000001
0

0101000
+321 17 -323 17 *
Ed
 1e-07 1 1 0
1  20 0 0 1.5707963267949
2  39 1 15 0 1.5707963267949
2  40 21 19 0 1.5707963267949
0

0101000
+321 17 -350 17 *
Wi

0101100
+348 0 +346 0 +344 0 +342 0 +340 0 +338 0 +336 0 +334 0 -332 0 -330 0 
-328 0 -326 0 -324 0 +322 0 -320 0 +319 0 *
Fa
0  1e-07 1 0

0111000
-351 14 +318 14 *
Ve
1e-07
-11.5 -0.899999999999976 12
0 0

0101101
*
Ed
 1e-07 1 1 0
1  21 0 0 40.9
2  41 2 0 0 40.9
2  42 3 0 0 40.9
0

0101000
+358 23 -316 23 *
Ve
1e-07
11.5 -0.899999999999976 12
0 0

0101101
*
Ed
 1e-07 1 1 0
1  22 0 0 23
2  43 2 28 0 23
2  44 22 29 0 23
0

0101000
+314 30 -316 30 *
Ed
 1e-07 1 1 0
1  23 0 -28.9 12
2  45 2 0 -28.9 12
2  46 5 0 -28.9 12
0

0101000
+359 23 -314 23 *
Wi

0101000
+357 22 +315 0 -313 27 -312 0 *
Fa
0  1e-07 2 0

0111000
+311 0 *
Ve
1.00000004e-07
-11.5 11.1 -9.46974999999999
0 0

0101101
*
Ed
 1e-07 1 1 0
1  24 0 0 28.9
2  47 3 32 0 28.9
2  48 4 0 0 28.9
0

0101000
+356 33 -309 33 *
Ve
1e-07
-11.5 11.1 -9.49999999999999
0 0

0101101
*
Ed
 1e-07 1 1 0
1  25 0 21.46975 21.5
2  49 3 35 21.46975 21.5
2  50 23 29 21.46975 21.5
0

0101000
+309 36 -307 36 *
Ve
1e-07
-11.5 -0.899999999999991 -9.49999999999999
0 0

0101101
*
Ed
 1e-07 1 1 0
1  26 0 0 12
2  51 3 0 0 12
2  52 24 0 0 12
0

0101000
+307 23 -305 23 *
Ed
 1e-07 1 1 0
1  27 0 0 21.5
2  53 3 28 0 21.5
2  54 22 29 0 21.5
0

0101000
+316 30 -305 30 *
Wi

0101000
-315 0 +355 22 +308 31 +306 34 +304 0 -303 27 *
Fa
0  1e-07 3 0

0111000
+302 0 *
Ve
1.00000004e-07
11.5 11.1 -9.46974999999999
0 0

0101101
*
Ed
 1e-07 1 1 0
1  28 0 -21 7.9
2  55 4 0 -21 7.9
2  56 5 32 -21 7.9
0

0101000
+354 33 -300 33 *
Ed
 1.00000004e-07 1 1 0
1  29 0 0 23
2  57 4 41 0 23
2  58 23 42 0 23
0

0101000
+309 43 -300 43 *
Wi

0101100
-308 31 +353 22 +299 31 -298 40 *
Fa
0  1e-07 4 31

0111000
+297 0 *
Ve
1e-07
11.5 -0.899999999999991 -9.49999999999999
0 0

0101101
*
Ed
 1e-07 1 1 0
1  30 0 0 21.5
2  59 5 28 0 21.5
2  60 22 29 0 21.5
0

0101000
+295 30 -314 30 *
Ve
1e-07
11.5 11.1 -9.49999999999999
0 0

0101101
*
Ed
 1e-07 1 1 0
1  31 0 0 12
2  61 5 0 0 12
2  62 24 0 0 12
0

0101000
+293 23 -295 23 *
Ed
 1e-07 1 1 0
1  32 0 0 0.030249999999999
2  63 5 35 0 0.030249999999999
2  64 23 29 0 0.030249999999999
0

0101000
+293 36 -300 36 *
Wi

0101000
+352 22 +312 0 -294 27 -292 0 +291 34 -299 31 *
Fa
0  1e-07 5 0

0111000
+290 0 *
Ve
1e-07
3.555 19 6.71975902059677
0 0

0101101
*
Ed
 1e-07 1 1 0
1  33 0 0 21
2  65 6 0 0 21
2  66 21 0 0 21
4 G1 6 0 21 0
0

0101000
+350 45 -288 45 *
Ve
1e-07
-3.555 19 6.71975902059677
0 0

0101101
*
Ed
 1e-07 1 1 0
1  34 0 0 21
2  67 6 0 0 21
2  68 7 0 0 21
4 G1 6 0 7 0
0

0101000
+349 45 -286 45 *
Ed
 1e-07 1 1 0
1  35 0 0 7.11
2  69 6 49 0 7.11
2  70 25 15 0 7.11
0

0101000
+288 50 -286 50 *
Wi

0101100
+287 0 -285 0 -348 46 +284 48 *
Fa
0  1e-07 6 0

0111000
+283 0 *
Ve
1.00000002e-07
-7.82 19 2.45475902059678
0 0

0101101
*
Ed
 1.00000002e-07 1 1 0
1  36 0 0 21
2  71 7 0 0 21
2  72 8 0 0 21
4 G1 7 0 8 0
0

0101000
+347 45 -281 45 *
Ed
 1e-07 1 1 0
1  37 0 1.5707963267949 3.14159265358979
2  73 7 49 1.5707963267949 3.14159265358979
2  74 25 15 1.5707963267949 3.14159265358979
0

0101000
+286 50 -281 50 *
Wi

0101100
+285 0 -280 0 -346 46 +279 48 *
Fa
0  1e-07 7 0

0111000
+278 0 *
Ve
1e-07
-7.82 19 -2.49524097940323
0 0

0101101
*
Ed
 1e-07 1 1 0
1  38 0 0 21
2  75 8 0 0 21
2  76 9 0 0 21
4 G1 8 0 9 0
0

0101000
+345 45 -276 45 *
Ed
 1e-07 1 1 0
1  39 0 0 4.95
2  77 8 49 0 4.95
2  78 25 15 0 4.95
0

0101000
+281 50 -276 50 *
Wi

0101100
+280 0 -275 0 -344 46 +274 48 *
Fa
0  1e-07 8 0

0111000
+273 0 *
Ve
1.00000001e-07
-5.615 19 -6.22975902059677
0 0

0101101
*
Ed
 1.00000001e-07 1 1 0
1  40 0 0 21
2  79 9 0 0 21
2  80 10 0 0 21
0

0101000
+343 45 -271 45 *
Ed
 1e-07 1 1 0
1  41 0 3.14159265358979 4.20831001147283
2  81 9 49 3.14159265358979 4.20831001147283
2  82 25 15 3.14159265358979 4.20831001147283
0

0101000
+276 50 -271 50 *
Wi

0101100
+275 0 -270 0 -342 46 +269 48 *
Fa
0  1e-07 9 0

0111000
+268 0 *
Ve
1e-07
-4.965 19 -6.22975902059677
0 0

0101101
*
Ed
 1e-07 1 1 0
1  42 0 0 21
2  83 10 0 0 21
2  84 11 0 0 21
0

0101000
+341 45 -266 45 *
Ed
 1e-07 1 1 0
1  43 0 0 0.649999999999999
2  85 10 49 0 0.649999999999999
2  86 25 15 0 0.649999999999999
0

0101000
+271 50 -266 50 *
Wi

0101100
+270 0 -265 0 -340 46 +264 48 *
Fa
0  1e-07 10 0

0111000
+263 0 *
Ve
0.000129344414566
-4.965 19 -6.52975902059676
0 0

0101101
*
Ed
 0.000129344414566 1 1 0
1  44 0 0 21
2  87 11 0 0 21
2  88 12 51 0 21
0

0101000
+339 45 -261 45 *
Ed
 1e-07 1 1 0
1  45 0 0 0.3
2  89 11 49 0 0.3
2  90 25 15 0 0.3
0

0101000
+266 50 -261 50 *
Wi

0101100
+265 0 -260 0 -338 46 +259 48 *
Fa
0  1e-07 11 0

0111000
+258 0 *
Ve
1e-07
4.965 19 -6.22975902059677
0 0

0101101
*
Ed
 1e-07 1 1 0
1  46 0 0 21
2  91 17 0 0 21
2  92 18 0 0 21
0

0101000
+327 45 -256 45 *
Ve
0.000129344414606
4.965 19 -6.52975902059676
0 0

0101101
*
Ed
 0.000129344414606 1 1 0
1  47 0 0 21
2  93 17 0 0 21
2  94 16 51 0 21
0

0101000
+329 45 -254 45 *
Ed
 1e-07 1 1 0
1  48 0 0 0.3
2  95 17 49 0 0.3
2  96 25 15 0 0.3
0

0101000
+256 50 -254 50 *
Wi

0101100
+255 0 -253 0 -326 46 +252 48 *
Fa
0  1e-07 17 0

0111000
+251 0 *
Ve
1e-07
5.615 19 -6.22975902059677
0 0

0101101
*
Ed
 1e-07 1 1 0
1  49 0 0 21
2  97 18 0 0 21
2  98 19 0 0 21
0

0101000
+325 45 -249 45 *
Ed
 1e-07 1 1 0
1  50 0 0 0.650000000000002
2  99 18 49 0 0.650000000000002
2  100 25 15 0 0.650000000000002
0

0101000
+249 50 -256 50 *
Wi

0101100
+248 0 -255 0 -324 46 +247 48 *
Fa
0  1e-07 18 0

0111000
+246 0 *
Ve
1e-07
7.82 19 -2.49524097940323
0 0

0101101
*
Ed
 1e-07 1 1 0
1  51 0 0 21
2  101 19 0 0 21
2  102 20 0 0 21
4 G1 19 0 20 0
0

0101000
+323 45 -244 45 *
Ed
 1e-07 1 1 0
1  52 0 5.21646794929655 6.28318530717959
2  103 19 49 5.21646794929655 6.28318530717959
2  104 25 15 5.21646794929655 6.28318530717959
0

0101000
+249 50 -244 50 *
Wi

0101100
+248 0 -243 0 -322 46 +242 48 *
Fa
0  1e-07 19 0

0111000
+241 0 *
Ve
1e-07
7.82 19 2.45475902059678
0 0

0101101
*
Ed
 1e-07 1 1 0
1  53 0 0 21
2  105 20 0 0 21
2  106 21 0 0 21
4 G1 20 0 21 0
0

0101000
+321 45 -239 45 *
Ed
 1e-07 1 1 0
1  54 0 0 4.95000000000001
2  107 20 49 0 4.95000000000001
2  108 25 15 0 4.95000000000001
0

0101000
+239 50 -244 50 *
Wi

0101100
+238 0 -243 0 -320 46 +237 48 *
Fa
0  1e-07 20 0

0111000
+236 0 *
Ed
 1e-07 1 1 0
1  55 0 0 1.5707963267949
2  109 21 49 0 1.5707963267949
2  110 25 15 0 1.5707963267949
0

0101000
+239 50 -288 50 *
Wi

0101100
+238 0 -287 0 -319 46 +234 48 *
Fa
0  1e-07 21 0

0111000
+233 0 *
Ed
 1e-07 1 1 0
1  56 0 0 23
2  111 22 29 0 23
2  112 24 28 0 23
0

0101000
+305 30 -295 30 *
Wi

0101100
-303 53 -313 53 -231 53 -294 53 *
Ve
1e-07
-6.5 -0.899999999999979 8.35000000000002
0 0

0101101
*
Ve
1e-07
-6.5 -0.899999999999977 10.35
0 0

0101101
*
Ed
 1e-07 1 1 0
1  57 0 0 2
2  113 22 29 0 2
2  114 26 28 0 2
0

0101000
+229 30 -228 30 *
Ve
1e-07
-5.35 -0.899999999999977 11.5
0 0

0101101
*
Ed
 1e-07 1 1 0
1  58 0 1.5707963267949 3.14159265358979
2  115 22 29 1.5707963267949 3.14159265358979
2  116 27 28 1.5707963267949 3.14159265358979
0

0101000
+226 30 -228 30 *
Ve
1e-07
5.35 -0.899999999999977 11.5
0 0

0101101
*
Ed
 1e-07 1 1 0
1  59 0 0 10.7
2  117 22 29 0 10.7
2  118 28 28 0 10.7
0

0101000
+226 30 -224 30 *
Ve
1e-07
6.5 -0.899999999999977 10.35
0 0

0101101
*
Ed
 1e-07 1 1 0
1  60 0 0 1.5707963267949
2  119 22 29 0 1.5707963267949
2  120 29 28 0 1.5707963267949
0

0101000
+222 30 -224 30 *
Ve
1e-07
6.5 -0.899999999999979 8.35000000000002
0 0

0101101
*
Ed
 1e-07 1 1 0
1  61 0 0 2
2  121 22 29 0 2
2  122 30 28 0 2
0

0101000
+220 30 -222 30 *
Ve
1e-07
10 -0.899999999999983 2.55215078633776
0 0

0101101
*
Ed
 1e-07 1 1 0
1  62 0 0 1.08623044817572
2  123 22 29 0 1.08623044817572
2  124 31 28 0 1.08623044817572
0

0101000
+218 30 -220 30 *
Ve
1.00000001e-07
10 -0.899999999999986 -2.44784921366226
0 0

0101101
*
Ed
 1e-07 1 1 0
1  63 0 0 5.00000000000001
2  125 22 29 0 5.00000000000001
2  126 32 28 0 5.00000000000001
0

0101000
+218 30 -216 30 *
Ve
0.000129344414614
6.485 -0.899999999999986 -8.25357010154124
0 0

0101101
*
Ed
 1e-07 1 1 0
1  64 0 5.19436944925268 6.28318530717959
2  127 22 29 5.19436944925268 6.28318530717959
2  128 33 28 5.19436944925268 6.28318530717959
0

0101000
+214 30 -216 30 *
Ve
0.000129344414614
6.485 -0.899999999999986 -8.71975902059675
0 0

0101101
*
Ed
 0.000129344414606 1 1 0
1  65 0 4.84817433461443 5.31436325366994
2  129 22 52 4.84817433461443 5.31436325366994
2  130 15 0 4.84817433461443 5.31436325366994
0

0101000
+214 54 -212 54 *
Ve
0.000129344414586
5.34358846276409 -0.899999999999986 -8.71975902059675
0 0

0101101
*
Ed
 0.000129344414579 1 1 0
1  66 0 -3.2425 -2.10108846276409
2  131 22 52 -3.2425 -2.10108846276409
2  132 14 0 -3.2425 -2.10108846276409
0

0101000
+212 54 -210 54 *
Ve
1e-07
3.44784921366226 -0.89999999999999 -9
0 0

0101101
*
Ed
 1e-07 1 1 0
1  67 0 4.71238898038469 5.00591667819962
2  133 22 29 4.71238898038469 5.00591667819962
2  134 34 28 4.71238898038469 5.00591667819962
0

0101000
+208 30 -210 30 *
Ve
1e-07
-3.44784921366226 -0.89999999999999 -9
0 0

0101101
*
Ed
 1e-07 1 1 0
1  68 0 0 6.89569842732453
2  135 22 29 0 6.89569842732453
2  136 35 28 0 6.89569842732453
0

0101000
+206 30 -208 30 *
Ve
0.000129344414586
-5.3435884627641 -0.899999999999986 -8.71975902059675
0 0

0101101
*
Ed
 1e-07 1 1 0
1  69 0 4.41886128256976 4.71238898038469
2  137 22 29 4.41886128256976 4.71238898038469
2  138 36 28 4.41886128256976 4.71238898038469
0

0101000
+204 30 -206 30 *
Ve
0.000129344414587
-6.485 -0.899999999999986 -8.71975902059675
0 0

0101101
*
Ed
 0.000129344414579 1 1 0
1  70 0 3.26155464697801 4.40296618421391
2  139 22 52 3.26155464697801 4.40296618421391
2  140 14 0 3.26155464697801 4.40296618421391
0

0101000
+204 54 -202 54 *
Ve
0.000129344414588
-6.48500000000001 -0.899999999999986 -8.25357010154124
0 0

0101101
*
Ed
 0.000129344414579 1 1 0
1  71 0 4.84817433461443 5.31436325366994
2  141 22 52 4.84817433461443 5.31436325366994
2  142 13 0 4.84817433461443 5.31436325366994
0

0101000
+200 54 -202 54 *
Ve
1e-07
-10 -0.899999999999986 -2.44784921366226
0 0

0101101
*
Ed
 1e-07 1 1 0
1  72 0 3.14159265358979 4.2304085115167
2  143 22 29 3.14159265358979 4.2304085115167
2  144 37 28 3.14159265358979 4.2304085115167
0

0101000
+198 30 -200 30 *
Ve
1e-07
-10 -0.899999999999983 2.55215078633776
0 0

0101101
*
Ed
 1e-07 1 1 0
1  73 0 0 5.00000000000001
2  145 22 29 0 5.00000000000001
2  146 38 28 0 5.00000000000001
0

0101000
+196 30 -198 30 *
Ed
 1e-07 1 1 0
1  74 0 2.05536220541408 3.14159265358979
2  147 22 29 2.05536220541408 3.14159265358979
2  148 39 28 2.05536220541408 3.14159265358979
0

0101000
+229 30 -196 30 *
Wi

0101100
-227 53 +225 53 -223 53 +221 53 +219 53 +217 53 -215 53 +213 53 -211 0 -209 0 
+207 53 +205 53 +203 53 -201 0 +199 0 +197 53 +195 53 +194 53 *
Fa
0  1e-07 22 52

0111000
+230 0 +193 0 *
Ed
 1e-07 1 1 0
1  75 0 0 23
2  149 23 29 0 23
2  150 24 35 0 23
0

0101000
+307 36 -293 36 *
Wi

0101100
-306 34 -191 34 -291 34 +298 40 *
Fa
0  1e-07 23 55

0111000
+190 0 *
Wi

0101100
+304 0 -292 0 -191 34 +231 27 *
Fa
0  1e-07 24 0

0111000
+188 0 *
Ve
0.000129344414606
6.45780343831225 19 -8.03238353416108
0 0

0101101
*
Ed
 0.000129344414606 1 1 0
1  76 0 0 2.11809880180346
2  151 25 15 0 2.11809880180346
2  152 16 58 0 2.11809880180346
0

0101000
+254 50 -186 50 *
Ve
1.00000001e-07
9.80001520136248 19 -2.50000000000001
0 0

0101101
*
Ed
 1e-07 1 1 0
1  77 0 5.19630161364879 6.28318530717959
2  153 25 60 5.19630161364879 6.28318530717959
2  154 40 61 5.19630161364879 6.28318530717959
0

0101000
+186 62 -184 62 *
Ve
1.00000001e-07
9.80001520136248 19 2.5
0 0

0101101
*
Ed
 1e-07 1 1 0
1  78 0 0 5.00000000000001
2  155 25 60 0 5.00000000000001
2  156 41 61 0 5.00000000000001
0

0101000
+182 62 -184 62 *
Ve
1.00000001e-07
3.55001520136248 19 8.75
0 0

0101101
*
Ed
 1e-07 1 1 0
1  79 0 0 1.5707963267949
2  157 25 60 0 1.5707963267949
2  158 42 61 0 1.5707963267949
0

0101000
+182 62 -180 62 *
Ve
1e-07
-3.54998479863752 19 8.75
0 0

0101101
*
Ed
 1e-07 1 1 0
1  80 0 0 7.1
2  159 25 60 0 7.1
2  160 43 61 0 7.1
0

0101000
+178 62 -180 62 *
Ve
1.00000001e-07
-9.79998479863752 19 2.5
0 0

0101101
*
Ed
 1e-07 1 1 0
1  81 0 1.5707963267949 3.14159265358979
2  161 25 60 1.5707963267949 3.14159265358979
2  162 44 61 1.5707963267949 3.14159265358979
0

0101000
+178 62 -176 62 *
Ve
1.00000001e-07
-9.79998479863754 19 -2.5
0 0

0101101
*
Ed
 1e-07 1 1 0
1  82 0 0 4.99999999999999
2  163 25 60 0 4.99999999999999
2  164 45 61 0 4.99999999999999
0

0101000
+176 62 -174 62 *
Ve
0.000129344414566
-6.4577930089816 19 -8.0323730362165
0 0

0101101
*
Ed
 1e-07 1 1 0
1  83 0 3.14159265358979 4.22847273684789
2  165 25 60 3.14159265358979 4.22847273684789
2  166 46 61 3.14159265358979 4.22847273684789
0

0101000
+174 62 -172 62 *
Ed
 0.000129344414566 1 1 0
1  84 0 0 2.1180840039057
2  167 25 15 0 2.1180840039057
2  168 12 58 0 2.1180840039057
0

0101000
+261 50 -172 50 *
Wi

0101100
+234 57 -237 57 +242 57 -247 57 -252 57 -185 57 -183 59 +181 59 -179 59 +177 59 
-175 59 -173 59 -171 59 +170 57 +259 57 +264 57 +269 57 +274 57 +279 57 +284 57 
*
Fa
0  1e-07 25 56

0111000
+169 0 *
Ve
1.00000004e-07
-6.5 11.1 8.35000000000001
0 0

0101101
*
Ed
 1e-07 1 1 0
1  85 0 0 12
2  169 26 0 0 12
2  170 39 0 0 12
0

0101000
+167 23 -229 23 *
Ve
1.00000004e-07
-6.5 11.1 10.35
0 0

0101101
*
Ed
 1e-07 1 1 0
1  86 0 0 12
2  171 26 0 0 12
2  172 27 0 0 12
4 G1 26 0 27 0
0

0101000
+165 23 -228 23 *
Ed
 1.00000004e-07 1 1 0
1  87 0 0 2
2  173 26 35 0 2
2  174 47 63 0 2
0

0101000
+167 36 -165 36 *
Wi

0101100
+166 0 -164 0 -163 34 +227 27 *
Fa
0  1e-07 26 0

0111000
+162 0 *
Ve
1.00000004e-07
-5.35 11.1 11.5
0 0

0101101
*
Ed
 1e-07 1 1 0
1  88 0 0 12
2  175 27 0 0 12
2  176 28 0 0 12
4 G1 27 0 28 0
0

0101000
+160 23 -226 23 *
Ed
 1.00000004e-07 1 1 0
1  89 0 1.5707963267949 3.14159265358979
2  177 27 35 1.5707963267949 3.14159265358979
2  178 47 63 1.5707963267949 3.14159265358979
0

0101000
+160 36 -165 36 *
Wi

0101100
+159 0 -164 0 -158 34 +225 27 *
Fa
0  1e-07 27 0

0111000
+157 0 *
Ve
1.00000004e-07
5.35 11.1 11.5
0 0

0101101
*
Ed
 1e-07 1 1 0
1  90 0 0 12
2  179 28 0 0 12
2  180 29 0 0 12
4 G1 28 0 29 0
0

0101000
+155 23 -224 23 *
Ed
 1.00000004e-07 1 1 0
1  91 0 0 10.7
2  181 28 35 0 10.7
2  182 47 63 0 10.7
0

0101000
+160 36 -155 36 *
Wi

0101100
+159 0 -154 0 -153 34 +223 27 *
Fa
0  1e-07 28 0

0111000
+152 0 *
Ve
1.00000004e-07
6.5 11.1 10.35
0 0

0101101
*
Ed
 1e-07 1 1 0
1  92 0 0 12
2  183 29 0 0 12
2  184 30 0 0 12
4 G1 29 0 30 0
0

0101000
+150 23 -222 23 *
Ed
 1.00000004e-07 1 1 0
1  93 0 0 1.5707963267949
2  185 29 35 0 1.5707963267949
2  186 47 63 0 1.5707963267949
0

0101000
+150 36 -155 36 *
Wi

0101100
+149 0 -154 0 -148 34 +221 27 *
Fa
0  1e-07 29 0

0111000
+147 0 *
Ve
1.00000004e-07
6.5 11.1 8.35000000000001
0 0

0101101
*
Ed
 1e-07 1 1 0
1  94 0 0 12
2  187 30 0 0 12
2  188 31 0 0 12
0

0101000
+145 23 -220 23 *
Ed
 1.00000004e-07 1 1 0
1  95 0 0 2
2  189 30 35 0 2
2  190 47 63 0 2
0

0101000
+145 36 -150 36 *
Wi

0101100
+144 0 -149 0 -143 34 +219 27 *
Fa
0  1e-07 30 0

0111000
+142 0 *
Ve
1.00000004e-07
10 11.1 2.55215078633774
0 0

0101101
*
Ed
 1e-07 1 1 0
1  96 0 0 12
2  191 31 0 0 12
2  192 32 0 0 12
4 G1 31 0 32 0
0

0101000
+140 23 -218 23 *
Ed
 1.00000004e-07 1 1 0
1  97 0 0 1.08623044817572
2  193 31 35 0 1.08623044817572
2  194 47 63 0 1.08623044817572
0

0101000
+140 36 -145 36 *
Wi

0101100
+139 0 -144 0 -138 34 +217 27 *
Fa
0  1e-07 31 0

0111000
+137 0 *
Ve
1.00000004e-07
10 11.1 -2.44784921366227
0 0

0101101
*
Ed
 1.00000001e-07 1 1 0
1  98 0 0 12
2  195 32 0 0 12
2  196 33 0 0 12
4 G1 32 0 33 0
0

0101000
+135 23 -216 23 *
Ed
 1e-07 1 1 0
1  99 0 0 5.00000000000001
2  197 32 35 0 5.00000000000001
2  198 47 63 0 5.00000000000001
0

0101000
+140 36 -135 36 *
Wi

0101100
+139 0 -134 0 -133 34 +215 27 *
Fa
0  1e-07 32 0

0111000
+132 0 *
Ve
0.00012934441461
6.485 11.1 -8.25357010154124
0 0

0101101
*
Ed
 1.00000004e-07 1 1 0
1  100 0 5.19436944925268 6.28318530717959
2  199 33 35 5.19436944925268 6.28318530717959
2  200 47 63 5.19436944925268 6.28318530717959
0

0101000
+130 36 -135 36 *
Ed
 0.000129344414606 1 1 0
1  101 0 -12 -0
2  201 33 21 -12 -0
2  202 15 0 -12 -0
0

0101000
+214 54 -130 54 *
Wi

0101100
-129 64 -134 21 +213 53 -128 0 *
Fa
0  1e-07 33 21

0111000
+127 0 *
Ve
1.00000004e-07
3.44784921366226 11.1 -9
0 0

0101101
*
Ve
0.000129344414583
5.34358846276408 11.1 -8.71975902059676
0 0

0101101
*
Ed
 1.00000004e-07 1 1 0
1  102 0 4.71238898038469 5.00591667819962
2  203 34 35 4.71238898038469 5.00591667819962
2  204 48 63 4.71238898038469 5.00591667819962
0

0101000
+125 36 -124 36 *
Ed
 0.000129344414579 1 1 0
1  103 0 -12 4e-15
2  205 34 21 -12 4e-15
2  206 14 0 -12 4e-15
0

0101000
+210 54 -124 54 *
Ed
 1e-07 1 1 0
1  104 0 0 12
2  207 34 0 0 12
2  208 35 0 0 12
4 G1 34 0 35 0
0

0101000
+125 23 -208 23 *
Wi

0101100
-123 64 +122 0 +207 53 +121 21 *
Fa
0  1e-07 34 21

0111000
+120 0 *
Ve
1.00000004e-07
-3.44784921366226 11.1 -9
0 0

0101101
*
Ed
 1e-07 1 1 0
1  105 0 0 12
2  209 35 0 0 12
2  210 36 0 0 12
4 G1 35 0 36 0
0

0101000
+118 23 -206 23 *
Ed
 1.00000004e-07 1 1 0
1  106 0 0 6.89569842732453
2  211 35 35 0 6.89569842732453
2  212 48 63 0 6.89569842732453
0

0101000
+118 36 -125 36 *
Wi

0101100
+117 0 -121 0 -116 34 +205 27 *
Fa
0  1e-07 35 0

0111000
+115 0 *
Ve
0.000129344414583
-5.34358846276408 11.1 -8.71975902059676
0 0

0101101
*
Ed
 1.00000004e-07 1 1 0
1  107 0 4.41886128256976 4.71238898038469
2  213 36 35 4.41886128256976 4.71238898038469
2  214 48 63 4.41886128256976 4.71238898038469
0

0101000
+113 36 -118 36 *
Ed
 0.000129344414579 1 1 0
1  108 0 -12 4e-15
2  215 36 21 -12 4e-15
2  216 14 0 -12 4e-15
0

0101000
+204 54 -113 54 *
Wi

0101100
-112 64 -117 21 +203 53 -111 0 *
Fa
0  1e-07 36 21

0111000
+110 0 *
Ve
1.00000004e-07
-10 11.1 -2.44784921366227
0 0

0101101
*
Ve
0.000129344414586
-6.48500000000001 11.1 -8.25357010154124
0 0

0101101
*
Ed
 1.00000004e-07 1 1 0
1  109 0 3.14159265358979 4.2304085115167
2  217 37 35 3.14159265358979 4.2304085115167
2  218 47 63 3.14159265358979 4.2304085115167
0

0101000
+108 36 -107 36 *
Ed
 0.000129344414579 1 1 0
1  110 0 -12 -0
2  219 37 21 -12 -0
2  220 13 0 -12 -0
0

0101000
+200 54 -107 54 *
Ed
 1e-07 1 1 0
1  111 0 0 12
2  221 37 0 0 12
2  222 38 0 0 12
4 G1 37 0 38 0
0

0101000
+108 23 -198 23 *
Wi

0101100
-106 64 +105 0 +197 53 +104 21 *
Fa
0  1e-07 37 21

0111000
+103 0 *
Ve
1.00000004e-07
-10 11.1 2.55215078633775
0 0

0101101
*
Ed
 1e-07 1 1 0
1  112 0 0 12
2  223 38 0 0 12
2  224 39 0 0 12
4 G1 38 0 39 0
0

0101000
+101 23 -196 23 *
Ed
 1e-07 1 1 0
1  113 0 0 5.00000000000001
2  225 38 35 0 5.00000000000001
2  226 47 63 0 5.00000000000001
0

0101000
+101 36 -108 36 *
Wi

0101100
+100 0 -104 0 -99 34 +195 27 *
Fa
0  1e-07 38 0

0111000
+98 0 *
Ed
 1.00000004e-07 1 1 0
1  114 0 2.05536220541408 3.14159265358979
2  227 39 35 2.05536220541408 3.14159265358979
2  228 47 63 2.05536220541408 3.14159265358979
0

0101000
+167 36 -101 36 *
Wi

0101100
+166 0 -100 0 -96 34 +194 27 *
Fa
0  1e-07 39 0

0111000
+95 0 *
Ve
1.00000001e-07
9.80001520136248 11.1 -2.50000000000001
0 0

0101101
*
Ed
 1.00000001e-07 1 1 0
1  115 0 0 7.9
2  229 40 0 0 7.9
2  230 41 0 0 7.9
4 G1 40 0 41 0
0

0101000
+184 33 -93 33 *
Ve
0.000129344414788
6.45780343831209 11.1 -8.03238353416116
0 0

0101101
*
Ed
 1e-07 1 1 0
1  116 0 5.19630161364876 6.28318530717959
2  231 40 41 5.19630161364876 6.28318530717959
2  232 47 67 5.19630161364876 6.28318530717959
0

0101000
+91 43 -93 43 *
Ed
 0.000129344414606 1 1 0
1  117 0 0 7.89999999999999
2  233 40 65 0 7.89999999999999
2  234 16 0 0 7.89999999999999
0

0101000
+186 54 -91 54 *
Wi

0101100
-183 59 -92 65 +90 66 +89 0 *
Fa
0  1e-07 40 65

0111000
+88 0 *
Ve
1.00000001e-07
9.80001520136248 11.1 2.50000000000001
0 0

0101101
*
Ed
 1.00000001e-07 1 1 0
1  118 0 0 7.9
2  235 41 0 0 7.9
2  236 42 0 0 7.9
4 G1 41 0 42 0
0

0101000
+182 33 -86 33 *
Ed
 1e-07 1 1 0
1  119 0 0 5.00000000000001
2  237 41 41 0 5.00000000000001
2  238 47 67 0 5.00000000000001
0

0101000
+86 43 -93 43 *
Wi

0101100
+85 0 -92 0 -181 68 +84 69 *
Fa
0  1e-07 41 0

0111000
+83 0 *
Ve
1.00000001e-07
3.55001520136248 11.1 8.75
0 0

0101101
*
Ed
 1.00000001e-07 1 1 0
1  120 0 0 7.9
2  239 42 0 0 7.9
2  240 43 0 0 7.9
4 G1 42 0 43 0
0

0101000
+180 33 -81 33 *
Ed
 1e-07 1 1 0
1  121 0 0 1.5707963267949
2  241 42 41 0 1.5707963267949
2  242 47 67 0 1.5707963267949
0

0101000
+86 43 -81 43 *
Wi

0101100
+85 0 -80 0 -179 68 +79 69 *
Fa
0  1e-07 42 0

0111000
+78 0 *
Ve
1e-07
-3.54998479863752 11.1 8.75
0 0

0101101
*
Ed
 1e-07 1 1 0
1  122 0 0 7.9
2  243 43 0 0 7.9
2  244 44 0 0 7.9
4 G1 43 0 44 0
0

0101000
+178 33 -76 33 *
Ed
 1e-07 1 1 0
1  123 0 0 7.1
2  245 43 41 0 7.1
2  246 47 67 0 7.1
0

0101000
+76 43 -81 43 *
Wi

0101100
+75 0 -80 0 -177 68 +74 69 *
Fa
0  1e-07 43 0

0111000
+73 0 *
Ve
1.00000001e-07
-9.79998479863752 11.1 2.50000000000001
0 0

0101101
*
Ed
 1.00000001e-07 1 1 0
1  124 0 0 7.9
2  247 44 0 0 7.9
2  248 45 0 0 7.9
4 G1 44 0 45 0
0

0101000
+176 33 -71 33 *
Ed
 1e-07 1 1 0
1  125 0 1.5707963267949 3.14159265358979
2  249 44 41 1.5707963267949 3.14159265358979
2  250 47 67 1.5707963267949 3.14159265358979
0

0101000
+76 43 -71 43 *
Wi

0101100
+75 0 -70 0 -175 68 +69 69 *
Fa
0  1e-07 44 0

0111000
+68 0 *
Ve
1.00000001e-07
-9.79998479863754 11.1 -2.49999999999999
0 0

0101101
*
Ed
 1.00000001e-07 1 1 0
1  126 0 0 7.9
2  251 45 0 0 7.9
2  252 46 0 0 7.9
4 G1 45 0 46 0
0

0101000
+174 33 -66 33 *
Ed
 1e-07 1 1 0
1  127 0 0 4.99999999999999
2  253 45 41 0 4.99999999999999
2  254 47 67 0 4.99999999999999
0

0101000
+71 43 -66 43 *
Wi

0101100
+70 0 -65 0 -173 68 +64 69 *
Fa
0  1e-07 45 0

0111000
+63 0 *
Ve
0.000129344414762
-6.45779300898149 11.1 -8.03237303621656
0 0

0101101
*
Ed
 0.000129344414566 1 1 0
1  128 0 0 7.89999999999999
2  255 46 65 0 7.89999999999999
2  256 12 0 0 7.89999999999999
0

0101000
+172 54 -61 54 *
Ed
 1e-07 1 1 0
1  129 0 3.14159265358979 4.22847273684791
2  257 46 41 3.14159265358979 4.22847273684791
2  258 47 67 3.14159265358979 4.22847273684791
0

0101000
+66 43 -61 43 *
Wi

0101100
-171 59 -60 0 +59 66 +65 65 *
Fa
0  1e-07 46 65

0111000
+58 0 *
Ve
0.000129344414579
-6.485 11.1 -8.05975902059676
0 0

0101101
*
Ed
 0.000129344414579 1 1 0
1  130 0 4.40010146974004 4.59391255068452
2  259 47 70 4.40010146974004 4.59391255068452
2  260 13 0 4.40010146974004 4.59391255068452
0

0101000
+56 54 -107 54 *
Ed
 0.000129344414566 1 1 0
1  131 0 5.38749058651804 5.4260938571146
2  261 47 70 5.38749058651804 5.4260938571146
2  262 12 0 5.38749058651804 5.4260938571146
0

0101000
+61 54 -56 54 *
Ve
0.000129344414611
6.485 11.1 -8.05975902059676
0 0

0101101
*
Ed
 0.000129344414606 1 1 0
1  132 0 5.38749359728614 5.42608206998495
2  263 47 70 5.38749359728614 5.42608206998495
2  264 16 0 5.38749359728614 5.42608206998495
0

0101000
+91 54 -53 54 *
Ed
 0.000129344414606 1 1 0
1  133 0 4.40010146974004 4.59391255068452
2  265 47 70 4.40010146974004 4.59391255068452
2  266 15 0 4.40010146974004 4.59391255068452
0

0101000
+53 54 -130 54 *
Wi

0101100
-96 64 -99 64 -106 64 +55 0 +54 0 +59 66 +64 66 +69 66 -74 66 +79 66 
-84 66 +90 66 -52 0 -51 0 -129 64 +133 64 -138 64 -143 64 -148 64 +153 64 
-158 64 +163 64 *
Fa
0  1e-07 47 70

0111000
+50 0 *
Ve
0.000129344414776
4.16409803429693 11.1 -8.7197590205968
0 0

0101101
*
Ed
 0.000129344414579 1 1 0
1  134 0 -2.10108534962802 -0.921594921161061
2  267 48 70 -2.10108534962802 -0.921594921161061
2  268 14 0 -2.10108534962802 -0.921594921161061
0

0101000
+124 54 -48 54 *
Ve
1.00000001e-07
3.54998479863753 11.1 -8.74999999992606
0 0

0101101
*
Ed
 1e-07 1 1 0
1  135 0 4.7123841159487 4.81080100897321
2  269 48 67 4.7123841159487 4.81080100897321
2  270 49 41 4.7123841159487 4.81080100897321
0

0101000
+46 43 -48 43 *
Ve
1.00000007e-07
-3.54998479863754 11.1 -8.74999999999999
0 0

0101101
*
Ed
 1e-07 1 1 0
1  136 0 0 7.09996959727506
2  271 48 67 0 7.09996959727506
2  272 50 41 0 7.09996959727506
0

0101000
+44 43 -46 43 *
Ve
0.000129344414698
-4.16406763157229 11.1 -8.71975902059675
0 0

0101101
*
Ed
 1e-07 1 1 0
1  137 0 4.61397695179612 4.71238898038469
2  273 48 67 4.61397695179612 4.71238898038469
2  274 51 41 4.61397695179612 4.71238898038469
0

0101000
+42 43 -44 43 *
Ed
 0.000129344414579 1 1 0
1  138 0 2.08203692892215 3.26155776011406
2  275 48 70 2.08203692892215 3.26155776011406
2  276 14 0 2.08203692892215 3.26155776011406
0

0101000
+42 54 -113 54 *
Wi

0101100
-112 64 -116 64 -123 64 -47 0 +45 66 +43 66 +41 66 -40 0 *
Fa
0  1e-07 48 70

0111000
+39 0 *
Ve
0.000129344414579
4.16409803429713 19 -8.71975902059678
0 0

0101101
*
Ve
0.000129344414579
-4.16406763157217 19 -8.71975902059677
0 0

0101101
*
Ed
 0.000129344414579 1 1 0
1  139 0 2.32090196570287 10.6490676315722
2  277 52 15 2.32090196570287 10.6490676315722
2  278 14 58 2.32090196570287 10.6490676315722
0

0101000
+37 50 -36 50 *
Ve
1.00000007e-07
-3.54998479863754 19 -8.75
0 0

0101101
*
Ed
 1e-07 1 1 0
1  140 0 4.61397695179614 4.71238898038469
2  279 52 60 4.61397695179614 4.71238898038469
2  280 51 61 4.61397695179614 4.71238898038469
0

0101000
+36 62 -34 62 *
Ve
1.00000001e-07
3.54998479863753 19 -8.74999999992606
0 0

0101101
*
Ed
 1e-07 1 1 0
1  141 0 0 7.09996959727506
2  281 52 60 0 7.09996959727506
2  282 50 61 0 7.09996959727506
0

0101000
+34 62 -32 62 *
Ed
 1e-07 1 1 0
1  142 0 4.7123841159487 4.81080100897324
2  283 52 60 4.7123841159487 4.81080100897324
2  284 49 61 4.7123841159487 4.81080100897324
0

0101000
+32 62 -37 62 *
Wi

0101100
-35 57 -33 59 -31 59 -30 59 *
Fa
0  1e-07 52 56

0111000
+29 0 *
Ed
 0.000129344414579 1 1 0
1  143 0 0 7.89999999999999
2  285 49 65 0 7.89999999999999
2  286 14 0 0 7.89999999999999
0

0101000
+37 54 -48 54 *
Ed
 1.00000001e-07 1 1 0
1  144 0 0 7.9
2  287 49 0 0 7.9
2  288 50 0 0 7.9
4 G1 49 0 50 0
0

0101000
+32 33 -46 33 *
Wi

0101100
-30 59 -27 0 +45 66 +26 65 *
Fa
0  1e-07 49 65

0111000
+25 0 *
Ed
 1.00000007e-07 1 1 0
1  145 0 0 7.9
2  289 51 0 0 7.9
2  290 50 0 0 7.9
4 G1 51 0 50 0
0

0101000
+34 33 -44 33 *
Ed
 0.000129344414579 1 1 0
1  146 0 0 7.89999999999999
2  291 51 65 0 7.89999999999999
2  292 14 0 0 7.89999999999999
0

0101000
+36 54 -42 54 *
Wi

0101100
-33 59 -23 65 +41 66 +22 0 *
Fa
0  1e-07 51 65

0111000
+21 0 *
Wi

0101100
+23 0 -26 0 -31 68 +43 69 *
Fa
0  1e-07 50 0

0111000
+19 0 *
Ed
 1e-07 1 1 0
1  147 0 -21 7.89999999999998
2  293 12 0 -21 7.89999999999998
2  294 13 0 -21 7.89999999999998
0

0101000
+337 54 -56 54 *
Wi

0101000
+260 44 +170 57 +60 0 +54 0 -17 0 -336 71 *
Fa
0  0.000129344414566 12 0

0111000
+16 0 *
Ed
 1e-07 1 1 0
1  148 0 -21 19.9
2  295 13 0 -21 19.9
2  296 14 0 -21 19.9
0

0101000
+335 54 -202 54 *
Wi

0101000
+17 0 +55 0 -105 0 +199 0 -14 0 -334 71 *
Fa
0  0.000129344414579 13 0

0111000
+13 0 *
Ed
 1e-07 1 1 0
1  149 0 -21 19.9
2  297 14 0 -21 19.9
2  298 15 0 -21 19.9
0

0101000
+333 54 -212 54 *
Wi

0101000
+332 71 +14 0 -201 0 +111 0 -40 0 -22 0 -35 57 +27 0 -47 0 -122 0 
-209 0 -11 0 *
Fa
0  0.000129344414579 14 0

0111000
+10 0 *
Ed
 1e-07 1 1 0
1  150 0 -21 7.89999999999998
2  299 15 0 -21 7.89999999999998
2  300 16 0 -21 7.89999999999998
0

0101000
+331 54 -53 54 *
Wi

0101000
+330 71 +11 0 -211 0 +128 0 -51 0 -8 0 *
Fa
0  0.000129344414606 15 0

0111000
+7 0 *
Wi

0101000
-253 44 +328 71 +8 0 -52 0 -89 0 -185 57 *
Fa
0  0.000129344414606 16 0

0111000
+5 0 *
Sh

0101000
+317 11 +310 21 +301 21 +296 21 +289 21 +282 44 +277 44 +272 44 +267 44 +262 44 
+257 44 -250 44 -245 44 +240 44 -235 44 +232 44 -192 0 +189 21 -187 21 -168 0 
-161 21 +156 21 -151 21 +146 21 +141 21 +136 21 -131 21 +126 0 +119 0 +114 21 
+109 0 +102 0 +97 21 +94 21 +87 0 -82 65 +77 65 -72 65 +67 65 +62 65 
+57 0 -49 0 -38 0 -28 0 +24 0 +20 0 +18 65 +15 0 +12 0 +9 0 
+6 0 +4 0 *
So

0100000
+3 0 *
Co

1100000
+2 0 *

+1 3 